<?xml version="1.0" encoding="UTF-8" standalone="no"?>
<!DOCTYPE svg PUBLIC "-//W3C//DTD SVG 1.1//EN" "http://www.w3.org/Graphics/SVG/1.1/DTD/svg11.dtd">
<svg width="100%" height="100%" viewBox="0 0 2732 2048" version="1.1" xmlns="http://www.w3.org/2000/svg" xmlns:xlink="http://www.w3.org/1999/xlink" xml:space="preserve" xmlns:serif="http://www.serif.com/" style="fill-rule:evenodd;clip-rule:evenodd;stroke-linejoin:round;stroke-miterlimit:2;">
    <g id="BACKGROUND">
        <path d="M649.238,1696.9L1232.92,1694.12C1232.92,1694.12 1226.5,1657.46 1165.34,1663.45C1145.53,1665.39 1134.71,1648.87 1114.86,1625.13C1096.93,1603.7 1046.48,1544.8 962.382,1597.41C947.841,1606.5 913.458,1616.52 887.327,1599.2C868.464,1586.69 805.987,1526.72 758.308,1600.7C748.906,1615.29 733.805,1641.14 706.42,1649.18C682.33,1656.26 643.918,1662.06 649.238,1696.9Z" style="fill:rgb(168,193,242);"/>
        <path d="M1761.66,1677.19L2234.26,1676.54C2234.26,1676.54 2209.38,1611.75 2149.23,1626.34C2129.69,1631.09 2110.96,1644.38 2083.1,1598.13C2073.69,1582.52 2014.49,1537.53 1960,1572.88C1932.33,1590.83 1902.38,1641.67 1858.06,1630.33C1815.45,1619.44 1767.33,1642.12 1761.66,1677.19Z" style="fill:rgb(168,193,242);"/>
        <g>
            <path d="M1230.57,402.99L1238.27,392.041L1259.11,409.749L1253.78,418.858L1230.57,402.99Z" style="fill:rgb(105,186,201);"/>
            <path d="M1253.78,376.325L1270.73,395.721L1279.44,390.422L1263.63,364.046L1253.78,376.325Z" style="fill:rgb(105,186,201);"/>
            <path d="M1279.44,356.867L1291.72,382.567L1302.12,382.567L1294.4,350.37L1279.44,356.867Z" style="fill:rgb(105,186,201);"/>
            <path d="M1522.14,376.683L1530.97,382.567L1549.95,357.118L1539.06,348.631L1522.14,376.683Z" style="fill:rgb(105,186,201);"/>
            <path d="M1543.47,391.235L1549.95,401.078L1579.6,384.734L1569.94,368.844L1543.47,391.235Z" style="fill:rgb(105,186,201);"/>
            <path d="M1556.46,420.836L1554.7,411.138L1585.22,405.747L1585.22,420.836L1556.46,420.836Z" style="fill:rgb(105,186,201);"/>
            <path d="M1034.77,502.099L1044.87,485.132C1045.71,483.71 1047.56,483.242 1048.98,484.089C1050.4,484.936 1050.87,486.779 1050.02,488.201L1037.4,509.406C1036.86,510.306 1035.9,510.862 1034.85,510.872C1033.8,510.882 1032.83,510.345 1032.27,509.455L1019.1,488.25C1018.22,486.844 1018.65,484.993 1020.06,484.119C1021.47,483.245 1023.32,483.677 1024.19,485.084L1034.77,502.099Z" style="fill:rgb(168,193,242);"/>
            <g transform="matrix(1,0,0,1,73.1737,38.8565)">
                <path d="M1034.66,501.236L1044.91,485.061C1045.8,483.662 1047.65,483.247 1049.05,484.133C1050.45,485.02 1050.86,486.875 1049.98,488.273L1037.22,508.403C1036.67,509.266 1035.72,509.791 1034.7,509.796C1033.67,509.801 1032.72,509.285 1032.16,508.427L1019.13,488.298C1018.23,486.908 1018.62,485.049 1020.01,484.149C1021.4,483.249 1023.26,483.646 1024.16,485.036L1034.66,501.236Z" style="fill:rgb(168,193,242);"/>
            </g>
            <g transform="matrix(1,0,0,1,761.814,66.6094)">
                <path d="M1034.92,501.875L1044.87,485.135C1045.71,483.711 1047.55,483.242 1048.98,484.088C1050.4,484.934 1050.87,486.776 1050.02,488.199L1037.59,509.125C1037.06,510.02 1036.1,510.576 1035.06,510.592C1034.02,510.609 1033.04,510.085 1032.48,509.208L1019.12,488.282C1018.22,486.886 1018.63,485.03 1020.03,484.139C1021.42,483.247 1023.28,483.657 1024.17,485.052L1034.92,501.875Z" style="fill:rgb(168,193,242);"/>
            </g>
            <g transform="matrix(0.821282,0,0,0.785177,1158.9,437.313)">
                <path d="M1034.54,500.637L1044.37,484.605C1045.46,482.83 1047.72,482.312 1049.41,483.45C1051.11,484.588 1051.61,486.953 1050.52,488.729L1037.62,509.779C1036.95,510.875 1035.79,511.538 1034.54,511.538C1033.3,511.538 1032.14,510.875 1031.47,509.779L1018.57,488.729C1017.48,486.953 1017.98,484.588 1019.67,483.45C1021.37,482.312 1023.63,482.83 1024.72,484.605L1034.54,500.637Z" style="fill:rgb(168,193,242);"/>
            </g>
        </g>
    </g>
    <g id="CHARACTER-2" serif:id="CHARACTER 2">
        <g>
            <g transform="matrix(0.898638,0,0,1,156.892,-1.42681)">
                <path d="M1518.33,1777.72L1527.16,1688.72L1536.11,1689.24L1524.68,1781.01C1524.51,1782.55 1523.07,1783.72 1521.36,1783.72L1332.99,1783.72C1332.08,1783.72 1331.21,1783.38 1330.58,1782.8C1329.95,1782.2 1329.62,1781.41 1329.66,1780.59C1329.66,1780.59 1330.04,1771.3 1337.82,1763.26C1342.5,1758.42 1349.87,1753.97 1361.58,1752.45L1360.57,1688.02C1360.57,1688.02 1365.01,1685.39 1366.85,1685.43C1368.7,1685.47 1370.15,1686.85 1370.11,1688.51L1368.18,1755.2C1368.13,1756.72 1366.83,1757.97 1365.14,1758.11C1353.97,1759.03 1347.07,1762.85 1342.86,1767.2C1339.24,1770.93 1337.62,1775 1336.9,1777.72L1518.33,1777.72Z" style="fill:rgb(105,186,201);"/>
            </g>
            <g transform="matrix(-0.898638,0,0,1,3080.14,-7.81381)">
                <path d="M1361.58,1752.45C1349.87,1753.97 1342.5,1758.42 1337.82,1763.26C1330.04,1771.3 1329.66,1780.59 1329.66,1780.59C1329.62,1781.41 1329.95,1782.2 1330.58,1782.8C1331.21,1783.38 1332.08,1783.72 1332.99,1783.72L1521.36,1783.72C1523.07,1783.72 1524.51,1782.55 1524.68,1781.01L1540.84,1695.43L1534.31,1695.36L1518.33,1777.72L1336.9,1777.72C1337.62,1775 1339.24,1770.93 1342.86,1767.2C1347.07,1762.85 1353.97,1759.03 1365.14,1758.11C1366.83,1757.97 1368.13,1756.72 1368.18,1755.2L1370.11,1688.51C1370.15,1686.85 1368.7,1685.47 1366.85,1685.43C1365.01,1685.39 1363.48,1686.69 1363.43,1688.35L1361.58,1752.45Z" style="fill:rgb(105,186,201);"/>
            </g>
        </g>
        <g transform="matrix(1,0,0,1,33.4727,-36.2017)">
            <path d="M1470.33,850.011C1471.38,820.479 1481.71,805.699 1493.56,798.505C1512.32,787.114 1535.59,794.768 1535.59,794.768C1537.16,795.289 1538.02,796.988 1537.5,798.559C1536.98,800.131 1535.28,800.984 1533.7,800.463C1533.7,800.463 1513.19,793.601 1496.67,803.634C1485.51,810.413 1476.47,824.911 1476.25,853.948C1476.24,854.909 1475.77,855.809 1474.99,856.367C1474.2,856.925 1473.2,857.075 1472.29,856.77C1458.58,852.175 1440.81,856.565 1424.34,867.516C1384.84,893.786 1353.21,958.032 1400.29,1034.16C1401.16,1035.57 1400.73,1037.42 1399.32,1038.29C1397.91,1039.16 1396.06,1038.73 1395.19,1037.32C1345.79,957.425 1379.57,890.089 1421.02,862.52C1437.74,851.403 1455.75,846.777 1470.33,850.011Z" style="fill:rgb(255,210,116);"/>
        </g>
        <g>
            <g transform="matrix(1,0,0,1,4.15144,-7.71395)">
                <g transform="matrix(-0.939109,0.196777,0.185053,0.883156,2556.08,14.9476)">
                    <path d="M864.029,1107.91L706.607,1103.97L704.813,1307.65L862.556,1318.52L864.029,1107.91Z" style="fill:rgb(255,210,116);"/>
                </g>
                <g transform="matrix(-0.975501,0.219993,0.219993,0.975501,2545.42,-175.003)">
                    <rect x="821.989" y="1252.09" width="204.288" height="29.46" style="fill:rgb(255,210,116);"/>
                </g>
            </g>
            <g transform="matrix(-0.730426,0.379838,-0.379838,-0.730426,3086.25,1830.66)">
                <g transform="matrix(1,0,0,1,-5.53877,-6.5581)">
                    <path d="M733.324,1226.12C733.324,1213.03 743.952,1202.4 757.043,1202.4C770.134,1202.4 780.762,1213.03 780.762,1226.12C780.762,1231.02 784.745,1235.01 789.65,1235.01C794.555,1235.01 798.538,1231.02 798.538,1226.12C798.538,1203.21 779.945,1184.62 757.043,1184.62C734.142,1184.62 715.548,1203.21 715.548,1226.12C715.548,1231.02 719.531,1235.01 724.436,1235.01C729.341,1235.01 733.324,1231.02 733.324,1226.12Z" style="fill:white;"/>
                </g>
                <g transform="matrix(1,0,0,1,-5.53877,-6.5581)">
                    <path d="M780.762,1226.12C780.762,1239.21 770.134,1249.84 757.043,1249.84C743.952,1249.84 733.324,1239.21 733.324,1226.12C733.324,1221.21 729.341,1217.23 724.436,1217.23C719.531,1217.23 715.548,1221.21 715.548,1226.12C715.548,1249.02 734.142,1267.61 757.043,1267.61C779.945,1267.61 798.538,1249.02 798.538,1226.12C798.538,1221.21 794.555,1217.23 789.65,1217.23C784.745,1217.23 780.762,1221.21 780.762,1226.12Z" style="fill:white;"/>
                </g>
                <path d="M784.767,1236.83L833.139,1247.4C837.931,1248.44 842.671,1245.4 843.718,1240.61C844.765,1235.82 841.724,1231.08 836.932,1230.03L788.56,1219.47C783.768,1218.42 779.028,1221.46 777.981,1226.25C776.934,1231.05 779.975,1235.79 784.767,1236.83Z" style="fill:white;"/>
                <path d="M814.092,1252.89L821.692,1219.97C822.795,1215.19 819.811,1210.41 815.031,1209.31C810.252,1208.2 805.476,1211.19 804.372,1215.97L796.772,1248.89C795.669,1253.67 798.654,1258.45 803.433,1259.55C808.213,1260.65 812.989,1257.67 814.092,1252.89Z" style="fill:white;"/>
            </g>
        </g>
        <g transform="matrix(-1,0,0,1,2817.09,7.22012)">
            <g transform="matrix(-1,0,0,1,2817.09,-7.22012)">
                <path d="M1872.13,1252.14C1872.13,1252.14 1889.72,1261.33 1896.88,1261.1C1896.88,1261.1 1884.27,1283.89 1893.64,1288.94C1893.64,1288.94 1911.57,1284 1916.04,1269.25C1916.04,1269.25 1917.39,1247.71 1911.42,1234.5L1872.13,1252.14Z" style="fill:white;"/>
            </g>
            <g transform="matrix(0.592595,0.805501,-0.897838,0.660526,1573.55,-373.849)">
                <path d="M935.487,1357.51C936.081,1358.63 936.857,1359.97 938.838,1359.97C940.625,1359.97 942.075,1358.67 942.075,1357.07C942.075,1355.58 943.419,1354.38 945.075,1354.38C946.731,1354.38 948.075,1355.58 948.075,1357.07C948.075,1361.64 943.936,1365.35 938.838,1365.35C933.931,1365.35 931.537,1362.6 930.065,1359.81C929.356,1358.47 929.995,1356.87 931.491,1356.23C932.987,1355.59 934.777,1356.17 935.487,1357.51Z" style="fill:rgb(239,123,88);"/>
            </g>
            <g transform="matrix(0.592595,0.805501,-0.897838,0.660526,1573.55,-373.849)">
                <path d="M941.473,1342.59C941.473,1340.9 940.493,1339.15 938.62,1339.03C937.301,1338.95 936.49,1339.08 936.312,1339.64C935.862,1341.07 934.203,1341.9 932.609,1341.5C931.016,1341.09 930.088,1339.6 930.539,1338.17C931.268,1335.86 933.628,1333.31 939.056,1333.66C944.053,1333.99 947.473,1338.09 947.473,1342.59C947.473,1344.08 946.129,1345.28 944.473,1345.28C942.817,1345.28 941.473,1344.08 941.473,1342.59Z" style="fill:rgb(239,123,88);"/>
            </g>
            <g transform="matrix(0.592595,0.805501,-0.897838,0.660526,1587.89,-367.547)">
                <path d="M936.028,1358.51C936.588,1359.38 937.636,1359.97 938.838,1359.97C940.625,1359.97 942.075,1358.67 942.075,1357.07C942.075,1357.07 942.075,1341.94 942.075,1341.94C942.075,1340.34 940.625,1339.04 938.838,1339.04C937.051,1339.04 935.601,1340.34 935.601,1341.94C935.601,1341.94 935.601,1348.83 935.601,1348.83C935.601,1350.32 934.257,1351.53 932.601,1351.53C930.945,1351.53 929.601,1350.32 929.601,1348.83L929.601,1341.94C929.601,1337.37 933.74,1333.66 938.838,1333.66C943.936,1333.66 948.075,1337.37 948.075,1341.94C948.075,1341.94 948.075,1357.07 948.075,1357.07C948.075,1361.64 943.936,1365.35 938.838,1365.35C935.414,1365.35 932.422,1363.68 930.827,1361.19C930.002,1359.91 930.496,1358.26 931.932,1357.52C933.367,1356.78 935.202,1357.22 936.028,1358.51Z" style="fill:rgb(239,123,88);"/>
            </g>
            <g transform="matrix(0.592595,0.805501,-0.897838,0.660526,1602.23,-361.244)">
                <path d="M938.838,1339.04C937.051,1339.04 935.601,1340.34 935.601,1341.94C935.601,1341.94 935.601,1357.07 935.601,1357.07C935.601,1358.67 937.051,1359.97 938.838,1359.97C940.494,1359.97 941.838,1361.18 941.838,1362.66C941.838,1364.15 940.494,1365.35 938.838,1365.35C933.74,1365.35 929.601,1361.64 929.601,1357.07C929.601,1357.07 929.601,1341.94 929.601,1341.94C929.601,1337.37 933.74,1333.66 938.838,1333.66C940.494,1333.66 941.838,1334.86 941.838,1336.35C941.838,1337.83 940.494,1339.04 938.838,1339.04Z" style="fill:rgb(239,123,88);"/>
            </g>
            <g transform="matrix(0.592595,0.805501,-0.897838,0.660526,1602.23,-361.244)">
                <path d="M938.838,1359.97C940.625,1359.97 942.075,1358.67 942.075,1357.07C942.075,1357.07 942.075,1341.94 942.075,1341.94C942.075,1340.34 940.625,1339.04 938.838,1339.04C937.182,1339.04 935.838,1337.83 935.838,1336.35C935.838,1334.86 937.182,1333.66 938.838,1333.66C943.936,1333.66 948.075,1337.37 948.075,1341.94C948.075,1341.94 948.075,1357.07 948.075,1357.07C948.075,1361.64 943.936,1365.35 938.838,1365.35C937.182,1365.35 935.838,1364.15 935.838,1362.66C935.838,1361.18 937.182,1359.97 938.838,1359.97Z" style="fill:rgb(239,123,88);"/>
            </g>
            <g transform="matrix(0.511994,0.695942,-0.874546,0.64339,1661.24,-230.7)">
                <path d="M941.602,1341.3L941.603,1341.31C941.603,1341.31 941.603,1357.7 941.603,1357.7C941.603,1358.91 940.364,1359.9 938.838,1359.9C936.922,1359.9 935.366,1361.14 935.366,1362.66C935.366,1364.19 936.922,1365.43 938.838,1365.43C944.197,1365.43 948.547,1361.96 948.547,1357.7L948.547,1341.31C948.547,1339.3 947.902,1338.08 947.067,1337.3C945.852,1336.17 943.75,1335.56 940.089,1335.84C938.181,1335.98 936.781,1337.33 936.965,1338.85C937.148,1340.37 938.846,1341.48 940.753,1341.34C941.016,1341.32 941.321,1341.31 941.602,1341.3Z" style="fill:rgb(239,123,88);"/>
            </g>
            <g transform="matrix(0.511994,0.695942,-0.874546,0.64339,1661.24,-230.7)">
                <path d="M935.544,1347.58C935.556,1346.57 936.12,1345.01 937.137,1343.65C937.966,1342.54 939.086,1341.46 940.753,1341.34C942.661,1341.19 944.061,1339.84 943.877,1338.32C943.694,1336.81 941.996,1335.69 940.089,1335.84C936.874,1336.08 934.251,1337.5 932.33,1339.46C929.805,1342.04 928.599,1345.55 928.599,1347.62C928.599,1347.66 928.6,1347.7 928.602,1347.74L929.13,1357.78C929.185,1362.01 933.514,1365.43 938.838,1365.43C940.754,1365.43 942.31,1364.19 942.31,1362.66C942.31,1361.14 940.754,1359.9 938.838,1359.9C937.312,1359.9 936.073,1358.91 936.073,1357.7C936.073,1357.66 936.072,1357.62 936.07,1357.58L935.544,1347.58Z" style="fill:rgb(239,123,88);"/>
            </g>
            <path d="M949.907,1243.67C952.12,1241.01 953.51,1237.87 953.598,1234.24C953.667,1231.4 952.281,1228.75 950.161,1227.02C947.989,1225.25 945.097,1224.48 942.363,1225.25C940.151,1225.87 937.926,1227.51 936.408,1230.82C935.09,1233.69 935.253,1236.88 937.033,1240.07C937.77,1241.39 938.82,1242.74 940.182,1244.05C939.6,1244.39 939.003,1244.71 938.398,1245.03C930.138,1249.25 919.908,1250.55 919.908,1250.55C918.265,1250.76 917.101,1252.26 917.31,1253.9C917.519,1255.54 919.022,1256.71 920.665,1256.5C920.665,1256.5 931.987,1255.05 941.133,1250.37C942.576,1249.63 943.959,1248.81 945.244,1247.9C946.98,1248.96 948.954,1249.97 951.165,1250.9C952.692,1251.54 954.451,1250.81 955.09,1249.29C955.729,1247.76 955.008,1246 953.48,1245.36C952.194,1244.82 951.002,1244.26 949.907,1243.67ZM944.96,1240.33C944.26,1239.71 943.654,1239.08 943.147,1238.44C941.742,1236.67 941.128,1234.92 941.86,1233.32C942.445,1232.05 943.145,1231.26 943.997,1231.02C944.837,1230.78 945.7,1231.12 946.367,1231.67C947.088,1232.26 947.624,1233.13 947.6,1234.09C947.54,1236.54 946.527,1238.59 944.96,1240.33Z" style="fill:rgb(239,123,88);"/>
            <g transform="matrix(3.82179,0,0,3.42253,-2735.04,-3101.42)">
                <path d="M994.331,1184.06L970.013,1280.48C969.896,1280.94 969.462,1281.21 969.045,1281.08C968.628,1280.95 968.385,1280.47 968.502,1280L992.763,1183.55L994.331,1184.06Z" style="fill:rgb(239,123,88);"/>
            </g>
            <path d="M924.807,1273.9C924.667,1277.45 923.795,1279.11 922.584,1279.72C921.951,1280.03 921.211,1280.03 920.57,1279.72C914.892,1276.99 910.626,1273.47 907.471,1270.09C902.532,1264.76 900.634,1257.28 902.43,1250.24C918.051,1188.95 984.969,929.744 984.969,929.744L979.155,928.262C979.155,928.262 912.237,1187.47 896.616,1248.75C894.318,1257.77 896.746,1267.34 903.077,1274.18C906.673,1278.03 911.52,1282.03 917.965,1285.12C920.258,1286.23 922.933,1286.23 925.243,1285.1C927.683,1283.88 930.574,1281.08 930.809,1273.95C930.812,1273.87 930.812,1273.79 930.808,1273.71C930.808,1273.71 930.517,1265.02 920.996,1249.17C920.143,1247.75 918.298,1247.29 916.879,1248.14C915.46,1249 915,1250.84 915.853,1252.26C923.786,1265.47 924.72,1273 924.807,1273.9Z" style="fill:rgb(239,123,88);"/>
        </g>
        <g>
            <path d="M1661.89,710.287L1585.35,646.172L1511.01,732.863L1580.86,782.556C1580.86,782.556 1563.45,829.621 1606.95,879.504L1697.58,934.521C1697.58,934.521 1734.18,922.626 1737.64,911.323L1744.63,960.203L1838.14,935.457C1838.14,935.457 1820.75,871.146 1809.55,829.7C1803.54,807.481 1790.45,787.827 1772.26,773.719C1754.46,759.914 1734.76,744.631 1734.76,744.631C1734.76,744.631 1700.4,779.321 1671.06,760.71C1662.7,755.41 1642.02,733.349 1661.89,710.287Z" style="fill:rgb(109,146,221);"/>
            <g>
                <g transform="matrix(1.34488,0,0,1.34488,-677.674,-286.877)">
                    <path d="M1710.35,788.632C1721.68,788.632 1730.88,797.831 1730.88,809.162C1730.88,820.493 1721.68,829.692 1710.35,829.692C1707.48,829.692 1705.15,832.024 1705.15,834.897C1705.15,837.769 1707.48,840.102 1710.35,840.102C1727.43,840.102 1741.29,826.238 1741.29,809.162C1741.29,792.086 1727.43,778.222 1710.35,778.222C1707.48,778.222 1705.15,780.555 1705.15,783.427C1705.15,786.3 1707.48,788.632 1710.35,788.632Z" style="fill:rgb(66,111,192);"/>
                </g>
                <g transform="matrix(1.34488,0,0,1.34488,-677.674,-286.877)">
                    <path d="M1710.35,829.692C1699.02,829.692 1689.82,820.493 1689.82,809.162C1689.82,797.831 1699.02,788.632 1710.35,788.632C1713.22,788.632 1715.56,786.3 1715.56,783.427C1715.56,780.555 1713.22,778.222 1710.35,778.222C1693.28,778.222 1679.41,792.086 1679.41,809.162C1679.41,826.238 1693.28,840.102 1710.35,840.102C1713.22,840.102 1715.56,837.769 1715.56,834.897C1715.56,832.024 1713.22,829.692 1710.35,829.692Z" style="fill:rgb(66,111,192);"/>
                </g>
                <path d="M1645.85,895.112C1647.64,873.793 1665.53,857.023 1687.31,857.023C1710.28,857.023 1728.92,875.667 1728.92,898.633C1728.92,909.436 1724.8,919.282 1718.04,926.684C1714.03,928.752 1709.83,930.417 1705.45,931.69C1705.45,931.69 1700.96,929.113 1694.44,925.313C1706.23,922.169 1714.92,911.409 1714.92,898.633C1714.92,883.394 1702.55,871.023 1687.31,871.023C1672.08,871.023 1659.7,883.394 1659.7,898.633C1659.7,900.829 1659.96,902.965 1660.45,905.013C1653.21,900.515 1647.53,896.764 1645.85,895.112ZM1811.89,838.494L1815.67,852.667C1814.68,852.559 1814.52,851.665 1813.51,851.665C1798.27,851.665 1785.89,864.036 1785.89,879.275C1785.89,894.513 1798.27,906.885 1813.51,906.885C1820.01,906.885 1823.8,905.154 1828.52,901.387L1832.9,915.697C1826.67,919.421 1821.29,920.885 1813.51,920.885C1790.54,920.885 1771.89,902.24 1771.89,879.275C1771.89,856.675 1789.43,839.074 1811.89,838.494ZM1736.42,745.788C1741.49,749.358 1746.88,753.537 1752.49,758.137C1751.3,757.979 1750.08,757.897 1748.85,757.897C1733.61,757.897 1721.24,770.269 1721.24,785.507C1721.24,800.746 1733.61,813.118 1748.85,813.118C1764.09,813.118 1776.46,800.746 1776.46,785.507C1776.46,782.889 1776.09,780.356 1775.41,777.956C1780.27,782.312 1785.17,786.782 1790.06,791.262C1787.26,811.508 1769.86,827.118 1748.85,827.118C1725.88,827.118 1707.24,808.473 1707.24,785.507C1707.24,774.992 1711.15,765.382 1717.59,758.051C1723.81,754.179 1728.94,750.136 1731.93,747.484C1733.39,746.836 1734.88,746.268 1736.42,745.788ZM1548.67,689.661C1554.69,696.88 1558.32,706.164 1558.32,716.287C1558.32,731.24 1548.21,743.562 1536.36,750.897L1524,742.104C1534.79,738.347 1544.32,728.348 1544.32,716.287C1544.32,710.381 1542.46,704.905 1539.29,700.415L1548.67,689.661ZM1598.44,657.139L1609.39,666.311C1602.46,671.329 1597.95,679.484 1597.95,688.683C1597.95,703.922 1610.33,716.293 1625.57,716.293C1636.5,716.293 1645.96,709.921 1650.43,700.69L1661.38,709.863L1661.38,709.864C1660.55,711.014 1659.8,712.153 1659.12,713.285C1651.54,723.597 1639.33,730.293 1625.57,730.293C1602.6,730.293 1583.95,711.648 1583.95,688.683C1583.95,676.077 1589.57,664.774 1598.44,657.139Z" style="fill:rgb(66,111,192);"/>
            </g>
            <path d="M1580.97,782.298C1584.19,774.811 1587.95,767.69 1593.54,759.302C1594.27,758.202 1594.19,756.758 1593.35,755.743C1592.51,754.729 1591.1,754.382 1589.89,754.889C1578.07,759.808 1559.53,767.542 1559.53,767.542L1580.97,782.298Z" style="fill:rgb(66,111,192);"/>
        </g>
        <g>
            <g transform="matrix(1,0,0,1,-2.35474,-9.49676)">
                <path d="M1601.8,879.632L1697.58,934.521C1697.58,934.521 1750.56,949.07 1797.63,1164C1822.22,1276.24 1845.19,1443.11 1858.17,1691.09L1697.58,1697.47L1606.47,1196.92L1539.53,1697.47L1381.74,1696.04C1381.74,1696.04 1287.8,855.533 1601.8,879.632Z" style="fill:rgb(66,111,192);"/>
            </g>
            <path d="M1572.58,1089.97C1572.35,1088.18 1573.54,1086.53 1575.31,1086.19C1577.08,1085.85 1578.8,1086.95 1579.24,1088.69C1590.42,1133.06 1604.12,1187.42 1604.12,1187.42L1593.69,1251.41C1593.69,1251.41 1581.07,1154.88 1572.58,1089.97Z"/>
        </g>
        <g>
            <path d="M1674.54,627.391C1674.54,627.391 1665.01,655.268 1660.41,668.697C1657.84,676.238 1659.74,684.588 1665.32,690.272C1666.01,690.974 1666.75,691.636 1667.55,692.24C1676.28,698.849 1690.81,701.209 1703.14,698.614C1704.38,698.353 1705.18,697.132 1704.91,695.89C1704.65,694.647 1703.43,693.851 1702.19,694.113C1691.16,696.434 1678.14,694.484 1670.33,688.572C1669.71,688.105 1669.14,687.592 1668.6,687.049C1664.24,682.605 1662.75,676.079 1664.77,670.185C1669.36,656.756 1678.89,628.88 1678.89,628.88C1679.3,627.679 1678.66,626.37 1677.46,625.959C1676.26,625.548 1674.95,626.19 1674.54,627.391Z" style="fill:rgb(239,123,88);"/>
            <path d="M1671.35,692.244L1663.76,711.999C1663.3,713.184 1663.89,714.516 1665.08,714.972C1666.26,715.427 1667.6,714.835 1668.05,713.65L1675.64,693.894C1676.1,692.709 1675.51,691.378 1674.32,690.922C1673.14,690.467 1671.81,691.059 1671.35,692.244Z" style="fill:rgb(239,123,88);"/>
            <path d="M1730.98,675.499L1716.43,731.504C1716.11,732.733 1716.85,733.99 1718.08,734.309C1719.3,734.628 1720.56,733.89 1720.88,732.661L1735.43,676.656C1735.75,675.427 1735.02,674.171 1733.79,673.851C1732.56,673.532 1731.3,674.27 1730.98,675.499Z" style="fill:rgb(239,123,88);"/>
            <path d="M1729.91,677.746C1729.91,677.746 1734.86,678.024 1739.45,676.634C1742.55,675.694 1745.44,673.978 1746.96,671.208C1748,669.298 1748.45,666.865 1747.78,663.75C1747.19,661.053 1744.12,656.514 1739.08,655.838C1735.98,655.424 1732.02,656.4 1727.48,660.67C1726.55,661.539 1726.51,662.996 1727.38,663.921C1728.24,664.846 1729.7,664.89 1730.63,664.021C1733.75,661.087 1736.34,660.113 1738.47,660.398C1741.24,660.77 1742.96,663.239 1743.28,664.724C1743.67,666.505 1743.52,667.907 1742.92,668.999C1741.97,670.731 1740.05,671.644 1738.11,672.232C1734.29,673.389 1730.17,673.153 1730.17,673.153C1728.9,673.082 1727.81,674.052 1727.74,675.32C1727.67,676.587 1728.64,677.674 1729.91,677.746Z" style="fill:rgb(239,123,88);"/>
            <path d="M1716.86,733.942L1731.18,747.936C1732.71,746.587 1733.82,745.558 1734.76,744.653L1720.16,730.462C1719.2,729.55 1718.09,729.499 1717.17,730.459C1716.26,731.419 1715.9,733.03 1716.86,733.942Z" style="fill:rgb(239,123,88);"/>
        </g>
        <path d="M1718.51,732.202L1735.19,748.054" style="fill:none;"/>
        <g>
            <path d="M1708.2,637.465C1689.63,642.44 1675.1,629.538 1675.1,629.538C1674.15,628.695 1674.06,627.24 1674.91,626.291C1675.75,625.342 1677.2,625.256 1678.15,626.099C1678.15,626.099 1692.32,638.689 1709.82,632.119C1710.57,631.838 1711.41,631.966 1712.04,632.459C1712.67,632.952 1713,633.738 1712.91,634.533C1712.91,634.533 1711.71,638.493 1713.26,642.813C1717.86,655.642 1731.63,657.573 1731.63,657.573C1729.04,659.17 1727.22,660.681 1726.92,662.024C1726.92,662.024 1721.01,661.956 1716.2,657.808C1711.72,653.938 1709.56,648.463 1708.73,643.585C1708.33,641.272 1708.21,639.132 1708.2,637.465Z" style="fill:rgb(255,210,116);"/>
            <path d="M1673.89,626.582C1679.07,615.144 1691.89,609.277 1703.92,612.834C1718.85,617.223 1737.56,626.844 1744.6,647.31C1752.71,647.792 1780.99,651.043 1796.37,672.921C1803.7,683.347 1808.19,698.01 1806.03,718.688C1820.95,718.95 1879.15,723.581 1903.77,778.738C1909.25,791.027 1918.88,828.561 1891.64,871.779C1902.22,878.191 1939.07,903.371 1944.27,945.888C1946.87,967.134 1941.64,992.765 1921.08,1022.54C1910.23,1038.26 1892.93,1048.94 1872.67,1054.39C1871.07,1054.83 1869.42,1053.88 1868.99,1052.28C1868.56,1050.68 1869.51,1049.03 1871.11,1048.6C1889.93,1043.54 1906.07,1033.73 1916.14,1019.13C1935.61,990.938 1940.78,966.734 1938.32,946.616C1932.59,899.834 1886.01,875.455 1886.01,875.455C1885.26,875.06 1884.71,874.366 1884.5,873.544C1884.29,872.722 1884.44,871.849 1884.91,871.142C1912.53,829.45 1903.55,792.978 1898.29,781.183C1871.56,721.309 1802.8,724.701 1802.8,724.701C1801.91,724.744 1801.04,724.389 1800.44,723.732C1799.84,723.075 1799.56,722.185 1799.68,721.301C1802.46,700.775 1798.52,686.403 1791.46,676.371C1775.06,653.035 1742.39,653.224 1742.39,653.224C1741.06,653.228 1739.88,652.352 1739.51,651.074C1733.71,631.458 1716.05,622.653 1702.23,618.589C1693.06,615.88 1683.3,620.347 1679.36,629.056L1673.89,626.582ZM1673.89,626.582C1673.89,626.582 1673.89,626.582 1673.89,626.582C1673.89,626.582 1673.89,626.582 1673.89,626.582Z" style="fill:rgb(255,210,116);"/>
            <path d="M1777.21,1046.76L1763.64,1039.03L1766.53,1046.68L1778.89,1053.2L1777.21,1046.76Z" style="fill:rgb(255,210,116);"/>
        </g>
        <g>
            <path d="M1587.94,869.634L1591.01,857.023L1718.04,926.684L1705.47,931.69L1587.94,869.634Z" style="fill:rgb(252,83,68);"/>
            <g transform="matrix(1.08882,0.0374514,-0.0413493,1.20215,-105.01,-271.032)">
                <ellipse cx="1639.91" cy="918.229" rx="17.245" ry="15.014" style="fill:rgb(252,83,68);"/>
            </g>
        </g>
        <g>
            <path d="M1525.35,716.623C1525.35,716.623 1494.88,683.969 1472.87,660.412C1460.26,646.923 1453.98,628.715 1455.59,610.324C1461.06,547.716 1473.16,409.211 1473.16,409.211C1473.29,407.729 1472.19,406.421 1470.71,406.291C1469.23,406.162 1467.92,407.26 1467.79,408.742C1467.79,408.742 1455.69,547.247 1450.22,609.855C1448.48,629.769 1455.28,649.486 1468.93,664.092C1490.94,687.649 1521.41,720.303 1521.41,720.303L1525.35,716.623Z" style="fill:rgb(239,123,88);"/>
            <path d="M1509.64,434.222C1508.42,433.146 1507.67,432.178 1507.21,431.367C1507.15,431.27 1507.1,431.169 1507.06,431.066C1505.94,428.379 1506.89,425.278 1509.37,423.65C1514.95,420.113 1522.03,419.735 1528,420.382C1535.54,421.254 1541.2,427.679 1541.11,435.264L1539.18,604.649L1585.31,646.346L1581.7,650.345L1534.66,607.834C1534.09,607.316 1533.76,606.576 1533.77,605.803C1533.77,605.803 1535.29,472.446 1535.72,435.202C1535.78,430.377 1532.18,426.291 1527.4,425.738C1522.57,425.215 1516.79,425.331 1512.29,428.177C1512.05,428.333 1511.94,428.615 1512,428.884C1513.27,430.891 1516.98,433.548 1526.61,436.776C1527.95,437.225 1528.71,438.634 1528.36,440.003C1528.01,441.372 1526.66,442.236 1525.27,441.983L1511.37,439.45C1509.11,440.815 1502.59,444.998 1497.5,450.686C1497.19,451.034 1496.88,451.388 1496.58,451.748C1498.93,454.813 1500.24,458.183 1500.46,460.755C1501.05,467.336 1498.89,470.603 1496.65,471.924C1494.93,472.943 1492.93,473.038 1491.1,472.393C1488.59,471.509 1486.45,469.188 1486.03,466.364C1485.29,461.383 1486.88,456.536 1489.62,452.18C1487.53,450.54 1484.86,449.337 1481.67,449.109C1480.18,449.003 1479.07,447.712 1479.17,446.229C1479.28,444.745 1480.57,443.626 1482.05,443.732C1486.37,444.041 1489.96,445.665 1492.79,447.889C1493.02,447.621 1493.25,447.355 1493.48,447.093C1500.33,439.435 1509.55,434.267 1509.55,434.267L1509.64,434.222ZM1493.35,456.389C1491.76,459.262 1490.88,462.356 1491.36,465.567C1491.46,466.257 1491.95,466.819 1492.53,467.145C1492.96,467.389 1493.47,467.54 1493.91,467.284C1494.3,467.053 1494.56,466.587 1494.78,465.943C1495.16,464.805 1495.27,463.259 1495.1,461.23C1494.97,459.82 1494.38,458.093 1493.35,456.389Z" style="fill:rgb(239,123,88);"/>
            <g transform="matrix(1.04192,0.0541314,-0.0653092,1.25708,-50.8609,-226.7)">
                <path d="M1493.8,434.6C1489.16,434.6 1485.13,438.183 1485.13,442.821L1485.13,456.379C1485.13,461.018 1489.16,464.601 1493.8,464.601C1495.23,464.601 1496.38,463.642 1496.38,462.46C1496.38,461.278 1495.23,460.319 1493.8,460.319C1491.72,460.319 1490.3,458.458 1490.3,456.379C1490.3,456.379 1490.3,442.821 1490.3,442.821C1490.3,440.743 1491.72,438.882 1493.8,438.882C1495.23,438.882 1496.38,437.922 1496.38,436.741C1496.38,435.559 1495.23,434.6 1493.8,434.6Z" style="fill:rgb(239,123,88);"/>
            </g>
            <g transform="matrix(1.04192,0.0541314,-0.0653092,1.25708,-50.8609,-226.7)">
                <path d="M1493.8,464.601C1498.44,464.601 1502.46,461.018 1502.46,456.379C1502.46,456.379 1502.46,442.821 1502.46,442.821C1502.46,438.183 1498.44,434.6 1493.8,434.6C1492.37,434.6 1491.22,435.559 1491.22,436.741C1491.22,437.922 1492.37,438.882 1493.8,438.882C1495.88,438.882 1497.3,440.743 1497.3,442.821C1497.3,442.821 1497.3,456.379 1497.3,456.379C1497.3,458.458 1495.88,460.319 1493.8,460.319C1492.37,460.319 1491.22,461.278 1491.22,462.46C1491.22,463.642 1492.37,464.601 1493.8,464.601Z" style="fill:rgb(239,123,88);"/>
            </g>
            <g transform="matrix(1.0708,0.0556318,-0.0659527,1.26946,-80.5861,-234.779)">
                <path d="M1493.8,434.621C1489.18,434.621 1485.2,438.204 1485.2,442.821L1485.2,456.379C1485.2,460.997 1489.18,464.58 1493.8,464.58C1495.19,464.58 1496.31,463.63 1496.31,462.46C1496.31,461.29 1495.19,460.34 1493.8,460.34C1491.7,460.34 1490.23,458.478 1490.23,456.379C1490.23,456.379 1490.23,442.821 1490.23,442.821C1490.23,440.723 1491.7,438.861 1493.8,438.861C1495.19,438.861 1496.31,437.911 1496.31,436.741C1496.31,435.571 1495.19,434.621 1493.8,434.621Z" style="fill:rgb(239,123,88);"/>
            </g>
            <g transform="matrix(1.0708,0.0556318,-0.0659527,1.26946,-80.5861,-234.779)">
                <path d="M1493.8,464.58C1498.42,464.58 1502.39,460.997 1502.39,456.379C1502.39,456.379 1502.39,442.821 1502.39,442.821C1502.39,438.204 1498.42,434.621 1493.8,434.621C1492.41,434.621 1491.29,435.571 1491.29,436.741C1491.29,437.911 1492.41,438.861 1493.8,438.861C1495.9,438.861 1497.37,440.723 1497.37,442.821L1497.37,456.379C1497.37,458.478 1495.9,460.34 1493.8,460.34C1492.41,460.34 1491.29,461.29 1491.29,462.46C1491.29,463.63 1492.41,464.58 1493.8,464.58Z" style="fill:rgb(239,123,88);"/>
            </g>
            <g transform="matrix(1.10048,0.0571737,-0.0689371,1.32691,-110.117,-262.68)">
                <path d="M1493.8,434.712C1489.23,434.712 1485.27,438.251 1485.27,442.821L1485.27,456.379C1485.27,460.95 1489.23,464.488 1493.8,464.488C1495.15,464.488 1496.25,463.58 1496.25,462.46C1496.25,461.34 1495.15,460.432 1493.8,460.432C1491.65,460.432 1490.16,458.525 1490.16,456.379C1490.16,456.379 1490.16,442.821 1490.16,442.821C1490.16,440.676 1491.65,438.769 1493.8,438.769C1495.15,438.769 1496.25,437.86 1496.25,436.741C1496.25,435.621 1495.15,434.712 1493.8,434.712Z" style="fill:rgb(239,123,88);"/>
            </g>
            <g transform="matrix(1.10048,0.0571737,-0.0689371,1.32691,-110.117,-262.68)">
                <path d="M1493.8,464.488C1498.37,464.488 1502.33,460.95 1502.33,456.379L1502.33,442.821C1502.33,438.251 1498.37,434.712 1493.8,434.712C1492.45,434.712 1491.35,435.621 1491.35,436.741C1491.35,437.86 1492.45,438.769 1493.8,438.769C1495.94,438.769 1497.43,440.676 1497.43,442.821L1497.43,456.379C1497.43,458.525 1495.94,460.432 1493.8,460.432C1492.45,460.432 1491.35,461.34 1491.35,462.46C1491.35,463.58 1492.45,464.488 1493.8,464.488Z" style="fill:rgb(239,123,88);"/>
            </g>
            <g transform="matrix(1.13099,0.0587584,-0.0742677,1.42951,-139.474,-310.457)">
                <path d="M1502.26,450.982L1502.26,442.821C1502.26,438.319 1498.3,434.858 1493.8,434.858C1492.49,434.858 1491.42,435.702 1491.42,436.741C1491.42,437.78 1492.49,438.623 1493.8,438.623C1496.01,438.623 1497.5,440.606 1497.5,442.821C1497.5,442.821 1497.5,450.982 1497.5,450.982C1497.5,452.021 1498.57,452.865 1499.88,452.865C1501.19,452.865 1502.26,452.021 1502.26,450.982Z" style="fill:rgb(239,123,88);"/>
            </g>
            <g transform="matrix(1.13099,0.0587584,-0.0742677,1.42951,-139.474,-310.457)">
                <path d="M1493.8,434.858C1489.3,434.858 1485.34,438.319 1485.34,442.821L1485.34,453.765C1485.34,454.804 1486.4,455.648 1487.72,455.648C1489.03,455.648 1490.1,454.804 1490.1,453.765L1490.1,442.821C1490.1,440.606 1491.58,438.623 1493.8,438.623C1495.11,438.623 1496.18,437.78 1496.18,436.741C1496.18,435.702 1495.11,434.858 1493.8,434.858Z" style="fill:rgb(239,123,88);"/>
            </g>
        </g>
        <g transform="matrix(1.11526,0,0,1.11526,-195.353,-78.0164)">
            <g transform="matrix(1.27253,0.291558,-0.231543,1.01059,-309.443,-504.217)">
                <path d="M1696.23,656.53C1697.36,656.53 1698.39,657.228 1699.23,658.335C1700.73,660.297 1701.66,663.482 1701.66,667.051C1701.66,670.619 1700.73,673.805 1699.23,675.766C1698.39,676.873 1697.36,677.571 1696.23,677.571C1695.36,677.571 1694.65,678.463 1694.65,679.561C1694.65,680.658 1695.36,681.55 1696.23,681.55C1698.2,681.55 1700.03,680.454 1701.51,678.525C1703.49,675.932 1704.82,671.767 1704.82,667.051C1704.82,662.334 1703.49,658.169 1701.51,655.577C1700.03,653.647 1698.2,652.552 1696.23,652.552C1695.36,652.552 1694.65,653.443 1694.65,654.541C1694.65,655.639 1695.36,656.53 1696.23,656.53Z"/>
            </g>
            <g transform="matrix(1.27253,0.291558,-0.231543,1.01059,-309.443,-504.217)">
                <path d="M1696.23,677.571C1695.1,677.571 1694.08,676.873 1693.23,675.766C1691.73,673.805 1690.8,670.619 1690.8,667.051C1690.8,663.482 1691.73,660.297 1693.23,658.335C1694.08,657.228 1695.1,656.53 1696.23,656.53C1697.1,656.53 1697.81,655.639 1697.81,654.541C1697.81,653.443 1697.1,652.552 1696.23,652.552C1694.27,652.552 1692.43,653.647 1690.95,655.577C1688.97,658.169 1687.64,662.334 1687.64,667.051C1687.64,671.767 1688.97,675.932 1690.95,678.525C1692.43,680.454 1694.27,681.55 1696.23,681.55C1697.1,681.55 1697.81,680.658 1697.81,679.561C1697.81,678.463 1697.1,677.571 1696.23,677.571Z"/>
            </g>
            <g transform="matrix(1.17078,0.268247,-0.231543,1.01059,-161.7,-474.57)">
                <path d="M1696.23,656.53C1697.31,656.53 1698.28,657.218 1699.09,658.274C1700.6,660.25 1701.53,663.457 1701.53,667.051C1701.53,670.644 1700.6,673.852 1699.09,675.827C1698.28,676.884 1697.31,677.571 1696.23,677.571C1695.28,677.571 1694.52,678.463 1694.52,679.561C1694.52,680.658 1695.28,681.55 1696.23,681.55C1698.25,681.55 1700.14,680.444 1701.66,678.464C1703.63,675.885 1704.96,671.742 1704.96,667.051C1704.96,662.359 1703.63,658.216 1701.66,655.637C1700.14,653.658 1698.25,652.552 1696.23,652.552C1695.28,652.552 1694.52,653.443 1694.52,654.541C1694.52,655.639 1695.28,656.53 1696.23,656.53Z"/>
            </g>
            <g transform="matrix(1.17078,0.268247,-0.231543,1.01059,-161.7,-474.57)">
                <path d="M1696.23,677.571C1695.15,677.571 1694.19,676.884 1693.38,675.827C1691.87,673.852 1690.94,670.644 1690.94,667.051C1690.94,663.457 1691.87,660.25 1693.38,658.274C1694.19,657.218 1695.15,656.53 1696.23,656.53C1697.18,656.53 1697.95,655.639 1697.95,654.541C1697.95,653.443 1697.18,652.552 1696.23,652.552C1694.21,652.552 1692.32,653.658 1690.81,655.637C1688.84,658.216 1687.51,662.359 1687.51,667.051C1687.51,671.742 1688.84,675.885 1690.81,678.464C1692.32,680.444 1694.21,681.55 1696.23,681.55C1697.18,681.55 1697.95,680.658 1697.95,679.561C1697.95,678.463 1697.18,677.571 1696.23,677.571Z"/>
            </g>
            <path d="M1677.24,659.106L1684.3,661.75C1685.36,662.15 1686.55,661.609 1686.95,660.543C1687.35,659.477 1686.81,658.288 1685.75,657.888L1678.69,655.244C1677.62,654.844 1676.44,655.385 1676.04,656.451C1675.64,657.517 1676.18,658.706 1677.24,659.106Z"/>
        </g>
    </g>
    <g id="CHARACTER-1" serif:id="CHARACTER 1">
        <path d="M1079.61,634.506C1079.61,634.506 1030.99,596.757 976.816,610.135C953.608,615.866 929.32,630.92 907.452,662.449C901.643,670.824 877.845,718.386 894.892,765.395C906.184,796.535 935.342,827.641 999.999,846.59C1001.59,847.056 1003.26,846.144 1003.72,844.555C1004.19,842.966 1003.27,841.298 1001.69,840.832C939.657,822.653 911.366,793.224 900.532,763.35C884.391,718.838 906.882,673.799 912.382,665.869C933.184,635.877 956.178,621.411 978.254,615.96C1029.74,603.245 1075.92,639.242 1075.92,639.242C1077.23,640.258 1079.12,640.023 1080.13,638.716C1081.15,637.409 1080.91,635.523 1079.61,634.506Z" style="fill:rgb(255,118,103);"/>
        <g>
            <path d="M1045.94,772.911L1041.52,772.942C1041.52,772.942 1039.17,775.553 1038.52,776.366C1025.69,792.253 977.7,849.641 918.738,1157.96L995.183,1182.83L1073.82,913.612C1073.82,913.612 1086.44,933.843 1119.78,931.03L1213.09,873.482C1213.09,873.482 1252.54,814.119 1232.5,776.396C1232.5,776.396 1302.48,707.654 1340.84,669.971C1356.45,654.647 1364.98,633.528 1364.4,611.667C1363.17,565.511 1361.15,489.095 1361.15,489.095L1276.55,489.755L1276.23,603.655L1164.54,699.303C1164.54,699.303 1174.07,773.922 1045.94,772.911Z" style="fill:rgb(255,212,123);"/>
            <path d="M1074.04,914.878C1074.04,914.878 1076.48,900.009 1078.34,888.702C1078.64,886.885 1080.1,885.483 1081.93,885.262C1083.76,885.042 1085.51,886.056 1086.23,887.75C1092.15,900.318 1100.49,919.915 1099.97,930.262C1099.97,930.262 1083.65,926.562 1074.04,914.878Z"/>
            <path d="M1232.54,776.366C1232.54,776.366 1226.36,767.333 1220.94,759.402C1219.79,757.729 1219.9,755.498 1221.2,753.944C1222.51,752.39 1224.68,751.891 1226.53,752.725C1232.76,755.44 1240.05,759.084 1245.89,763.449L1232.54,776.366Z"/>
        </g>
        <g>
            <g>
                <path d="M835.103,1254.31L818.065,1335.62L671.938,1294.98L715.579,1112.03L858.623,1142.06L841.145,1225.47L988.37,1258.67L981.889,1287.41L835.103,1254.31Z" style="fill:rgb(98,141,223);"/>
                <g transform="matrix(0.822964,0.0230276,-0.0230276,0.822964,152.047,196.51)">
                    <g transform="matrix(1,0,0,1,-5.53877,-6.5581)">
                        <path d="M780.762,1226.12C780.762,1239.21 770.134,1249.84 757.043,1249.84C743.952,1249.84 733.324,1239.21 733.324,1226.12C733.324,1221.21 729.341,1217.23 724.436,1217.23C719.531,1217.23 715.548,1221.21 715.548,1226.12C715.548,1249.02 734.142,1267.61 757.043,1267.61C779.945,1267.61 798.538,1249.02 798.538,1226.12C798.538,1221.21 794.555,1217.23 789.65,1217.23C784.745,1217.23 780.762,1221.21 780.762,1226.12Z" style="fill:rgb(168,193,242);"/>
                    </g>
                    <g transform="matrix(1,0,0,1,-5.53877,-6.5581)">
                        <path d="M733.324,1226.12C733.324,1213.03 743.952,1202.4 757.043,1202.4C770.134,1202.4 780.762,1213.03 780.762,1226.12C780.762,1231.02 784.745,1235.01 789.65,1235.01C794.555,1235.01 798.538,1231.02 798.538,1226.12C798.538,1203.21 779.945,1184.62 757.043,1184.62C734.142,1184.62 715.548,1203.21 715.548,1226.12C715.548,1231.02 719.531,1235.01 724.436,1235.01C729.341,1235.01 733.324,1231.02 733.324,1226.12Z" style="fill:rgb(168,193,242);"/>
                    </g>
                    <path d="M784.767,1236.83L833.139,1247.4C837.931,1248.44 842.671,1245.4 843.718,1240.61C844.765,1235.82 841.724,1231.08 836.932,1230.03L788.56,1219.47C783.768,1218.42 779.028,1221.46 777.981,1226.25C776.934,1231.05 779.975,1235.79 784.767,1236.83Z" style="fill:rgb(168,193,242);"/>
                    <path d="M814.092,1252.89L821.692,1219.97C822.795,1215.19 819.811,1210.41 815.031,1209.31C810.252,1208.2 805.476,1211.19 804.372,1215.97L796.772,1248.89C795.669,1253.67 798.654,1258.45 803.433,1259.55C808.213,1260.65 812.989,1257.67 814.092,1252.89Z" style="fill:rgb(168,193,242);"/>
                </g>
            </g>
            <path d="M921.183,1157.63L919.014,1157.63C919.014,1157.63 894.219,1252.62 900.828,1264.15C898.595,1269.03 920.201,1283.83 922.926,1283.19C928.518,1281.89 924.156,1252.28 919.014,1252.49C919.014,1252.49 942.521,1250.95 941.282,1248.35L972.899,1255.27C972.899,1255.27 992.067,1182.85 991.284,1181.46" style="fill:white;"/>
            <g transform="matrix(0.592595,0.805501,-0.897838,0.660526,1573.55,-373.849)">
                <path d="M930.572,1359.6C931.961,1362.23 934.205,1364.85 938.838,1364.85C943.626,1364.85 947.514,1361.36 947.514,1357.07C947.514,1355.86 946.421,1354.88 945.075,1354.88C943.729,1354.88 942.636,1355.86 942.636,1357.07C942.636,1358.95 940.934,1360.48 938.838,1360.48C936.584,1360.48 935.656,1359 934.98,1357.72C934.403,1356.63 932.947,1356.17 931.731,1356.68C930.515,1357.2 929.995,1358.51 930.572,1359.6Z"/>
            </g>
            <g transform="matrix(0.592595,0.805501,-0.897838,0.660526,1573.55,-373.849)">
                <path d="M946.912,1342.59C946.912,1338.36 943.72,1334.47 939.015,1334.17C933.975,1333.84 931.755,1336.16 931.079,1338.31C930.712,1339.47 931.467,1340.68 932.762,1341.01C934.057,1341.34 935.406,1340.66 935.773,1339.5C936,1338.78 936.968,1338.42 938.661,1338.53C940.825,1338.67 942.034,1340.64 942.034,1342.59C942.034,1343.8 943.127,1344.78 944.473,1344.78C945.819,1344.78 946.912,1343.8 946.912,1342.59Z"/>
            </g>
            <g transform="matrix(0.592595,0.805501,-0.897838,0.660526,1587.89,-367.547)">
                <path d="M931.314,1360.94C932.811,1363.28 935.622,1364.85 938.838,1364.85C940.184,1364.85 941.277,1363.87 941.277,1362.66C941.277,1361.45 940.184,1360.48 938.838,1360.48C937.429,1360.48 936.198,1359.78 935.542,1358.76C934.871,1357.71 933.378,1357.35 932.211,1357.95C931.045,1358.56 930.642,1359.9 931.314,1360.94Z"/>
            </g>
            <g transform="matrix(0.592595,0.805501,-0.897838,0.660526,1587.89,-367.547)">
                <path d="M938.838,1364.85C943.626,1364.85 947.514,1361.36 947.514,1357.07C947.514,1357.07 947.514,1341.94 947.514,1341.94C947.514,1337.65 943.626,1334.16 938.838,1334.16C937.492,1334.16 936.399,1335.14 936.399,1336.35C936.399,1337.56 937.492,1338.54 938.838,1338.54C940.934,1338.54 942.636,1340.06 942.636,1341.94C942.636,1341.94 942.636,1357.07 942.636,1357.07C942.636,1358.95 940.934,1360.48 938.838,1360.48C937.492,1360.48 936.399,1361.45 936.399,1362.66C936.399,1363.87 937.492,1364.85 938.838,1364.85Z"/>
            </g>
            <g transform="matrix(0.592595,0.805501,-0.897838,0.660526,1587.89,-367.547)">
                <path d="M938.838,1334.16C934.049,1334.16 930.162,1337.65 930.162,1341.94L930.162,1348.83C930.162,1350.04 931.255,1351.02 932.601,1351.02C933.947,1351.02 935.04,1350.04 935.04,1348.83L935.04,1341.94C935.04,1340.06 936.742,1338.54 938.838,1338.54C940.184,1338.54 941.277,1337.56 941.277,1336.35C941.277,1335.14 940.184,1334.16 938.838,1334.16Z"/>
            </g>
            <g transform="matrix(0.592595,0.805501,-0.897838,0.660526,1602.23,-361.244)">
                <path d="M938.838,1334.16C934.049,1334.16 930.162,1337.65 930.162,1341.94L930.162,1357.07C930.162,1361.36 934.049,1364.85 938.838,1364.85C940.184,1364.85 941.277,1363.87 941.277,1362.66C941.277,1361.45 940.184,1360.48 938.838,1360.48C936.742,1360.48 935.04,1358.95 935.04,1357.07L935.04,1341.94C935.04,1340.06 936.742,1338.54 938.838,1338.54C940.184,1338.54 941.277,1337.56 941.277,1336.35C941.277,1335.14 940.184,1334.16 938.838,1334.16Z"/>
            </g>
            <g transform="matrix(0.592595,0.805501,-0.897838,0.660526,1602.23,-361.244)">
                <path d="M938.838,1364.85C943.626,1364.85 947.514,1361.36 947.514,1357.07C947.514,1357.07 947.514,1341.94 947.514,1341.94C947.514,1337.65 943.626,1334.16 938.838,1334.16C937.492,1334.16 936.399,1335.14 936.399,1336.35C936.399,1337.56 937.492,1338.54 938.838,1338.54C940.934,1338.54 942.636,1340.06 942.636,1341.94L942.636,1357.07C942.636,1358.95 940.934,1360.48 938.838,1360.48C937.492,1360.48 936.399,1361.45 936.399,1362.66C936.399,1363.87 937.492,1364.85 938.838,1364.85Z"/>
            </g>
            <g transform="matrix(0.511994,0.695942,-0.874546,0.64339,1661.24,-230.7)">
                <path d="M934.895,1347.59L935.421,1357.61C935.486,1358.84 934.276,1359.89 932.719,1359.94C931.162,1360 929.845,1359.03 929.78,1357.79L929.25,1347.71L929.248,1347.62C929.248,1345.63 930.415,1342.26 932.842,1339.78C934.653,1337.93 937.12,1336.58 940.151,1336.35C941.702,1336.23 943.082,1337.14 943.231,1338.37C943.38,1339.61 942.242,1340.7 940.691,1340.82C938.814,1340.97 937.512,1342.13 936.579,1343.38C935.492,1344.84 934.904,1346.51 934.895,1347.59Z"/>
            </g>
            <g transform="matrix(0.511994,0.695942,-0.874546,0.64339,1661.24,-230.7)">
                <path d="M942.211,1340.78C941.806,1340.78 941.207,1340.78 940.691,1340.82C939.14,1340.94 937.76,1340.04 937.611,1338.8C937.462,1337.57 938.6,1336.47 940.151,1336.35C943.51,1336.09 945.458,1336.6 946.573,1337.64C947.337,1338.35 947.898,1339.47 947.898,1341.31L947.898,1357.7C947.898,1361.68 943.838,1364.91 938.838,1364.91C933.838,1364.91 929.778,1361.68 929.778,1357.7C929.778,1356.46 931.043,1355.45 932.601,1355.45C934.159,1355.45 935.424,1356.46 935.424,1357.7C935.424,1359.2 936.954,1360.42 938.838,1360.42C940.722,1360.42 942.252,1359.2 942.252,1357.7L942.252,1341.31C942.252,1341.14 942.233,1340.94 942.211,1340.78Z"/>
            </g>
            <path d="M925.369,1273.89C925.293,1273.05 924.405,1265.41 916.333,1251.97C915.64,1250.82 916.014,1249.32 917.168,1248.63C918.322,1247.93 919.822,1248.31 920.515,1249.46C929.938,1265.14 930.247,1273.74 930.247,1273.74L930.249,1273.93C930.024,1280.73 927.32,1283.43 924.974,1284.6C922.841,1285.65 920.347,1285.65 918.215,1284.62C911.577,1281.43 906.657,1277.28 903.041,1273.33C897.178,1266.82 894.85,1257.87 896.803,1249.34C902.653,1223.76 918.946,1156.88 918.946,1156.88L922.812,1158.15C922.812,1158.15 907.408,1224.85 901.558,1250.42C899.96,1257.41 901.865,1264.74 906.652,1270.05C909.902,1273.6 914.34,1277.35 920.333,1280.23C921.122,1280.61 922.043,1280.61 922.812,1280.23C924.159,1279.56 925.22,1277.78 925.369,1273.89Z"/>
            <path d="M941.102,1244.15C939.525,1242.72 938.331,1241.25 937.523,1239.8C935.84,1236.78 935.672,1233.76 936.918,1231.05C938.348,1227.94 940.431,1226.38 942.516,1225.79C945.073,1225.07 947.775,1225.8 949.807,1227.46C951.795,1229.08 953.102,1231.56 953.038,1234.22C952.947,1237.96 951.423,1241.15 949.035,1243.83C950.308,1244.55 951.719,1245.23 953.264,1245.88C954.506,1246.4 955.092,1247.83 954.573,1249.07C954.053,1250.31 952.623,1250.9 951.381,1250.38C949.065,1249.41 947.012,1248.35 945.224,1247.23C943.875,1248.2 942.41,1249.08 940.877,1249.87C931.814,1254.51 920.594,1255.94 920.594,1255.94C919.259,1256.11 918.037,1255.16 917.867,1253.83C917.697,1252.49 918.643,1251.27 919.978,1251.1C919.978,1251.1 930.311,1249.8 938.654,1245.52C939.493,1245.1 940.315,1244.64 941.102,1244.15ZM944.997,1241.1C946.864,1239.18 948.093,1236.88 948.161,1234.1C948.189,1232.97 947.573,1231.93 946.722,1231.24C945.914,1230.58 944.861,1230.19 943.844,1230.48C942.866,1230.76 942.022,1231.63 941.35,1233.09C940.537,1234.86 941.148,1236.83 942.707,1238.79C943.329,1239.57 944.094,1240.34 944.997,1241.1Z"/>
            <path d="M990.84,1181.28L966.892,1279.64C966.564,1280.95 967.357,1282.27 968.662,1282.6C969.967,1282.93 971.294,1282.14 971.623,1280.83L995.183,1182.83L990.84,1181.28Z"/>
        </g>
        <g>
            <g transform="matrix(0.864632,0.0195409,-0.0211597,0.936258,191.4,4.29742)">
                <path d="M1347.06,402.213C1346.87,401.423 1347.09,400.563 1347.72,399.922C1348.63,399.011 1349.64,398.936 1350.58,399.2C1350.98,399.314 1351.98,399.61 1352.42,400.889C1352.48,401.043 1352.63,402.09 1352.74,403.875C1353.57,417.886 1356.2,489.44 1356.2,489.44L1350.66,489.614C1350.66,489.614 1348.02,418.147 1347.2,404.153C1347.14,403.245 1347.08,402.462 1347.06,402.213ZM1348.49,403.926C1348.99,404.177 1349.5,404.247 1349.99,404.207C1349.48,404.245 1348.95,404.152 1348.49,403.926ZM1350.07,404.2L1350.04,404.203L1350.05,404.202L1350.07,404.2ZM1350.4,404.149L1350.35,404.158L1350.38,404.154L1350.4,404.149ZM1350.49,404.126C1350.94,404.022 1351.4,403.806 1351.81,403.385C1351.44,403.757 1350.99,404.005 1350.49,404.126Z"/>
            </g>
            <path d="M1277.02,489.52L1281.82,489.465C1281.82,489.465 1280.2,448.825 1280.18,432.862C1280.17,427.904 1283.67,423.633 1288.53,422.661C1292.78,421.824 1297.58,421.191 1300.99,421.893C1302.4,422.183 1303.58,422.6 1303.87,423.779C1304.14,424.896 1303.85,426.092 1302.6,427.445C1300.78,429.425 1297.35,431.517 1291.5,433.87C1290.27,434.364 1289.67,435.763 1290.17,436.992C1290.66,438.221 1292.06,438.818 1293.29,438.323C1300.1,435.585 1304.01,433.004 1306.13,430.699C1308.84,427.766 1309.12,425.066 1308.53,422.643C1307.82,419.718 1305.45,417.911 1301.96,417.192C1298.03,416.383 1292.49,416.987 1287.6,417.953C1280.48,419.375 1275.37,425.62 1275.38,432.868C1275.4,448.831 1277.02,489.496 1277.02,489.496L1277.02,489.52Z"/>
            <path d="M1320.76,450.907C1319.56,449.36 1318.19,447.908 1316.75,446.559C1309.17,439.464 1299.46,435.2 1299.46,435.2C1298.24,434.668 1297.69,433.251 1298.22,432.038C1298.76,430.825 1300.17,430.273 1301.39,430.805C1301.39,430.805 1311.86,435.405 1320.03,443.055C1321.97,444.876 1323.77,446.869 1325.3,449.01C1327.79,448.215 1330.38,447.651 1332.57,446.734C1333.79,446.222 1335.2,446.797 1335.71,448.019C1336.22,449.24 1335.65,450.648 1334.43,451.161C1332.43,451.999 1330.11,452.56 1327.81,453.25C1329.29,456.338 1330.1,459.66 1329.91,463.159C1329.72,466.721 1328.16,468.993 1326.2,470.25C1323.19,472.19 1319,471.718 1316.26,469.209C1313.5,466.675 1311.96,461.954 1315.7,455.687C1316.98,453.543 1318.74,452.034 1320.76,450.907ZM1323.34,454.954C1321.94,455.695 1320.7,456.681 1319.82,458.149C1317.74,461.635 1317.97,464.262 1319.51,465.672C1320.64,466.709 1322.36,467.016 1323.61,466.214C1324.5,465.642 1325.03,464.524 1325.12,462.904C1325.27,460.08 1324.57,457.423 1323.34,454.954Z"/>
            <g transform="matrix(1.12189,0,0,1.43652,-196.771,-169.43)">
                <path d="M1325.3,422.91C1326.87,424.381 1328.53,425.942 1332.06,425.576C1336.6,425.107 1339.46,422.235 1339.46,417.337C1339.46,416.415 1338.5,415.666 1337.32,415.666C1336.14,415.666 1335.18,416.415 1335.18,417.337C1335.18,420.113 1334.07,421.998 1331.5,422.264C1329.88,422.432 1329.31,421.449 1328.59,420.772C1327.83,420.063 1326.48,419.967 1325.57,420.557C1324.67,421.146 1324.54,422.201 1325.3,422.91Z"/>
            </g>
            <g transform="matrix(1.12189,0,0,1.43652,-196.771,-169.43)">
                <path d="M1326.48,402.846L1326.82,410.293C1326.86,411.214 1325.93,411.989 1324.76,412.021C1323.58,412.054 1322.58,411.332 1322.54,410.41L1322.2,402.929L1322.2,402.87C1322.2,397.992 1326.27,394.252 1330.83,394.252C1335.39,394.252 1339.46,397.992 1339.46,402.857L1339.53,409.595C1339.53,410.517 1338.58,411.271 1337.4,411.278C1336.22,411.285 1335.26,410.542 1335.25,409.62C1335.25,409.62 1335.18,402.882 1335.18,402.87C1335.18,401.339 1334.63,399.947 1333.69,398.943C1332.95,398.146 1331.97,397.593 1330.83,397.593C1329.7,397.593 1328.71,398.146 1327.97,398.943C1327.04,399.941 1326.49,401.325 1326.48,402.846Z"/>
            </g>
            <g transform="matrix(1.12189,0,0,1.43652,-181.23,-169.547)">
                <path d="M1330.97,425.57C1335.58,425.57 1339.46,422.264 1339.46,417.337C1339.46,417.337 1339.46,402.87 1339.46,402.87C1339.46,397.992 1335.39,394.252 1330.83,394.252C1326.27,394.252 1322.2,397.992 1322.2,402.87C1322.2,402.847 1322.06,410.798 1322.06,410.798C1322.05,411.72 1322.99,412.479 1324.17,412.492C1325.35,412.505 1326.32,411.766 1326.34,410.844L1326.48,402.893C1326.48,402.885 1326.48,402.877 1326.48,402.87C1326.48,401.339 1327.03,399.947 1327.97,398.943C1328.71,398.146 1329.7,397.593 1330.83,397.593C1331.97,397.593 1332.95,398.146 1333.69,398.943C1334.63,399.947 1335.18,401.339 1335.18,402.87L1335.18,417.337C1335.18,420.084 1333.54,422.229 1330.97,422.229C1329.79,422.229 1328.83,422.977 1328.83,423.899C1328.83,424.821 1329.79,425.57 1330.97,425.57Z"/>
            </g>
            <g transform="matrix(1.12189,0,0,1.43652,-165.689,-169.664)">
                <path d="M1339.46,402.87C1339.46,397.992 1335.39,394.252 1330.83,394.252C1326.27,394.252 1322.2,397.992 1322.2,402.87L1322.2,417.337C1322.2,422.215 1326.27,425.955 1330.83,425.955C1335.39,425.955 1339.46,422.215 1339.46,417.337C1339.46,417.337 1339.46,402.87 1339.46,402.87ZM1335.18,402.87L1335.18,417.337C1335.18,418.867 1334.63,420.26 1333.69,421.264C1332.95,422.06 1331.97,422.613 1330.83,422.613C1329.7,422.613 1328.71,422.06 1327.97,421.264C1327.03,420.26 1326.48,418.867 1326.48,417.337C1326.48,417.337 1326.48,402.87 1326.48,402.87C1326.48,401.339 1327.03,399.947 1327.97,398.943C1328.71,398.146 1329.7,397.593 1330.83,397.593C1331.97,397.593 1332.95,398.146 1333.69,398.943C1334.63,399.947 1335.18,401.339 1335.18,402.87Z"/>
            </g>
            <g transform="matrix(1.12189,0,0,1.43652,-150.148,-169.781)">
                <path d="M1339.46,402.87C1339.46,397.992 1335.39,394.252 1330.83,394.252C1326.27,394.252 1322.2,397.992 1322.2,402.87C1322.2,402.87 1322.2,417.337 1322.2,417.337C1322.2,422.215 1326.27,425.955 1330.83,425.955C1335.39,425.955 1339.46,422.215 1339.46,417.337L1339.46,402.87ZM1335.18,402.87L1335.18,417.337C1335.18,418.867 1334.63,420.26 1333.69,421.264C1332.95,422.06 1331.97,422.613 1330.83,422.613C1329.7,422.613 1328.71,422.06 1327.97,421.264C1327.03,420.26 1326.48,418.867 1326.48,417.337L1326.48,402.87C1326.48,401.339 1327.03,399.947 1327.97,398.943C1328.71,398.146 1329.7,397.593 1330.83,397.593C1331.97,397.593 1332.95,398.146 1333.69,398.943C1334.63,399.947 1335.18,401.339 1335.18,402.87Z"/>
            </g>
        </g>
        <g>
            <path d="M1041.52,772.942L1047.73,772.92C1047.73,772.92 1077.05,742.614 1098.29,730.583C1099.46,729.919 1099.87,728.43 1099.21,727.258C1098.55,726.087 1097.06,725.675 1095.88,726.339C1071.94,739.903 1058.38,754.613 1045.22,768.809C1044.35,769.755 1041.52,772.942 1041.52,772.942Z"/>
            <path d="M1079.87,674.273L1094.73,729.099C1095.09,730.398 1096.43,731.167 1097.73,730.815C1099.03,730.462 1099.79,729.122 1099.44,727.822L1084.57,672.996C1084.22,671.697 1082.88,670.929 1081.58,671.281C1080.28,671.633 1079.51,672.974 1079.87,674.273Z"/>
            <g transform="matrix(1,0,0,1,0.776233,2.47589)">
                <path d="M1164.01,696.717L1149.89,705.06C1148.73,705.74 1148.34,707.235 1149.02,708.397C1149.7,709.559 1151.19,709.95 1152.35,709.27L1164.02,702.903L1164.01,696.717Z"/>
            </g>
            <path d="M1156.35,715.94L1141.87,688.895C1141.24,687.708 1139.76,687.26 1138.57,687.895C1137.38,688.531 1136.93,690.01 1137.57,691.197L1152.05,718.242C1152.68,719.429 1154.16,719.876 1155.35,719.241C1156.54,718.606 1156.99,717.126 1156.35,715.94Z"/>
            <path d="M1107.45,695.51C1118.44,697.378 1127.82,695.551 1138.41,691.613C1147.61,688.231 1153.02,678.672 1151.17,669.034C1148.26,654.65 1143.97,640.881 1138.82,627.468C1138.34,626.211 1136.93,625.582 1135.67,626.064C1134.42,626.546 1133.79,627.958 1134.27,629.215C1139.32,642.376 1143.53,655.886 1146.38,669.977C1147.78,677.244 1143.69,684.476 1136.72,687.037C1126.98,690.66 1118.37,692.418 1108.27,690.701C1106.94,690.475 1105.68,691.37 1105.45,692.697C1105.23,694.024 1106.12,695.284 1107.45,695.51Z"/>
            <g transform="matrix(0.750969,0,0,1.05127,278.608,-32.7492)">
                <path d="M1115.77,666.778C1115.41,668.661 1116.46,671.706 1120.54,673.461C1122.84,674.452 1126.21,675.069 1131.06,674.527C1132.73,674.339 1133.87,673.219 1133.61,672.026C1133.35,670.833 1131.78,670.017 1130.11,670.204C1123.7,670.922 1121.57,668.776 1121.84,667.371C1122.07,666.175 1120.9,665.071 1119.22,664.907C1117.55,664.744 1116,665.582 1115.77,666.778Z"/>
            </g>
            <g transform="matrix(0.750969,0,0,1.05127,278.608,-32.7492)">
                <path d="M1131.06,674.527C1136.34,673.935 1138.39,670.878 1138.26,668.007C1138.18,666.048 1136.97,664.261 1135.41,663.374C1133.69,662.398 1127.89,661.069 1123.23,661.637C1119.41,662.103 1116.38,663.638 1115.77,666.778C1115.54,667.975 1116.72,669.079 1118.39,669.242C1120.07,669.406 1121.61,668.568 1121.84,667.371C1122.1,666.028 1123.97,665.877 1125.69,665.866C1128.14,665.85 1130.74,666.313 1131.6,666.8C1132.03,667.044 1132.12,667.6 1132.14,668.14C1132.18,669.013 1131.71,670.024 1130.11,670.204C1128.44,670.391 1127.29,671.512 1127.56,672.704C1127.82,673.897 1129.39,674.714 1131.06,674.527Z"/>
            </g>
            <path d="M1087.16,655.433C1087.16,655.433 1081.72,653.757 1077.18,654.748C1073.61,655.529 1070.5,657.727 1070.1,662.89C1069.88,665.834 1070.86,669.261 1073.75,671.841C1076.35,674.171 1080.62,675.879 1087.24,675.496C1088.5,675.423 1089.47,674.334 1089.4,673.067C1089.33,671.8 1088.24,670.831 1086.97,670.904C1077.6,671.446 1074.4,667.01 1074.69,663.246C1074.79,661.979 1075.16,661.054 1075.79,660.419C1076.81,659.381 1078.34,659.103 1079.82,659.036C1082.84,658.897 1085.78,659.821 1085.78,659.821C1086.99,660.202 1088.29,659.527 1088.66,658.316C1089.05,657.105 1088.37,655.813 1087.16,655.433Z"/>
        </g>
        <g>
            <path d="M1119.12,928.73L1215.33,872.32C1215.33,872.32 1420.17,853.254 1419.29,1252.13L1438.35,1710.27L1273.76,1696.6L1212.25,1198.79L1086.69,1662.27L949.27,1693.07C949.27,1693.07 988.215,1000.46 1119.12,928.73Z" style="fill:rgb(255,118,103);"/>
            <g>
                <path d="M1238.52,874.016C1252.6,876.073 1264.23,880.142 1271.83,883.633L1299.97,930.172L1300.02,930.261C1300.3,930.733 1300.52,931.24 1300.68,931.773L1300.76,932.055C1300.9,932.594 1300.97,933.143 1300.98,933.69L1300.98,933.794C1300.98,935.043 1300.65,936.217 1300.08,937.232C1299.5,938.25 1298.67,939.138 1297.6,939.784L1297.51,939.837C1297.04,940.114 1296.53,940.337 1296,940.497L1295.72,940.576C1295.18,940.714 1294.63,940.786 1294.08,940.793L1293.98,940.794L1210.55,940.794C1208.03,940.794 1205.7,939.433 1204.46,937.232C1203.22,935.032 1203.26,932.334 1204.56,930.172L1238.52,874.016ZM1281.57,926.794L1252.27,878.341L1222.97,926.794L1281.57,926.794Z" style="fill:rgb(105,186,201);"/>
                <g transform="matrix(1.23741,-0.337024,0.32016,1.17549,-579.215,255.958)">
                    <path d="M1253.58,1009.07L1188.53,1009.07C1185.52,1009.07 1183.07,1011.64 1183.07,1014.82C1183.07,1017.99 1185.52,1020.56 1188.53,1020.56L1253.58,1020.56C1256.59,1020.56 1259.04,1017.99 1259.04,1014.82C1259.04,1011.64 1256.59,1009.07 1253.58,1009.07Z" style="fill:rgb(105,186,201);"/>
                </g>
                <g transform="matrix(1.23741,-0.337024,0.32016,1.17549,-579.215,255.958)">
                    <path d="M1221.05,969.299L1193.2,1017.79C1191.64,1020.5 1188.28,1021.37 1185.7,1019.73C1183.13,1018.09 1182.3,1014.56 1183.86,1011.84L1216.38,955.222C1217.37,953.501 1219.14,952.45 1221.05,952.45C1222.96,952.45 1224.73,953.501 1225.72,955.222L1258.25,1011.84C1259.81,1014.56 1258.98,1018.09 1256.4,1019.73C1253.82,1021.37 1250.46,1020.5 1248.91,1017.79L1221.05,969.299Z" style="fill:rgb(105,186,201);"/>
                </g>
                <g transform="matrix(1.10535,-0.650357,0.617814,1.05004,-815.355,722.939)">
                    <path d="M1253.58,1009.07L1188.53,1009.07C1185.52,1009.07 1183.07,1011.64 1183.07,1014.82C1183.07,1017.99 1185.52,1020.56 1188.53,1020.56L1253.58,1020.56C1256.59,1020.56 1259.04,1017.99 1259.04,1014.82C1259.04,1011.64 1256.59,1009.07 1253.58,1009.07Z" style="fill:rgb(105,186,201);"/>
                </g>
                <g transform="matrix(1.10535,-0.650357,0.617814,1.05004,-815.355,722.939)">
                    <path d="M1223.08,965.005L1193.2,1017.79C1191.64,1020.5 1188.28,1021.37 1185.7,1019.73C1183.13,1018.09 1182.3,1014.56 1183.86,1011.84L1216.65,953.836C1217.48,952.396 1220.08,951.066 1221.66,950.795C1223.24,950.523 1225.29,950.843 1227.43,952.492C1230.76,955.059 1232.49,959.425 1232.49,959.425C1233.03,959.912 1234.09,962.484 1234.42,963.154L1258.43,1012.18C1259.81,1015 1258.76,1018.47 1256.08,1019.92C1253.4,1021.38 1250.11,1020.27 1248.73,1017.45L1225.21,969.433L1223.08,965.005Z" style="fill:rgb(105,186,201);"/>
                </g>
                <path d="M1196.27,883.719L1179.68,920.992L1179.64,921.087C1179.41,921.584 1179.12,922.056 1178.78,922.493L1178.59,922.718C1178.23,923.14 1177.82,923.512 1177.37,923.831L1177.29,923.891C1176.26,924.605 1175.11,925.006 1173.95,925.115C1172.79,925.227 1171.58,925.05 1170.44,924.542L1170.35,924.499C1169.85,924.27 1169.38,923.982 1168.94,923.636L1168.72,923.45C1168.3,923.086 1167.92,922.676 1167.6,922.232L1167.54,922.147L1156.77,906.68L1168.92,899.62L1171.94,903.96L1175.6,895.736L1196.27,883.719Z" style="fill:rgb(105,186,201);"/>
                <path d="M1033.81,1091.04L1089.56,1142.85L1089.64,1142.92C1090.03,1143.29 1090.38,1143.72 1090.69,1144.19L1090.84,1144.44C1091.12,1144.92 1091.34,1145.43 1091.5,1145.95L1091.53,1146.05C1091.87,1147.25 1091.88,1148.47 1091.6,1149.61C1091.33,1150.74 1090.77,1151.82 1089.92,1152.74L1089.85,1152.81C1089.47,1153.21 1089.05,1153.56 1088.58,1153.86L1088.33,1154.02C1087.85,1154.3 1087.34,1154.52 1086.82,1154.67L1086.72,1154.7L1013.17,1175.71C1014.2,1171.09 1015.43,1165.79 1016.76,1160.12L1070.94,1144.65L1029.62,1106.19C1031.17,1100.02 1032.79,1094.98 1033.81,1091.04Z" style="fill:rgb(105,186,201);"/>
                <g transform="matrix(-1.1208,-0.623357,0.592165,-1.06471,1940.91,2919.31)">
                    <path d="M1216.38,961.168L1248.91,1017.79C1250.46,1020.5 1253.82,1021.37 1256.4,1019.73C1258.98,1018.09 1259.81,1014.56 1258.25,1011.84L1225.72,955.222C1224.16,952.509 1220.81,951.638 1218.23,953.279C1215.65,954.919 1214.82,958.455 1216.38,961.168Z" style="fill:rgb(105,186,201);"/>
                </g>
                <g transform="matrix(-1.1208,-0.623357,0.592165,-1.06471,1940.91,2919.31)">
                    <path d="M1253.58,1009.07L1188.53,1009.07C1185.52,1009.07 1183.07,1011.64 1183.07,1014.82C1183.07,1017.99 1185.52,1020.56 1188.53,1020.56L1253.58,1020.56C1256.59,1020.56 1259.04,1017.99 1259.04,1014.82C1259.04,1011.64 1256.59,1009.07 1253.58,1009.07Z" style="fill:rgb(105,186,201);"/>
                </g>
                <g transform="matrix(-1.1208,-0.623357,0.592165,-1.06471,1940.91,2919.31)">
                    <path d="M1193.2,1017.79L1225.72,961.168C1227.28,958.455 1226.45,954.919 1223.88,953.279C1221.3,951.638 1217.94,952.509 1216.38,955.222L1183.86,1011.84C1182.3,1014.56 1183.13,1018.09 1185.7,1019.73C1188.28,1021.37 1191.64,1020.5 1193.2,1017.79Z" style="fill:rgb(105,186,201);"/>
                </g>
                <path d="M1382.56,1010.87C1372.04,1020.95 1359.65,1033.03 1347.56,1044.78C1347.16,1045.18 1346.7,1045.54 1346.2,1045.83L1346.1,1045.89C1345.54,1046.21 1344.94,1046.44 1344.33,1046.59C1343.14,1046.89 1341.95,1046.86 1340.84,1046.56C1339.73,1046.27 1338.68,1045.69 1337.8,1044.85C1337.34,1044.41 1336.94,1043.91 1336.61,1043.35L1336.56,1043.26C1336.27,1042.75 1336.05,1042.22 1335.9,1041.67L1313.83,964.19L1313.8,964.09C1313.66,963.562 1313.58,963.014 1313.56,962.457L1313.56,962.165C1313.57,961.608 1313.64,961.059 1313.78,960.53L1313.81,960.43C1314.14,959.224 1314.76,958.179 1315.58,957.35C1316.4,956.519 1317.44,955.882 1318.64,955.54L1318.74,955.512C1319.27,955.37 1319.82,955.288 1320.38,955.273L1320.57,955.271L1320.67,955.272C1321.23,955.28 1321.77,955.356 1322.3,955.492L1322.4,955.519L1361.1,966.262C1363.85,970.859 1367.31,976.809 1370.3,983.099L1330.69,972.293L1346.17,1026.61C1357,1016.08 1367.67,1005.71 1376.69,997.126C1379.12,1001.94 1381.11,1007.04 1382.56,1010.87Z" style="fill:rgb(105,186,201);"/>
                <g transform="matrix(-1.12084,-0.623269,0.592082,-1.06476,2087.48,2938.42)">
                    <path d="M1198.21,1009.07L1253.58,1009.07C1256.59,1009.07 1259.04,1011.64 1259.04,1014.82C1259.04,1017.99 1256.59,1020.56 1253.58,1020.56L1188.53,1020.56C1186.56,1020.56 1184.74,1019.44 1183.77,1017.64C1182.81,1015.83 1182.84,1013.62 1183.86,1011.84L1216.38,955.222C1217.94,952.509 1221.3,951.638 1223.88,953.279C1226.45,954.919 1227.28,958.455 1225.72,961.168L1198.21,1009.07Z" style="fill:rgb(105,186,201);"/>
                </g>
                <g transform="matrix(-1.12084,-0.623269,0.592082,-1.06476,2087.48,2938.42)">
                    <path d="M1216.38,961.168L1248.91,1017.79C1250.46,1020.5 1253.82,1021.37 1256.4,1019.73C1258.98,1018.09 1259.81,1014.56 1258.25,1011.84L1225.72,955.222C1224.16,952.509 1220.81,951.638 1218.23,953.279C1215.65,954.919 1214.82,958.455 1216.38,961.168Z" style="fill:rgb(105,186,201);"/>
                </g>
                <path d="M1215.41,1225.5L1224.53,1181.59L1224.66,1181.07L1224.83,1180.56L1225,1180.16L1225.24,1179.67L1225.55,1179.16L1225.85,1178.73L1226.16,1178.35C1226.2,1178.32 1226.23,1178.28 1226.26,1178.25C1227.09,1177.35 1228.11,1176.72 1229.19,1176.37L1229.33,1176.32C1230.42,1175.99 1231.61,1175.91 1232.81,1176.16L1233.33,1176.29L1233.84,1176.45L1234.25,1176.62L1234.73,1176.86L1235.25,1177.17L1235.67,1177.47L1236.05,1177.79C1236.08,1177.82 1236.12,1177.85 1236.15,1177.88L1297.27,1234.67L1297.65,1235.04L1298,1235.45L1298.26,1235.8L1298.55,1236.26L1298.83,1236.79L1299.04,1237.27L1299.2,1237.74C1299.21,1237.78 1299.22,1237.83 1299.24,1237.87C1299.57,1239.05 1299.59,1240.24 1299.33,1241.36L1299.3,1241.5C1299.02,1242.61 1298.47,1243.66 1297.63,1244.56L1297.26,1244.93L1296.85,1245.28L1296.5,1245.55L1296.04,1245.84L1295.51,1246.12L1295.03,1246.32L1294.57,1246.49C1294.52,1246.5 1294.48,1246.51 1294.43,1246.53L1220.75,1267.58L1215.41,1225.5ZM1224.2,1252.03L1278.65,1236.47L1235.72,1196.59L1224.2,1252.03Z" style="fill:rgb(105,186,201);"/>
                <path d="M1418.39,1205.17L1371.58,1247.44C1369.75,1249.07 1367.2,1249.62 1364.86,1248.9C1362.51,1248.17 1360.72,1246.28 1360.13,1243.9L1340.68,1165.67L1340.65,1165.57C1340.53,1165.04 1340.47,1164.49 1340.47,1163.93L1340.48,1163.64C1340.51,1163.08 1340.6,1162.54 1340.76,1162.01L1340.79,1161.91C1341.15,1160.72 1341.81,1159.69 1342.66,1158.89C1343.51,1158.09 1344.57,1157.49 1345.78,1157.19L1345.88,1157.16C1346.42,1157.04 1346.97,1156.98 1347.52,1156.98L1347.82,1156.99C1348.37,1157.02 1348.92,1157.11 1349.44,1157.26L1349.54,1157.29L1416.84,1177.79L1418.39,1205.17ZM1370.92,1229.29L1413.24,1191.66L1357.26,1174.34L1370.92,1229.29Z" style="fill:rgb(105,186,201);"/>
                <path d="M1399.33,1062.59C1400.36,1066.65 1401.43,1071.36 1402.48,1076.28L1392.56,1079.44L1405.38,1090.64C1407.08,1099.51 1408.53,1107.73 1409.4,1112.76L1374,1081.81L1373.92,1081.74C1373.52,1081.38 1373.15,1080.96 1372.83,1080.5L1372.67,1080.26C1372.38,1079.78 1372.14,1079.28 1371.97,1078.76L1371.94,1078.66C1371.56,1077.47 1371.52,1076.26 1371.75,1075.12C1371.99,1073.97 1372.52,1072.87 1373.34,1071.93L1373.41,1071.86C1373.77,1071.45 1374.19,1071.08 1374.65,1070.77L1374.89,1070.61C1375.36,1070.31 1375.87,1070.08 1376.38,1069.9L1376.48,1069.87L1399.33,1062.59Z" style="fill:rgb(105,186,201);"/>
                <path d="M1228.93,1333.74L1241.52,1317.29L1241.59,1317.21C1241.93,1316.78 1242.32,1316.39 1242.76,1316.04L1242.99,1315.87C1243.44,1315.54 1243.93,1315.28 1244.43,1315.07L1244.49,1315.05L1244.53,1315.03C1245.69,1314.58 1246.9,1314.45 1248.06,1314.62C1249.21,1314.78 1250.35,1315.23 1251.34,1315.99L1251.42,1316.06C1251.85,1316.39 1252.24,1316.78 1252.59,1317.22L1252.76,1317.46C1253.09,1317.91 1253.35,1318.39 1253.56,1318.9L1253.6,1319L1282.97,1394C1283.18,1394.51 1283.32,1395.04 1283.4,1395.59L1283.43,1395.79C1283.5,1396.41 1283.49,1397.04 1283.4,1397.64C1283.22,1398.85 1282.74,1399.94 1282.05,1400.85L1282.02,1400.88C1281.32,1401.79 1280.39,1402.54 1279.28,1403.02C1278.72,1403.27 1278.12,1403.44 1277.5,1403.54L1277.3,1403.56C1276.74,1403.63 1276.19,1403.63 1275.65,1403.56L1237.03,1399.3L1235.27,1385.02L1265.74,1388.38L1245.09,1335.66L1231.38,1353.56L1228.93,1333.74Z" style="fill:rgb(105,186,201);"/>
                <g transform="matrix(0.68513,1.08414,-1.02989,0.650848,1540.85,-539.827)">
                    <path d="M1243.9,1009.07L1216.38,961.168C1214.82,958.455 1215.65,954.919 1218.23,953.279C1220.81,951.638 1224.16,952.509 1225.72,955.222L1258.25,1011.84C1259.27,1013.62 1259.3,1015.83 1258.33,1017.64C1257.36,1019.44 1255.55,1020.56 1253.58,1020.56L1188.53,1020.56C1185.52,1020.56 1183.07,1017.99 1183.07,1014.82C1183.07,1011.64 1185.52,1009.07 1188.53,1009.07L1243.9,1009.07Z" style="fill:rgb(105,186,201);"/>
                </g>
                <g transform="matrix(0.68513,1.08414,-1.02989,0.650848,1540.85,-539.827)">
                    <path d="M1193.2,1017.79L1225.72,961.168C1227.28,958.455 1226.45,954.919 1223.88,953.279C1221.3,951.638 1217.94,952.509 1216.38,955.222L1183.86,1011.84C1182.3,1014.56 1183.13,1018.09 1185.7,1019.73C1188.28,1021.37 1191.64,1020.5 1193.2,1017.79Z" style="fill:rgb(105,186,201);"/>
                </g>
                <path d="M1422.8,1336.62L1423.5,1353.42L1408.65,1364.21L1424.23,1370.77L1424.87,1386.24L1391.78,1372.3L1391.68,1372.26C1391.18,1372.04 1390.7,1371.76 1390.26,1371.42L1390.03,1371.24C1389.6,1370.89 1389.22,1370.48 1388.89,1370.05L1388.83,1369.96C1388.09,1368.95 1387.67,1367.81 1387.54,1366.65C1387.4,1365.49 1387.56,1364.28 1388.04,1363.13L1388.08,1363.04C1388.3,1362.53 1388.58,1362.06 1388.92,1361.61L1389.1,1361.38C1389.45,1360.95 1389.86,1360.57 1390.29,1360.25L1390.38,1360.18L1422.8,1336.62Z" style="fill:rgb(105,186,201);"/>
                <path d="M1432.15,1561.38L1374.54,1573.66L1374.43,1573.69C1373.9,1573.79 1373.35,1573.84 1372.79,1573.81L1372.5,1573.8C1371.94,1573.75 1371.4,1573.64 1370.88,1573.47L1370.78,1573.43C1369.6,1573.02 1368.6,1572.33 1367.83,1571.45C1367.06,1570.58 1366.49,1569.5 1366.23,1568.28L1366.21,1568.18C1366.1,1567.64 1366.06,1567.09 1366.08,1566.53L1366.1,1566.24C1366.15,1565.68 1366.26,1565.14 1366.43,1564.62L1366.46,1564.53L1392.86,1488.42C1393.03,1487.9 1393.26,1487.4 1393.56,1486.93L1393.67,1486.76C1394.02,1486.24 1394.43,1485.77 1394.9,1485.37C1395.82,1484.57 1396.89,1484.06 1398.01,1483.82L1398.05,1483.81C1399.17,1483.57 1400.36,1483.6 1401.53,1483.96C1402.11,1484.14 1402.68,1484.39 1403.21,1484.73L1403.38,1484.84C1403.85,1485.15 1404.26,1485.51 1404.63,1485.91L1430.14,1513.08L1431.04,1534.48L1402.31,1503.89L1383.76,1557.38L1431.56,1547.19L1432.15,1561.38Z" style="fill:rgb(105,186,201);"/>
                <path d="M1257.81,1567.49L1310.23,1540.89C1310.71,1540.64 1311.23,1540.44 1311.77,1540.31L1311.97,1540.27C1312.58,1540.13 1313.2,1540.08 1313.82,1540.12C1315.03,1540.18 1316.16,1540.55 1317.14,1541.15L1317.17,1541.18C1318.14,1541.78 1318.98,1542.64 1319.57,1543.7C1319.87,1544.24 1320.1,1544.82 1320.25,1545.42L1320.29,1545.62C1320.41,1546.17 1320.46,1546.72 1320.45,1547.26L1319.37,1627.81C1319.33,1630.33 1317.94,1632.64 1315.72,1633.85C1313.51,1635.07 1310.81,1634.99 1308.66,1633.65L1262.43,1604.84L1260.22,1586.96L1305.54,1615.2L1306.3,1558.59L1259.64,1582.27L1257.81,1567.49Z" style="fill:rgb(105,186,201);"/>
                <path d="M1242.97,1447.08L1305.61,1488.91C1306.06,1489.21 1306.48,1489.57 1306.87,1489.97L1307,1490.12C1307.42,1490.59 1307.77,1491.11 1308.04,1491.66C1308.58,1492.75 1308.81,1493.92 1308.76,1495.06L1308.76,1495.1C1308.7,1496.25 1308.37,1497.39 1307.73,1498.43C1307.41,1498.95 1307.02,1499.44 1306.56,1499.87L1306.41,1500.01C1306,1500.38 1305.54,1500.69 1305.06,1500.94L1253.42,1529.08L1251.52,1514.17L1288.25,1494.16L1245.31,1465.48L1242.97,1447.08Z" style="fill:rgb(105,186,201);"/>
                <path d="M1268.1,1650.78C1268.41,1650.83 1268.72,1650.89 1269.01,1650.98L1269.11,1651.01L1346.12,1674.64C1346.64,1674.8 1347.15,1675.01 1347.63,1675.29L1347.81,1675.4C1348.34,1675.73 1348.82,1676.12 1349.24,1676.57C1350.07,1677.46 1350.63,1678.52 1350.91,1679.63L1350.92,1679.66C1351.2,1680.78 1351.2,1681.97 1350.89,1683.15C1350.74,1683.74 1350.5,1684.32 1350.18,1684.86L1350.08,1685.03C1349.79,1685.51 1349.44,1685.94 1349.06,1686.32L1333.92,1701.6L1315.71,1700.08L1331.01,1684.65L1276.87,1668.04L1284.27,1697.47L1273.76,1696.6L1268.1,1650.78Z" style="fill:rgb(105,186,201);"/>
                <path d="M1435.85,1650.14L1388.68,1690.5C1388.27,1690.85 1387.82,1691.16 1387.32,1691.42L1387.14,1691.51C1386.58,1691.79 1385.99,1691.98 1385.38,1692.09C1384.19,1692.32 1383,1692.23 1381.91,1691.87L1381.87,1691.85C1380.78,1691.49 1379.77,1690.86 1378.95,1689.97C1378.53,1689.52 1378.17,1689.01 1377.88,1688.45L1377.79,1688.27C1377.55,1687.77 1377.37,1687.25 1377.25,1686.72L1359.31,1608.19L1359.28,1608.09C1359.17,1607.55 1359.12,1607 1359.13,1606.44L1359.14,1606.15C1359.18,1605.6 1359.29,1605.05 1359.45,1604.53L1359.48,1604.43C1359.88,1603.25 1360.56,1602.23 1361.42,1601.45C1362.28,1600.66 1363.35,1600.08 1364.57,1599.8L1364.67,1599.78C1365.21,1599.67 1365.76,1599.62 1366.32,1599.63L1366.61,1599.64C1367.16,1599.68 1367.71,1599.79 1368.23,1599.95L1368.33,1599.98L1434.67,1621.91L1435.85,1650.14ZM1375.72,1617.17L1388.33,1672.37L1431.36,1635.56L1375.72,1617.17Z" style="fill:rgb(105,186,201);"/>
                <g transform="matrix(-0.438251,1.20528,-1.14497,-0.416322,3017.64,251.042)">
                    <path d="M1221.05,969.299L1193.2,1017.79C1191.64,1020.5 1188.28,1021.37 1185.7,1019.73C1183.13,1018.09 1182.3,1014.56 1183.86,1011.84L1216.38,955.222C1217.37,953.501 1219.14,952.45 1221.05,952.45C1222.96,952.45 1224.73,953.501 1225.72,955.222L1258.25,1011.84C1259.81,1014.56 1258.98,1018.09 1256.4,1019.73C1253.82,1021.37 1250.46,1020.5 1248.91,1017.79L1221.05,969.299Z" style="fill:rgb(105,186,201);"/>
                </g>
                <g transform="matrix(-0.438251,1.20528,-1.14497,-0.416322,3017.64,251.042)">
                    <path d="M1253.58,1009.07L1188.53,1009.07C1185.52,1009.07 1183.07,1011.64 1183.07,1014.82C1183.07,1017.99 1185.52,1020.56 1188.53,1020.56L1253.58,1020.56C1256.59,1020.56 1259.04,1017.99 1259.04,1014.82C1259.04,1011.64 1256.59,1009.07 1253.58,1009.07Z" style="fill:rgb(105,186,201);"/>
                </g>
                <path d="M1200.93,1240.6L1140.43,1242.85C1139.89,1242.87 1139.34,1242.83 1138.79,1242.73L1138.59,1242.69C1137.98,1242.55 1137.4,1242.33 1136.85,1242.05C1135.78,1241.48 1134.9,1240.67 1134.27,1239.71L1134.25,1239.68C1133.62,1238.72 1133.23,1237.6 1133.13,1236.38C1133.09,1235.77 1133.12,1235.15 1133.24,1234.53L1133.28,1234.33C1133.4,1233.79 1133.58,1233.27 1133.82,1232.78L1168.56,1160.1L1168.61,1160.01C1168.85,1159.52 1169.15,1159.06 1169.51,1158.63L1169.7,1158.41C1170.08,1158 1170.5,1157.63 1170.95,1157.33L1171.04,1157.27C1172.08,1156.59 1173.24,1156.21 1174.41,1156.14C1175.57,1156.06 1176.77,1156.27 1177.9,1156.81L1177.99,1156.85C1178.48,1157.09 1178.95,1157.4 1179.37,1157.75L1179.59,1157.94C1180.01,1158.32 1180.37,1158.74 1180.67,1159.19L1180.73,1159.28L1210.62,1204.8L1205.73,1222.86L1175.84,1177.34L1151.42,1228.43L1204.76,1226.44L1200.93,1240.6Z" style="fill:rgb(105,186,201);"/>
                <g transform="matrix(-0.427569,-1.20911,1.14861,-0.406175,456.55,3118.97)">
                    <path d="M1216.38,961.168L1248.91,1017.79C1250.46,1020.5 1253.82,1021.37 1256.4,1019.73C1258.98,1018.09 1259.81,1014.56 1258.25,1011.84L1225.72,955.222C1224.16,952.509 1220.81,951.638 1218.23,953.279C1215.65,954.919 1214.82,958.455 1216.38,961.168Z" style="fill:rgb(105,186,201);"/>
                </g>
                <g transform="matrix(-0.427569,-1.20911,1.14861,-0.406175,456.55,3118.97)">
                    <path d="M1198.21,1009.07L1253.58,1009.07C1256.59,1009.07 1259.04,1011.64 1259.04,1014.82C1259.04,1017.99 1256.59,1020.56 1253.58,1020.56L1188.53,1020.56C1186.56,1020.56 1184.74,1019.44 1183.77,1017.64C1182.81,1015.83 1182.84,1013.62 1183.86,1011.84L1216.38,955.222C1217.94,952.509 1221.3,951.638 1223.88,953.279C1226.45,954.919 1227.28,958.455 1225.72,961.168L1198.21,1009.07Z" style="fill:rgb(105,186,201);"/>
                </g>
                <path d="M996.766,1262.89L1043.03,1323.72C1044.55,1325.74 1044.87,1328.42 1043.86,1330.74C1042.85,1333.05 1040.67,1334.64 1038.16,1334.9L984.383,1341.42L986.866,1325.67L1024.38,1322.25L993.812,1280.71L996.766,1262.89Z" style="fill:rgb(105,186,201);"/>
                <g transform="matrix(-1.04525,-0.743114,0.70593,-0.992944,1674.6,3245.22)">
                    <path d="M1225.72,955.222C1224.73,953.501 1222.96,952.45 1221.05,952.45C1219.14,952.45 1217.37,953.501 1216.38,955.222L1183.86,1011.84C1182.84,1013.62 1182.81,1015.83 1183.77,1017.64C1184.74,1019.44 1186.56,1020.56 1188.53,1020.56L1253.58,1020.56C1255.55,1020.56 1257.36,1019.44 1258.33,1017.64C1259.3,1015.83 1259.27,1013.62 1258.25,1011.84L1225.72,955.222ZM1221.05,969.299L1198.21,1009.07L1243.9,1009.07L1221.05,969.299Z" style="fill:rgb(105,186,201);"/>
                </g>
                <path d="M1138.45,1471.2L1116.35,1505.72C1116.06,1506.18 1115.71,1506.61 1115.32,1507L1115.17,1507.14C1114.71,1507.57 1114.2,1507.92 1113.65,1508.21C1112.57,1508.77 1111.41,1509.02 1110.26,1508.99L1110.22,1508.99C1109.08,1508.96 1107.93,1508.65 1106.88,1508.03C1106.35,1507.72 1105.86,1507.34 1105.42,1506.89L1105.28,1506.74C1104.9,1506.34 1104.58,1505.89 1104.31,1505.41L1064.41,1435.43C1063.16,1433.24 1063.19,1430.54 1064.49,1428.37C1065.78,1426.21 1068.15,1424.9 1070.67,1424.97L1150.42,1427.02L1138.45,1471.2ZM1110.77,1488.47L1141.3,1440.79L1082.72,1439.28L1110.77,1488.47Z" style="fill:rgb(105,186,201);"/>
                <g transform="matrix(1.28006,-0.0787385,0.0747986,1.21601,-592.497,417.707)">
                    <path d="M1216.38,961.168L1248.91,1017.79C1250.46,1020.5 1253.82,1021.37 1256.4,1019.73C1258.98,1018.09 1259.81,1014.56 1258.25,1011.84L1225.72,955.222C1224.16,952.509 1220.81,951.638 1218.23,953.279C1215.65,954.919 1214.82,958.455 1216.38,961.168Z" style="fill:rgb(105,186,201);"/>
                </g>
                <g transform="matrix(1.28006,-0.0787385,0.0747986,1.21601,-592.497,417.707)">
                    <path d="M1198.21,1009.07L1253.58,1009.07C1256.59,1009.07 1259.04,1011.64 1259.04,1014.82C1259.04,1017.99 1256.59,1020.56 1253.58,1020.56L1188.53,1020.56C1186.56,1020.56 1184.74,1019.44 1183.77,1017.64C1182.81,1015.83 1182.84,1013.62 1183.86,1011.84L1216.38,955.222C1217.94,952.509 1221.3,951.638 1223.88,953.279C1226.45,954.919 1227.28,958.455 1225.72,961.168L1198.21,1009.07Z" style="fill:rgb(105,186,201);"/>
                </g>
                <path d="M1103,1602.05L1099.13,1616.35L1055.73,1619.35L1083.4,1663.01L1068.2,1666.3L1037.77,1616.88C1037.47,1616.42 1037.24,1615.93 1037.06,1615.4L1037,1615.21C1036.82,1614.61 1036.72,1613.99 1036.7,1613.38C1036.66,1612.16 1036.94,1611 1037.46,1609.98L1037.48,1609.94C1038,1608.93 1038.79,1608.03 1039.8,1607.35C1040.31,1607.01 1040.86,1606.73 1041.46,1606.53L1041.65,1606.47C1042.18,1606.3 1042.73,1606.21 1043.27,1606.18L1103,1602.05Z" style="fill:rgb(105,186,201);"/>
                <g transform="matrix(-0.680783,-1.08687,1.03249,-0.646718,771.529,3596.04)">
                    <path d="M1253.58,1009.07L1188.53,1009.07C1185.52,1009.07 1183.07,1011.64 1183.07,1014.82C1183.07,1017.99 1185.52,1020.56 1188.53,1020.56L1253.58,1020.56C1256.59,1020.56 1259.04,1017.99 1259.04,1014.82C1259.04,1011.64 1256.59,1009.07 1253.58,1009.07Z" style="fill:rgb(105,186,201);"/>
                </g>
                <path d="M952.586,1641.87L1010.07,1640.96C1013.94,1640.9 1017.12,1643.99 1017.18,1647.85C1017.24,1651.71 1014.16,1654.9 1010.29,1654.96L951.584,1655.88C951.865,1651.69 952.199,1647.02 952.586,1641.87ZM957.937,1577.5L959.649,1574.11C961.39,1570.66 965.603,1569.27 969.052,1571.01C972.502,1572.75 973.889,1576.97 972.148,1580.41L954.721,1614.95C955.645,1603.78 956.717,1591.29 957.937,1577.5Z" style="fill:rgb(105,186,201);"/>
                <path d="M976.097,1406.58L1016.43,1395.61L1016.53,1395.58C1017.06,1395.44 1017.61,1395.37 1018.17,1395.36L1018.31,1395.36L1018.46,1395.36C1019.02,1395.38 1019.57,1395.46 1020.09,1395.6L1020.19,1395.63C1021.39,1395.97 1022.43,1396.61 1023.25,1397.44C1024.07,1398.27 1024.7,1399.32 1025.02,1400.53L1025.05,1400.62C1025.19,1401.15 1025.26,1401.7 1025.27,1402.26L1025.27,1402.55C1025.25,1403.11 1025.17,1403.66 1025.03,1404.18L1025,1404.29L1002.08,1484.5C1001.39,1486.93 999.439,1488.79 996.982,1489.38C994.526,1489.97 991.942,1489.19 990.223,1487.34L969.218,1464.73L971.376,1446.49L992.031,1468.72L1008.13,1412.37L974.323,1421.57L976.097,1406.58Z" style="fill:rgb(105,186,201);"/>
            </g>
            <path d="M1079.45,972.761L1095.85,1053L1095.87,1053.1C1095.97,1053.64 1096.01,1054.19 1095.99,1054.75L1095.96,1055.04C1095.91,1055.59 1095.8,1056.13 1095.62,1056.65L1095.59,1056.75C1095.17,1057.93 1094.46,1058.92 1093.58,1059.69C1092.7,1060.45 1091.62,1061.01 1090.39,1061.26L1090.29,1061.28C1089.76,1061.38 1089.2,1061.42 1088.65,1061.39L1088.36,1061.37C1087.8,1061.32 1087.26,1061.21 1086.74,1061.03L1086.64,1061L1047.44,1047.03C1049.07,1042.43 1050.66,1038.04 1052.22,1033.87L1079.65,1043.64L1069.25,992.797C1073.34,984.041 1076.8,977.468 1079.45,972.761Z" style="fill:rgb(105,186,201);"/>
            <path d="M1212.4,1201.54C1212.4,1201.54 1227.13,1154.45 1241.31,1109.1C1242.35,1105.79 1245.76,1103.83 1249.14,1104.61C1252.52,1105.39 1254.73,1108.64 1254.21,1112.07C1241.88,1193.51 1225.2,1303.61 1225.2,1303.61L1212.4,1201.54Z" style="fill:rgb(141,27,28);"/>
        </g>
        <g>
            <path d="M1060.41,1771.09L1082.16,1663.22L1086.89,1661.99L1065.8,1774.87C1065.51,1776.39 1064.13,1777.44 1062.59,1777.3L1050.77,1776.28C1049.31,1776.15 1048.16,1775 1048.04,1773.54L1044.86,1735.48L921.403,1774.93C920.39,1775.25 919.281,1775.02 918.488,1774.31C917.696,1773.6 917.339,1772.52 917.549,1771.48C921.331,1752.77 939.825,1742.39 945.618,1739.57L949.174,1692.96L954.903,1691.75L951.482,1741.75C951.404,1742.89 950.682,1743.89 949.623,1744.32C949.623,1744.32 931.33,1751.67 924.983,1767.49L1046.62,1728.62C1047.49,1728.34 1048.44,1728.48 1049.2,1728.98C1049.96,1729.49 1050.45,1730.32 1050.52,1731.23L1053.81,1770.52L1060.41,1771.09Z" style="fill:rgb(66,111,192);"/>
            <g transform="matrix(1,0,0,1,-1.38968,-16.0721)">
                <path d="M1314.12,1741.06L1310.09,1791.29C1310.02,1792.13 1309.59,1792.91 1308.91,1793.43C1308.24,1793.95 1307.37,1794.15 1306.53,1793.99L1288.23,1790.48C1286.97,1790.24 1286,1789.22 1285.82,1787.95L1275.01,1712.36L1281.22,1713.1L1291.47,1784.99L1304.37,1787.47L1308.47,1736.39C1308.55,1735.43 1309.09,1734.56 1309.92,1734.06C1310.75,1733.56 1311.77,1733.5 1312.66,1733.88L1460.04,1798.12C1459.4,1792.15 1456.23,1780.89 1442.13,1771.81C1441.38,1771.32 1440.88,1770.52 1440.78,1769.63L1433.81,1725.81L1439.84,1726.36L1446.58,1767.56C1469.14,1782.86 1466.05,1803.14 1466.05,1803.14C1465.92,1804.07 1465.36,1804.88 1464.55,1805.34C1463.73,1805.8 1462.74,1805.85 1461.88,1805.47L1314.12,1741.06Z" style="fill:rgb(66,111,192);"/>
            </g>
        </g>
        <g>
            <path d="M1073.31,634.926C1072.39,643.116 1073.82,649.424 1076.37,654.835C1078.68,654.238 1080.86,654.064 1082.88,654.399C1081.32,644.483 1081.8,635.771 1085.4,628.885C1080.38,629.846 1076.49,632.005 1073.31,634.926Z" style="fill:rgb(66,111,192);"/>
            <path d="M1073.51,635.024C1073.51,635.024 1054.82,600.164 1070.29,594.707C1070.29,594.707 1084.18,592.38 1079.68,625.204C1079.68,625.204 1087.52,592.446 1099.16,597.475C1101.13,598.325 1105.05,603.44 1098.74,613.559C1096.13,617.74 1092.34,623.578 1085.05,629.054L1073.51,635.024Z" style="fill:rgb(66,111,192);"/>
        </g>
        <g>
            <path d="M1117.61,621.357C1117.61,621.357 1118.52,642.041 1088.2,653.224C1086.64,653.797 1085.85,655.524 1086.42,657.077C1086.99,658.631 1088.72,659.427 1090.27,658.854C1125.54,645.845 1123.6,620.984 1123.6,620.984C1123.5,619.332 1122.08,618.073 1120.42,618.176C1118.77,618.279 1117.51,619.704 1117.61,621.357Z" style="fill:rgb(255,118,103);"/>
            <path d="M1131.87,623.769C1127.62,616.398 1118.75,612.707 1110.34,615.239C1102.12,617.731 1086.04,628.074 1086.04,628.074L1097.99,614.631C1097.99,614.631 1099.25,612.331 1108.61,609.496C1121.13,605.725 1134.41,612.383 1138.89,624.67C1139.19,625.497 1139.37,625.992 1139.37,625.992C1139.68,626.853 1139.59,627.811 1139.1,628.591C1138.62,629.372 1137.81,629.89 1136.9,629.998C1127.63,631.094 1118.64,623.434 1118.64,623.434C1117.39,622.348 1117.26,620.451 1118.35,619.202C1119.43,617.952 1121.33,617.82 1122.58,618.907C1122.58,618.907 1126.72,622.604 1131.87,623.769Z" style="fill:rgb(255,118,103);"/>
        </g>
    </g>
    <g id="CLOUDS" opacity="0.21">
        <g>
            <path d="M753.788,651.911L981.869,653.42C983.525,653.431 984.878,652.096 984.889,650.44C984.9,648.784 983.564,647.431 981.909,647.42L753.828,645.911C752.172,645.9 750.819,647.235 750.808,648.891C750.797,650.547 752.133,651.9 753.788,651.911Z" style="fill:rgb(168,193,242);"/>
            <path d="M825.701,613.531C827.106,610.094 829.915,603.352 831.154,601.264C837.39,590.752 845.734,581.4 856.664,575.654C869.71,568.795 885.769,565.641 900.285,568.904C910.578,571.218 921.177,579.851 926.477,589.861C948.216,583.691 969.431,602.151 979.364,622.608C981.426,626.853 984.468,633.222 985.767,639.398C986.741,644.03 986.71,648.563 984.991,652.246C984.291,653.746 982.505,654.396 981.004,653.696C979.504,652.996 978.854,651.209 979.554,649.709C980.767,647.11 980.583,643.901 979.895,640.633C978.702,634.96 975.861,629.128 973.967,625.228C965.398,607.582 947.468,590.824 928.841,595.503C930.382,600.479 930.513,605.557 928.777,610.22C927.213,614.422 924.136,618.334 919.058,621.514C915.026,624.04 910.135,624.164 906.976,622.044C904.695,620.513 903.067,617.851 903.262,613.785C903.545,607.892 906.753,602.555 911.067,598.7C914.287,595.822 917.553,593.624 920.828,592.03C916.226,583.782 907.504,576.677 898.969,574.758C885.815,571.802 871.277,574.75 859.456,580.965C849.513,586.192 841.987,594.763 836.314,604.325C834.805,606.868 832.222,614.53 830.544,617.744C829.612,619.529 828.45,620.399 827.844,620.62C827.369,620.792 826.524,620.97 825.444,620.543C824.254,620.071 820.353,616.991 819.886,616.713C815.722,614.238 810.876,613.143 806.062,613.026C794.833,612.755 779.38,617.919 768.65,626.901C761.795,632.639 756.848,639.958 756.576,648.54C756.523,650.195 755.137,651.496 753.482,651.444C751.827,651.391 750.526,650.005 750.579,648.35C750.905,638.072 756.589,629.173 764.799,622.3C776.666,612.365 793.786,606.728 806.207,607.028C812.043,607.169 817.903,608.555 822.952,611.556C823.168,611.684 824.507,612.657 825.701,613.531ZM923.209,597.583C920.482,598.924 917.759,600.767 915.065,603.173C911.929,605.977 909.461,609.787 909.255,614.073C909.187,615.497 909.52,616.525 910.319,617.061C911.779,618.041 914.01,617.597 915.873,616.429C919.637,614.072 921.995,611.24 923.154,608.126C924.401,604.777 924.271,601.157 923.209,597.583Z" style="fill:rgb(168,193,242);"/>
        </g>
        <g opacity="0.95">
            <path d="M1832.11,693.609C1833.02,691.638 1834,689.854 1834.88,688.404C1846.53,669.257 1867.98,652.157 1890.24,647.98C1918.59,642.659 1947.52,657.053 1962.08,681.643C1965.85,688.011 1968.66,695.267 1970.15,702.523C1970.42,703.816 1970.64,705.093 1970.81,706.377C1973.56,704.133 1976.63,702.339 1979.94,701.034C1991.68,696.404 2005.6,697.256 2016.75,703.177C2033.29,711.965 2041.25,727.569 2042.33,745.401C2042.43,747.054 2041.17,748.477 2039.52,748.577C2037.87,748.678 2036.44,747.418 2036.34,745.765C2035.39,730.051 2028.51,716.22 2013.93,708.476C2004.31,703.361 1992.28,702.617 1982.14,706.616C1979.03,707.84 1976.18,709.586 1973.69,711.806C1973.55,711.97 1970.88,715.057 1970.38,715.595C1969,717.109 1967.38,716.602 1967.29,716.578C1966.94,716.483 1965.23,715.967 1965.05,713.834C1965.01,713.302 1965.12,710.405 1965.12,710.231C1965.04,708.02 1964.72,705.902 1964.28,703.731C1962.92,697.117 1960.35,690.504 1956.92,684.7C1943.62,662.244 1917.23,649.017 1891.34,653.877C1870.68,657.756 1850.82,673.739 1840.01,691.521C1839.46,692.421 1838.87,693.469 1838.27,694.619C1845.58,696.772 1851.66,703.157 1851.7,711.12C1851.76,721.061 1840.1,723.162 1833.54,718.181C1829.54,715.143 1828.22,710.647 1828.57,705.752C1828.72,703.727 1829.17,701.631 1829.79,699.583C1825.42,699.726 1821.15,701.066 1817.12,703.124C1807.76,707.9 1799.64,716.508 1794.11,724.058C1790.66,728.768 1787.75,733.959 1785.78,739.465C1785.69,739.721 1785.17,741.559 1784.92,742.453C1785.19,742.953 1785.33,743.536 1785.27,744.146C1785.13,745.795 1783.67,747.018 1782.02,746.875C1780.38,746.732 1779.19,745.785 1778.86,743.852C1778.74,743.184 1778.77,742.227 1778.99,741.198C1779.31,739.645 1779.99,737.821 1780.13,737.443C1782.29,731.395 1785.48,725.686 1789.27,720.513C1795.29,712.29 1804.2,702.982 1814.39,697.78C1820,694.92 1825.98,693.288 1832.11,693.609ZM1782.68,740.912C1782.63,740.906 1782.59,740.901 1782.54,740.897L1782.68,740.912ZM1835.87,700.186C1835.2,702.162 1834.7,704.211 1834.56,706.185C1834.36,708.992 1834.88,711.66 1837.17,713.402C1838.83,714.661 1841.16,715.118 1843.07,714.62C1844.56,714.233 1845.71,713.105 1845.7,711.151C1845.67,705.61 1841.03,701.41 1835.87,700.186Z" style="fill:rgb(168,193,242);"/>
            <path d="M2039.36,742.583L1782.3,740.886C1780.65,740.875 1779.3,742.21 1779.28,743.866C1779.27,745.522 1780.61,746.875 1782.26,746.886L2039.32,748.583C2040.97,748.594 2042.33,747.258 2042.34,745.603C2042.35,743.947 2041.01,742.594 2039.36,742.583Z" style="fill:rgb(168,193,242);"/>
        </g>
    </g>
</svg>
