<?xml version="1.0" encoding="UTF-8" standalone="no"?>
<!DOCTYPE svg PUBLIC "-//W3C//DTD SVG 1.1//EN" "http://www.w3.org/Graphics/SVG/1.1/DTD/svg11.dtd">
<svg width="100%" height="100%" viewBox="0 0 2732 2048" version="1.1" xmlns="http://www.w3.org/2000/svg" xmlns:xlink="http://www.w3.org/1999/xlink" xml:space="preserve" xmlns:serif="http://www.serif.com/" style="fill-rule:evenodd;clip-rule:evenodd;stroke-linejoin:round;stroke-miterlimit:2;">
    <g transform="matrix(1,0,0,1,222.839,12.3293)">
        <g id="CHARACTER-2" serif:id="CHARACTER 2">
            <g>
                <g>
                    <path d="M902.209,264.092C902.209,264.092 1092.62,281.373 1129.44,297.467L1099.6,451.933L880.044,417.61L902.209,264.092Z" style="fill:rgb(56,104,190);"/>
                    <path d="M902.209,264.092L899.366,282.188L1125.21,319.344L1129.44,297.467C1129.95,295.991 1066.22,277.076 902.209,264.092Z" style="fill:rgb(254,74,61);"/>
                    <path d="M1125.21,319.344L899.591,282.225L896.631,302.727L1121.16,340.345L1125.21,319.344Z" style="fill:rgb(255,119,102);"/>
                    <path d="M896.631,302.727L892.868,328.79L1116.34,365.305L1121.16,340.345L896.631,302.727Z" style="fill:rgb(255,210,116);"/>
                    <path d="M892.868,328.79L888.321,352.501L1111.45,390.608L1116.34,365.305L892.868,328.79Z" style="fill:rgb(169,191,234);"/>
                    <path d="M888.321,352.501L885.564,379.377L1106.23,417.61L1111.45,390.608L888.321,352.501Z" style="fill:rgb(101,142,220);"/>
                </g>
                <g transform="matrix(0.643261,0.101046,-0.155181,0.987886,-6.10982,-527.084)">
                    <path d="M1563.07,642.938L1536.27,642.938C1534.32,642.938 1532.74,641.907 1532.74,640.638C1532.74,639.368 1534.32,638.338 1536.27,638.338L1566.6,638.338C1568.55,638.338 1570.13,639.367 1570.13,640.638L1570.13,954.541C1570.13,955.81 1568.55,956.841 1566.6,956.841C1564.65,956.841 1563.07,955.81 1563.07,954.541L1563.07,642.938Z"/>
                </g>
                <g transform="matrix(0.643261,0.101046,-0.155181,0.987886,-6.10982,-527.084)">
                    <path d="M1539.8,952.241L1566.6,952.241C1568.55,952.241 1570.13,953.272 1570.13,954.541C1570.13,955.81 1568.55,956.841 1566.6,956.841L1536.27,956.841C1534.32,956.841 1532.74,955.811 1532.74,954.541L1532.74,640.638C1532.74,639.368 1534.32,638.338 1536.27,638.338C1538.22,638.338 1539.8,639.368 1539.8,640.638L1539.8,952.241Z"/>
                </g>
            </g>
            <g>
                <g>
                    <path d="M1000.28,981.067C1000.28,981.067 1012.8,1035.29 923.585,1057.72L857.127,916.794C857.127,916.794 914.243,900.035 918.357,882.073L956.78,940.504L961.705,934.403L1000.28,981.067Z"/>
                    <path d="M865.19,633.928C865.19,633.928 883.41,635.108 890.543,608.054C890.543,608.054 913.831,631.088 930.525,628.63C930.525,628.63 930.867,623.318 931.281,616.881C931.664,610.935 929.664,605.081 925.722,600.613C921.78,596.144 916.222,593.429 910.274,593.068C901.718,592.547 892.242,591.97 884.786,591.517C876.224,590.996 867.814,593.961 861.472,599.738C841.538,617.896 798.509,657.091 798.509,657.091L848.251,668.449L854.487,653.904C854.487,653.904 840.672,635.731 856.151,628.465C856.151,628.465 862.207,624.955 865.19,633.928Z"/>
                    <g transform="matrix(1.01573,0,0,1.06141,-14.1513,-43.6715)">
                        <path d="M907.182,683.355C907.182,683.355 913.066,683.911 918.413,677.824L915.293,711.105L899.681,703.985L907.182,683.355Z"/>
                    </g>
                    <path d="M623.086,1098.14L623.177,1098.6C604.56,1110.06 582.516,1116.7 558.897,1116.7C492.215,1116.7 438.078,1063.79 438.078,998.62C438.078,956.025 461.205,918.667 495.851,897.894C486.562,884.557 481.244,869.071 481.244,852.558C481.244,802.638 529.843,762.109 589.705,762.109C615.271,762.109 638.784,769.502 657.327,781.859L704.737,745.537L716.137,748.325L665.014,787.492C666.688,788.84 668.31,790.232 669.879,791.668L716.595,752.222C717.741,750.524 718.842,749.158 719.879,748.204C719.879,748.204 719.735,748.756 719.485,749.782L721.006,748.498L717.896,756.747C713.107,779.018 702.934,838.278 725.889,855.11C725.889,855.11 714.167,852.432 698.158,853.554L698.155,853.769C689.719,854.549 680.057,856.181 670.511,859.384C649.592,867.183 628.168,884.216 617.046,919.902C611.977,938.365 608.066,966.942 610.782,1009.66C611.304,1015.33 611.965,1021.18 612.774,1027.25L624.526,1097.63L623.086,1098.14Z"/>
                    <g transform="matrix(1,0,0,1,-223.541,-11.153)">
                        <path d="M715.736,903.335C717.331,902.225 719.198,900.946 721.038,899.883C725.566,897.267 730.553,895.216 735.001,895.121C751.231,894.775 756.371,905.509 755.746,911.519C755.198,916.787 753.1,920.457 749.897,922.74C746.813,924.938 742.569,925.875 737.288,925.353C726.231,924.258 719.16,918.896 714.29,912.28C717.078,910.329 719.33,909.027 719.392,909.047C719.248,908.837 719.105,908.627 718.964,908.417C722.966,913.948 728.707,918.474 737.879,919.382C741.435,919.734 744.338,919.334 746.414,917.854C748.371,916.46 749.443,914.114 749.778,910.898C750.194,906.895 745.939,900.889 735.129,901.12C730.62,901.216 725.516,904.026 721.204,906.821C720.415,907.332 719.651,907.845 718.919,908.349C717.74,906.755 716.61,905.156 715.736,903.335Z" style="fill:white;"/>
                    </g>
                </g>
                <path d="M696.722,633.928L664.336,735.612L718.343,747.411C718.343,747.411 699.106,827.4 723.422,853.619L862.453,915.358C862.453,915.358 896.103,915.826 918.784,883.372L956.78,940.504L1023.73,857.556C1023.73,857.556 973.378,745.564 911.709,708.694C911.709,708.694 906.704,750.907 852.026,731.044C829.583,722.891 822.564,709.843 798.743,656.206L696.722,633.928Z" style="fill:rgb(255,210,116);"/>
                <path d="M918.784,883.372C918.784,883.372 922.519,876.813 926.21,870.331C927.123,868.727 928.99,867.923 930.783,868.361C932.576,868.799 933.862,870.373 933.933,872.217C934.516,887.363 935.348,908.964 935.348,908.964L918.784,883.372Z"/>
                <g>
                    <g>
                        <g transform="matrix(1,0,0,1,-223.541,-11.153)">
                            <path d="M1134.77,723.691C1134.77,723.691 1125.59,762.172 1076.87,742.7C1076.87,742.7 1046.85,741.54 1023.04,668.715L1072.35,679.356L1078.88,666.803C1078.88,666.803 1060.18,638.638 1084.98,640.808L1089.97,644.584C1089.97,644.584 1109.21,641.933 1113.9,619.502C1113.9,619.502 1142.64,643.44 1152.15,638.981C1152.15,638.981 1160.59,686.72 1130.71,693.472L1122.45,713.838L1134.77,723.691Z" style="fill:white;"/>
                        </g>
                        <path d="M846.995,665.797L852.165,655.314C852.727,654.176 854.107,653.707 855.246,654.269C856.384,654.83 856.852,656.211 856.291,657.349L850.314,669.466C849.842,670.423 848.773,670.93 847.733,670.689L800.843,661.371L798.728,656.255L846.995,665.797Z" style="fill:rgb(55,102,183);"/>
                        <path d="M925.812,629.311C925.812,629.311 925.322,641.954 924.819,654.96C924.47,663.961 919.69,672.206 912.052,676.981C904.414,681.755 894.908,682.44 886.664,678.81C884.682,677.937 882.794,676.877 881.06,675.592C880.04,674.836 878.598,675.051 877.842,676.071C877.087,677.091 877.301,678.532 878.321,679.288C880.329,680.777 882.514,682.008 884.81,683.02C894.448,687.264 905.561,686.463 914.49,680.881C923.419,675.3 929.008,665.661 929.415,655.138C929.919,642.132 930.408,629.489 930.408,629.489C930.457,628.221 929.467,627.151 928.199,627.102C926.931,627.053 925.861,628.043 925.812,629.311Z" style="fill:rgb(55,102,183);"/>
                        <path d="M905.319,681.491L892.886,710.837C892.391,712.006 892.937,713.357 894.106,713.852C895.275,714.347 896.626,713.8 897.121,712.631L909.555,683.286C910.05,682.117 909.503,680.766 908.334,680.27C907.165,679.775 905.814,680.322 905.319,681.491Z" style="fill:rgb(55,102,183);"/>
                        <path d="M897.335,706.214C901.497,708.048 905.655,710.139 909.809,712.512C910.218,712.745 911.023,713.266 911.023,713.266C911.527,711.453 911.709,708.694 911.709,708.694C911.709,708.694 903.287,703.81 899.191,702.005C898.029,701.493 896.67,702.02 896.158,703.182C895.646,704.343 896.174,705.702 897.335,706.214Z" style="fill:rgb(55,102,183);"/>
                        <path d="M904.14,654.533C901.365,652.32 898.163,651.791 895.808,652.691C894.009,653.378 892.563,654.844 891.982,657.227C891.681,658.461 892.438,659.706 893.671,660.007C894.905,660.307 896.15,659.55 896.451,658.317C896.972,656.181 899.371,656.614 901.272,658.13C902.264,658.921 903.712,658.758 904.504,657.766C905.295,656.773 905.132,655.325 904.14,654.533Z" style="fill:rgb(55,102,183);"/>
                        <path d="M891.982,657.227C891.247,660.241 892.345,663.035 894.353,665.135C896.19,667.056 898.789,668.349 901.134,668.662C903.044,668.916 904.799,668.529 906.08,667.56C907.412,666.552 908.373,664.893 908.296,662.322C908.257,660.978 907.761,657.421 904.14,654.533C903.148,653.742 901.699,653.905 900.908,654.897C900.116,655.89 900.279,657.338 901.272,658.13C903.307,659.753 903.676,661.703 903.698,662.458C903.718,663.13 903.653,663.628 903.305,663.891C902.906,664.193 902.336,664.181 901.741,664.102C900.331,663.914 898.782,663.111 897.678,661.956C896.744,660.979 896.109,659.719 896.451,658.317C896.751,657.084 895.994,655.838 894.761,655.538C893.528,655.237 892.282,655.994 891.982,657.227Z" style="fill:rgb(55,102,183);"/>
                        <path d="M859.45,654.55C859.45,654.55 855.283,651.146 852.613,646.412C850.204,642.139 849.051,636.652 854.459,631.846C855.177,631.206 856.067,630.799 857.018,630.674C857.996,630.539 859.246,630.574 860.308,631.453C861.641,632.557 862.577,634.726 862.898,638.548C863.004,639.813 864.117,640.754 865.382,640.647C866.647,640.541 867.588,639.428 867.482,638.163C867.01,632.548 865.2,629.532 863.241,627.91C861.01,626.063 858.422,625.836 856.403,626.115C854.554,626.357 852.805,627.158 851.401,628.41C843.869,635.103 845.249,642.718 848.607,648.672C851.704,654.165 856.54,658.113 856.54,658.113C857.523,658.916 858.974,658.77 859.777,657.786C860.579,656.803 860.433,655.353 859.45,654.55Z" style="fill:rgb(55,102,183);"/>
                    </g>
                    <g>
                        <path d="M828.008,426.323C828.008,426.323 860.876,403.955 861.945,400.737C861.945,400.737 869.519,420.994 851.312,437.658C851.312,437.658 856.116,465.431 844.232,482.403L836.548,536.407L649.84,633.305L694.617,639.205L664.508,736.158C664.508,736.158 607.57,723.354 558.03,712.213C518.275,703.273 493.235,663.867 502.027,624.078C502.028,624.078 502.028,624.077 502.028,624.076C507.242,600.481 522.703,580.438 544.202,569.404C594.631,543.524 683.463,497.935 683.463,497.935L788.659,447.667" style="fill:white;"/>
                        <path d="M667.147,629.444L696.398,634.723L694.669,640.886L657.522,633.661C656.269,633.413 655.31,632.4 655.132,631.135C654.954,629.871 655.596,628.632 656.732,628.049L851.544,527.982C853.017,527.226 854.827,527.807 855.583,529.28C856.34,530.753 855.758,532.563 854.285,533.319L667.147,629.444Z" style="fill:rgb(55,104,190);"/>
                        <path d="M790.243,451.127L547.566,568.721C513.701,585.131 495.774,622.858 504.44,659.478C504.44,659.479 504.44,659.479 504.44,659.48C510.255,684.053 529.648,703.113 554.317,708.503C614.818,721.722 718.913,744.463 718.913,744.463L717.786,750.493C717.786,750.493 613.537,727.584 553.037,714.365C526.112,708.482 504.948,687.68 498.601,660.862C498.601,660.861 498.601,660.86 498.601,660.86C489.287,621.503 508.554,580.958 544.95,563.321C633.26,520.529 787.683,445.701 787.683,445.701L787.804,445.645C823.536,430.261 859.974,398.476 859.974,398.476C860.607,397.924 861.443,397.663 862.278,397.756C863.113,397.849 863.871,398.288 864.367,398.967C869.248,405.644 868.501,413.766 865.561,421.122C861.521,431.229 853.459,439.738 853.459,439.738C852.32,440.939 850.419,440.99 849.218,439.85C848.017,438.71 847.967,436.81 849.106,435.609C849.106,435.609 856.36,427.973 859.989,418.895C861.754,414.479 862.724,409.679 861.092,405.388C851.758,413.161 820.75,437.977 790.243,451.127Z" style="fill:rgb(55,104,190);"/>
                        <path d="M882.474,451.092C882.474,451.092 857.178,460.815 864.024,471.313L869.721,475.292C869.721,475.292 851.731,488.176 865.954,497.461C865.954,497.461 845.781,508.05 860.994,518.911C852.906,520.702 849.721,540.741 861.89,536.925C865.021,535.943 883.447,522.56 883.447,522.56C883.447,522.56 884.189,515.783 877.74,513.148C877.74,513.148 895.361,495.372 882.839,493.447L881.806,488.546C881.806,488.546 901.981,474.526 883.501,470.946C883.501,470.946 917.999,447.61 883.507,439.129L878.217,439.47L876.886,454.38" style="fill:white;"/>
                        <g transform="matrix(0.460476,0.781881,-0.861671,0.507467,888.86,-456.107)">
                            <path d="M885.42,468.215C878.774,468.215 873.379,473.111 873.379,479.142C873.379,479.142 873.379,498.108 873.379,498.108C873.379,504.139 878.774,509.035 885.42,509.035C887.245,509.035 888.726,507.69 888.726,506.035C888.726,504.379 887.245,503.035 885.42,503.035C882.424,503.035 879.991,500.827 879.991,498.108C879.991,498.108 879.991,479.142 879.991,479.142C879.991,476.423 882.424,474.215 885.42,474.215C887.245,474.215 888.726,472.871 888.726,471.215C888.726,469.56 887.245,468.215 885.42,468.215Z" style="fill:rgb(55,104,190);"/>
                        </g>
                        <g transform="matrix(0.460476,0.781881,-0.861671,0.507467,888.86,-456.107)">
                            <path d="M885.42,509.035C892.066,509.035 897.462,504.139 897.462,498.108L897.462,479.142C897.462,473.111 892.066,468.215 885.42,468.215C883.595,468.215 882.114,469.56 882.114,471.215C882.114,472.871 883.595,474.215 885.42,474.215C888.417,474.215 890.849,476.423 890.849,479.142L890.849,498.108C890.849,500.827 888.417,503.035 885.42,503.035C883.595,503.035 882.114,504.379 882.114,506.035C882.114,507.69 883.595,509.035 885.42,509.035Z" style="fill:rgb(55,104,190);"/>
                        </g>
                        <g transform="matrix(0.471666,0.800881,-0.899871,0.529964,901.767,-505.983)">
                            <path d="M873.519,480.976L873.457,498.26C873.457,504.137 878.818,508.907 885.42,508.907C892.023,508.907 897.383,504.137 897.383,498.26L897.383,478.99C897.383,476.046 895.254,464.773 883.57,463.789C874.767,463.048 869.589,467.231 864.279,474.249C863.284,475.565 863.676,477.351 865.154,478.237C866.631,479.122 868.639,478.773 869.634,477.458C873.406,472.473 876.71,468.982 882.962,469.509C886.321,469.792 888.245,471.612 889.355,473.54C890.606,475.711 890.928,478.037 890.928,478.99L890.928,498.26C890.928,500.966 888.46,503.162 885.42,503.162C882.38,503.162 879.912,500.966 879.912,498.26C879.912,498.269 879.975,480.995 879.975,480.995C879.98,479.409 878.539,478.118 876.757,478.113C874.976,478.108 873.525,479.391 873.519,480.976Z" style="fill:rgb(55,104,190);"/>
                        </g>
                        <g transform="matrix(0.411813,0.735578,-0.873005,0.488751,932.31,-384.717)">
                            <path d="M885.42,468.217C878.635,468.217 873.126,472.859 873.126,478.576L873.126,498.674C873.126,504.392 878.635,509.033 885.42,509.033C887.384,509.033 888.979,507.69 888.979,506.035C888.979,504.38 887.384,503.036 885.42,503.036C882.563,503.036 880.243,501.082 880.243,498.674C880.243,498.674 880.243,478.576 880.243,478.576C880.243,476.168 882.563,474.214 885.42,474.214C887.384,474.214 888.979,472.87 888.979,471.215C888.979,469.561 887.384,468.217 885.42,468.217Z" style="fill:rgb(55,104,190);"/>
                        </g>
                        <g transform="matrix(0.411813,0.735578,-0.873005,0.488751,932.31,-384.717)">
                            <path d="M885.42,509.033C892.205,509.033 897.714,504.392 897.714,498.674L897.714,478.576C897.714,472.859 892.205,468.217 885.42,468.217C883.456,468.217 881.861,469.561 881.861,471.215C881.861,472.87 883.456,474.214 885.42,474.214C888.277,474.214 890.597,476.168 890.597,478.576L890.597,498.674C890.597,501.082 888.277,503.036 885.42,503.036C883.456,503.036 881.861,504.38 881.861,506.035C881.861,507.69 883.456,509.033 885.42,509.033Z" style="fill:rgb(55,104,190);"/>
                        </g>
                        <g transform="matrix(0.353768,0.631899,-0.825773,0.462309,958.357,-259.657)">
                            <path d="M885.42,468.045C878.313,468.045 872.542,472.461 872.542,477.9C872.542,477.9 872.542,499.35 872.542,499.35C872.542,504.789 878.313,509.205 885.42,509.205C887.706,509.205 889.563,507.784 889.563,506.035C889.563,504.285 887.706,502.865 885.42,502.865C882.885,502.865 880.827,501.29 880.827,499.35C880.827,499.35 880.827,477.9 880.827,477.9C880.827,475.96 882.885,474.385 885.42,474.385C887.706,474.385 889.563,472.965 889.563,471.215C889.563,469.466 887.706,468.045 885.42,468.045Z" style="fill:rgb(55,104,190);"/>
                        </g>
                        <g transform="matrix(0.353768,0.631899,-0.825773,0.462309,958.357,-259.657)">
                            <path d="M885.42,509.205C892.528,509.205 898.298,504.789 898.298,499.35C898.298,499.35 898.298,477.9 898.298,477.9C898.298,472.461 892.528,468.045 885.42,468.045C883.134,468.045 881.278,469.466 881.278,471.215C881.278,472.965 883.134,474.385 885.42,474.385C887.955,474.385 890.013,475.96 890.013,477.9C890.013,477.9 890.013,499.35 890.013,499.35C890.013,501.29 887.955,502.865 885.42,502.865C883.134,502.865 881.278,504.285 881.278,506.035C881.278,507.784 883.134,509.205 885.42,509.205Z" style="fill:rgb(55,104,190);"/>
                        </g>
                        <path d="M832.771,500.375C833.431,499.451 833.95,498.658 834.289,498.091C837.862,492.12 842.403,483.113 845.744,473.469C849.868,461.566 852.336,448.67 848.221,439.644C847.534,438.138 848.199,436.357 849.706,435.67C851.212,434.983 852.993,435.648 853.68,437.155C858.333,447.36 856.076,461.975 851.414,475.433C847.921,485.514 843.173,494.93 839.438,501.172C839.035,501.845 838.412,502.784 837.618,503.876C840.478,506.763 842.563,510.622 843.837,514.723C844.329,516.304 843.444,517.986 841.863,518.478C840.281,518.969 838.599,518.084 838.107,516.503C837.202,513.588 835.801,510.735 833.85,508.582C830.882,511.956 827.207,515.392 823.712,516.924C819.876,518.606 816.208,518.374 813.256,515.228C811.674,513.542 811.066,511.805 811.03,510.155C810.995,508.529 811.543,506.932 812.569,505.469C814.927,502.107 820.124,499.496 823.406,499.029C826.939,498.528 830.066,499.078 832.771,500.375ZM828.839,505.281C827.459,504.861 825.932,504.731 824.25,504.97C822.509,505.217 819.924,506.422 818.238,508.047C817.604,508.659 817.013,509.28 817.029,510.026C817.037,510.398 817.274,510.741 817.631,511.122C819.232,512.828 821.311,511.669 823.403,510.227C825.306,508.915 827.18,507.12 828.839,505.281Z" style="fill:rgb(55,104,190);"/>
                        <path d="M660.346,625.809C660.346,625.809 645.785,633.314 631.313,640.773C629.215,641.854 628.226,644.309 628.987,646.543C629.748,648.777 632.031,650.116 634.353,649.691C658.669,645.24 688.17,639.839 688.17,639.839L660.346,625.809Z" style="fill:rgb(55,104,190);"/>
                    </g>
                    <g>
                        <path d="M649.457,1212.13C619.4,1096.09 611.187,1027.31 611.187,1027.31C585.112,825.269 723.422,853.619 723.422,853.619L864.91,914.726C945.359,1033.42 997.219,1185.33 1026.16,1289.44C1033.95,1317.98 1027.89,1348.53 1009.78,1371.94C991.664,1395.34 963.611,1408.88 934.021,1408.49C934.021,1408.49 934.021,1408.49 934.021,1408.49L1006.77,1685.09L834.33,1713.83C780.964,1601.84 739.926,1498.19 708.499,1407.12L530.691,1388.63L545.595,1208.99L649.456,1212.13L649.457,1212.13Z" style="fill:rgb(101,142,220);"/>
                        <path d="M805.233,998.545L934.021,1408.49C940.632,1408.28 954.921,1407.81 965.725,1403.29C965.725,1403.29 853.026,1133.22 814.028,996.036C812.644,991.182 810.771,988.66 807.464,989.209C804.18,989.754 803.848,993.691 805.233,998.545Z" style="fill:rgb(55,104,190);"/>
                        <g transform="matrix(1,0,0,1,0,13.1917)">
                            <path d="M621.308,1198.09L675.522,1390.5L709.517,1396.88L649.456,1198.94L621.308,1198.09Z" style="fill:rgb(55,104,190);"/>
                        </g>
                    </g>
                    <g>
                        <path d="M659.652,1030.85C659.652,1036.06 655.919,1040.53 651.01,1040.53C646.101,1040.53 642.368,1036.06 642.368,1030.85C642.368,1026.43 638.783,1022.85 634.368,1022.85C629.952,1022.85 626.368,1026.43 626.368,1030.85C626.368,1045.15 637.546,1056.53 651.01,1056.53C664.473,1056.53 675.652,1045.15 675.652,1030.85C675.652,1026.43 672.068,1022.85 667.652,1022.85C663.237,1022.85 659.652,1026.43 659.652,1030.85Z" style="fill:rgb(169,191,234);"/>
                        <path d="M642.368,1030.85C642.368,1025.63 646.101,1021.17 651.01,1021.17C655.919,1021.17 659.652,1025.63 659.652,1030.85C659.652,1035.26 663.237,1038.85 667.652,1038.85C672.068,1038.85 675.652,1035.26 675.652,1030.85C675.652,1016.54 664.473,1005.17 651.01,1005.17C637.546,1005.17 626.368,1016.54 626.368,1030.85C626.368,1035.26 629.952,1038.85 634.368,1038.85C638.783,1038.85 642.368,1035.26 642.368,1030.85Z" style="fill:rgb(169,191,234);"/>
                        <path d="M749.551,864.904L763.907,871.104C763.815,871.57 763.68,872.033 763.501,872.49C761.592,877.344 763.432,882.866 768.001,884.663C772.569,886.459 777.678,883.67 779.586,878.816C779.693,878.545 779.812,878.283 779.945,878.031L794.592,884.357C794.556,884.462 794.518,884.567 794.477,884.671C789.242,897.983 774.675,904.48 762.145,899.553C749.616,894.626 743.376,879.947 748.611,866.635C748.857,866.008 749.175,865.429 749.551,864.904Z" style="fill:rgb(169,191,234);"/>
                        <g transform="matrix(1,0,0,1,-48.205,312.893)">
                            <path d="M659.652,1030.85C659.652,1036.06 655.919,1040.53 651.01,1040.53C646.101,1040.53 642.368,1036.06 642.368,1030.85C642.368,1026.43 638.783,1022.85 634.368,1022.85C629.952,1022.85 626.368,1026.43 626.368,1030.85C626.368,1045.15 637.546,1056.53 651.01,1056.53C664.473,1056.53 675.652,1045.15 675.652,1030.85C675.652,1026.43 672.068,1022.85 667.652,1022.85C663.237,1022.85 659.652,1026.43 659.652,1030.85Z" style="fill:rgb(169,191,234);"/>
                        </g>
                        <g transform="matrix(1,0,0,1,-48.205,312.893)">
                            <path d="M642.368,1030.85C642.368,1025.63 646.101,1021.17 651.01,1021.17C655.919,1021.17 659.652,1025.63 659.652,1030.85C659.652,1035.26 663.237,1038.85 667.652,1038.85C672.068,1038.85 675.652,1035.26 675.652,1030.85C675.652,1016.54 664.473,1005.17 651.01,1005.17C637.546,1005.17 626.368,1016.54 626.368,1030.85C626.368,1035.26 629.952,1038.85 634.368,1038.85C638.783,1038.85 642.368,1035.26 642.368,1030.85Z" style="fill:rgb(169,191,234);"/>
                        </g>
                        <path d="M840.378,1110.41L845.365,1126.29C844.89,1126.2 844.4,1126.15 843.898,1126.15C838.989,1126.15 835.255,1130.62 835.255,1135.83C835.255,1141.05 838.989,1145.52 843.898,1145.52C846.525,1145.52 848.816,1144.24 850.378,1142.25L855.482,1158.49C852.015,1160.42 848.066,1161.52 843.898,1161.52C830.434,1161.52 819.255,1150.14 819.255,1135.83C819.255,1122.8 828.541,1112.19 840.378,1110.41Z" style="fill:rgb(169,191,234);"/>
                        <g transform="matrix(1,0,0,1,114.546,241.009)">
                            <path d="M659.652,1030.85C659.652,1036.06 655.919,1040.53 651.01,1040.53C646.101,1040.53 642.368,1036.06 642.368,1030.85C642.368,1026.43 638.783,1022.85 634.368,1022.85C629.952,1022.85 626.368,1026.43 626.368,1030.85C626.368,1045.15 637.546,1056.53 651.01,1056.53C664.473,1056.53 675.652,1045.15 675.652,1030.85C675.652,1026.43 672.068,1022.85 667.652,1022.85C663.237,1022.85 659.652,1026.43 659.652,1030.85Z" style="fill:rgb(169,191,234);"/>
                        </g>
                        <g transform="matrix(1,0,0,1,114.546,241.009)">
                            <path d="M642.368,1030.85C642.368,1025.63 646.101,1021.17 651.01,1021.17C655.919,1021.17 659.652,1025.63 659.652,1030.85C659.652,1035.26 663.237,1038.85 667.652,1038.85C672.068,1038.85 675.652,1035.26 675.652,1030.85C675.652,1016.54 664.473,1005.17 651.01,1005.17C637.546,1005.17 626.368,1016.54 626.368,1030.85C626.368,1035.26 629.952,1038.85 634.368,1038.85C638.783,1038.85 642.368,1035.26 642.368,1030.85Z" style="fill:rgb(169,191,234);"/>
                        </g>
                        <g transform="matrix(1,0,0,1,114.546,463.946)">
                            <path d="M642.368,1030.85C642.368,1025.63 646.101,1021.17 651.01,1021.17C655.919,1021.17 659.652,1025.63 659.652,1030.85C659.652,1035.26 663.237,1038.85 667.652,1038.85C672.068,1038.85 675.652,1035.26 675.652,1030.85C675.652,1016.54 664.473,1005.17 651.01,1005.17C637.546,1005.17 626.368,1016.54 626.368,1030.85C626.368,1035.26 629.952,1038.85 634.368,1038.85C638.783,1038.85 642.368,1035.26 642.368,1030.85Z" style="fill:rgb(169,191,234);"/>
                        </g>
                        <g transform="matrix(1,0,0,1,114.546,463.946)">
                            <path d="M659.652,1030.85C659.652,1036.06 655.919,1040.53 651.01,1040.53C646.101,1040.53 642.368,1036.06 642.368,1030.85C642.368,1026.43 638.783,1022.85 634.368,1022.85C629.952,1022.85 626.368,1026.43 626.368,1030.85C626.368,1045.15 637.546,1056.53 651.01,1056.53C664.473,1056.53 675.652,1045.15 675.652,1030.85C675.652,1026.43 672.068,1022.85 667.652,1022.85C663.237,1022.85 659.652,1026.43 659.652,1030.85Z" style="fill:rgb(169,191,234);"/>
                        </g>
                        <g transform="matrix(1,0,0,1,314.063,613.792)">
                            <path d="M642.368,1030.85C642.368,1025.63 646.101,1021.17 651.01,1021.17C655.919,1021.17 659.652,1025.63 659.652,1030.85C659.652,1035.26 663.237,1038.85 667.652,1038.85C672.068,1038.85 675.652,1035.26 675.652,1030.85C675.652,1016.54 664.473,1005.17 651.01,1005.17C637.546,1005.17 626.368,1016.54 626.368,1030.85C626.368,1035.26 629.952,1038.85 634.368,1038.85C638.783,1038.85 642.368,1035.26 642.368,1030.85Z" style="fill:rgb(169,191,234);"/>
                        </g>
                        <g transform="matrix(1,0,0,1,314.063,613.792)">
                            <path d="M659.652,1030.85C659.652,1036.06 655.919,1040.53 651.01,1040.53C646.101,1040.53 642.368,1036.06 642.368,1030.85C642.368,1026.43 638.783,1022.85 634.368,1022.85C629.952,1022.85 626.368,1026.43 626.368,1030.85C626.368,1045.15 637.546,1056.53 651.01,1056.53C664.473,1056.53 675.652,1045.15 675.652,1030.85C675.652,1026.43 672.068,1022.85 667.652,1022.85C663.237,1022.85 659.652,1026.43 659.652,1030.85Z" style="fill:rgb(169,191,234);"/>
                        </g>
                        <g transform="matrix(1,0,0,1,347.348,312.893)">
                            <path d="M642.368,1030.85C642.368,1025.63 646.101,1021.17 651.01,1021.17C655.919,1021.17 659.652,1025.63 659.652,1030.85C659.652,1035.26 663.237,1038.85 667.652,1038.85C672.068,1038.85 675.652,1035.26 675.652,1030.85C675.652,1016.54 664.473,1005.17 651.01,1005.17C637.546,1005.17 626.368,1016.54 626.368,1030.85C626.368,1035.26 629.952,1038.85 634.368,1038.85C638.783,1038.85 642.368,1035.26 642.368,1030.85Z" style="fill:rgb(169,191,234);"/>
                        </g>
                        <g transform="matrix(1,0,0,1,347.348,312.893)">
                            <path d="M659.652,1030.85C659.652,1036.06 655.919,1040.53 651.01,1040.53C646.101,1040.53 642.368,1036.06 642.368,1030.85C642.368,1026.43 638.783,1022.85 634.368,1022.85C629.952,1022.85 626.368,1026.43 626.368,1030.85C626.368,1045.15 637.546,1056.53 651.01,1056.53C664.473,1056.53 675.652,1045.15 675.652,1030.85C675.652,1026.43 672.068,1022.85 667.652,1022.85C663.237,1022.85 659.652,1026.43 659.652,1030.85Z" style="fill:rgb(169,191,234);"/>
                        </g>
                        <path d="M967.855,1115.22L974.063,1130.89C971.932,1132.7 970.244,1134.9 970.322,1137.56C970.344,1138.29 970.471,1139.04 970.713,1139.78C971.908,1143.42 975.721,1145.48 979.582,1145.45L985.481,1161.52C972.662,1164.42 959.454,1156.79 955.51,1144.77C951.79,1133.42 957.126,1121 967.855,1115.22Z" style="fill:rgb(169,191,234);"/>
                        <path d="M799.111,1637.02C811.25,1639.71 826.233,1645.22 840.108,1656.38C853.486,1667.15 865.985,1683.19 873.682,1707.27L857.684,1709.94C851.123,1690.78 841.082,1677.7 830.078,1668.85C822.707,1662.92 814.966,1658.89 807.708,1656.16L799.111,1637.02ZM870.284,1633.11C870.284,1633.11 862.957,1604.59 878.123,1576.19C888.493,1556.76 909.39,1537.73 949.482,1527.14C953.751,1526.01 956.301,1521.63 955.174,1517.36C954.046,1513.09 949.665,1510.54 945.396,1511.67C899.395,1523.82 875.907,1546.37 864.008,1568.65C845.77,1602.81 854.8,1637.14 854.8,1637.14C855.912,1641.41 860.284,1643.98 864.557,1642.87C868.83,1641.76 871.396,1637.38 870.284,1633.11L870.284,1633.11ZM702.346,1385.99C714.343,1382.72 737.79,1378.78 763.077,1387.82C786.866,1396.32 812.609,1416.25 831.371,1459.98C833.112,1464.03 831.231,1468.74 827.173,1470.48C823.116,1472.22 818.408,1470.34 816.667,1466.29C800.315,1428.18 778.424,1410.3 757.691,1402.88C736.601,1395.35 717.05,1398.58 707.101,1401.25L702.346,1385.99ZM930.379,1396.9L935.771,1415.14C927.599,1423.2 917.252,1432.51 904.887,1440.14C901.129,1442.45 896.196,1441.28 893.879,1437.52C891.562,1433.77 892.733,1428.83 896.491,1426.52C911.091,1417.52 922.152,1406.39 930.379,1396.9ZM563.066,1287.49C563.066,1287.49 591.777,1280.95 619.755,1296.88C638.887,1307.78 657.343,1329.19 666.835,1369.55C667.846,1373.85 672.156,1376.52 676.454,1375.51C680.752,1374.5 683.421,1370.19 682.41,1365.89C671.52,1319.58 649.626,1295.48 627.673,1282.98C594.025,1263.81 559.461,1271.9 559.461,1271.9C555.159,1272.9 552.474,1277.2 553.469,1281.5C554.464,1285.8 558.764,1288.49 563.066,1287.49L563.066,1287.49ZM826.882,1224.01C826.882,1224.01 849.758,1242.55 854.499,1274.4C857.741,1296.17 852.297,1323.91 826.405,1356.3C823.648,1359.75 824.21,1364.79 827.659,1367.55C831.108,1370.3 836.146,1369.74 838.903,1366.29C868.61,1329.13 874.044,1297.03 870.324,1272.04C864.623,1233.74 836.917,1211.55 836.917,1211.55C833.479,1208.78 828.438,1209.32 825.669,1212.76C822.899,1216.2 823.443,1221.24 826.882,1224.01L826.882,1224.01ZM917.711,1284.65C924.57,1278.09 932.664,1271.57 942.189,1265.2C945.86,1262.75 950.832,1263.74 953.286,1267.41C955.74,1271.08 954.752,1276.05 951.081,1278.51C940.108,1285.84 931.252,1293.35 924.164,1300.89L917.711,1284.65ZM570.83,1209.99L592.015,1210.57C611.406,1230.48 635.624,1234.41 635.624,1234.41L635.624,1234.41C639.985,1235.1 642.962,1239.2 642.268,1243.57C641.575,1247.93 637.472,1250.9 633.111,1250.21C633.111,1250.21 598.039,1244.73 574.052,1214.33C572.955,1212.93 571.879,1211.49 570.83,1209.99ZM1010.45,1236.46C1004.51,1237.37 998.143,1237.79 991.429,1237.45C966.196,1236.21 935.78,1224.6 905.147,1188.2C902.304,1184.82 902.739,1179.77 906.118,1176.92C909.496,1174.08 914.547,1174.52 917.39,1177.9C944.088,1209.62 970.224,1220.39 992.215,1221.47C996.891,1221.7 1001.37,1221.5 1005.6,1220.99L1010.45,1236.46ZM631.163,1135.96C642.095,1136.41 656.29,1137.44 669.237,1143.32C692.239,1153.76 716.243,1175.76 731.318,1220.88C732.717,1225.07 730.453,1229.61 726.265,1231.01C722.077,1232.4 717.541,1230.14 716.142,1225.95C703.004,1186.62 682.669,1166.99 662.621,1157.88C653.39,1153.69 642.781,1152.19 634.644,1151.46L631.163,1135.96ZM813.346,1024.37L818.154,1039.67C802.257,1044.05 790.367,1051.33 781.513,1059.74C758.17,1081.91 756.137,1111.29 756.137,1111.29L756.137,1111.29C755.846,1115.7 752.033,1119.04 747.627,1118.75C743.222,1118.46 739.881,1114.64 740.172,1110.24C740.172,1110.24 742.419,1074.81 770.492,1048.14C780.827,1038.32 794.69,1029.58 813.346,1024.37ZM895.284,963.275L904.003,978.671L904.112,978.87C890.021,1001.25 886.416,1021.25 888.063,1038.01C891.21,1070.06 913.134,1089.72 913.134,1089.72L913.134,1089.72C916.43,1092.65 916.722,1097.72 913.785,1101.01C910.847,1104.31 905.786,1104.6 902.49,1101.66C902.49,1101.66 875.925,1078.12 872.139,1039.58C870.052,1018.33 874.748,992.33 895.284,963.275ZM635.312,884.114C645.736,885.906 657.523,889.551 669.121,896.519C690.775,909.53 712.103,934.128 721.911,980.685C722.821,985.005 720.053,989.252 715.732,990.162C711.412,991.072 707.165,988.304 706.255,983.983C697.706,943.407 679.754,921.574 660.88,910.234C648.342,902.7 635.544,899.802 625.31,898.882C629.052,892.179 632.579,887.368 635.312,884.114ZM865.244,915.221L868.869,920.7C864.643,926.316 859.517,931.883 853.307,936.993C833.8,953.047 803.484,964.914 756.328,958.58C751.952,957.992 748.877,953.962 749.465,949.586C750.052,945.21 754.083,942.135 758.459,942.723C799.557,948.243 826.138,938.63 843.139,924.639C848.308,920.385 852.58,915.756 856.104,911.092L865.244,915.221Z" style="fill:rgb(169,191,234);fill-opacity:0.81;"/>
                    </g>
                    <g>
                        <g transform="matrix(1,0,0,1,-223.541,-11.153)">
                            <path d="M1187.73,942.479C1187.73,942.479 1234.12,1032.12 1312.57,1000C1312.57,1000 1350.98,996.123 1366,932.555L1400.94,646.027C1400.94,646.027 1398.92,644.177 1393.12,648.642C1387.33,653.108 1393.67,645.032 1393.67,645.032L1393.12,648.642C1393.12,648.642 1402.68,601.24 1405.56,593.568L1409.89,579.278C1409.89,579.278 1406.35,565.951 1377.51,605.069L1351.71,673.424L1264.1,899.656L1246.6,872.677L1243.53,874.27L1187.73,942.479Z" style="fill:white;"/>
                        </g>
                        <path d="M1058.21,920.742C1059.08,922.098 1060.78,922.668 1062.3,922.112C1063.81,921.557 1064.74,920.025 1064.53,918.426C1061.38,894.598 1055.65,851.252 1055.65,851.252L1039.43,891.557C1039.43,891.557 1050.24,908.36 1058.21,920.742Z" style="fill:rgb(55,104,190);"/>
                        <path d="M1019.66,862.605L1051.45,909.864C1052.36,911.249 1054.22,911.636 1055.6,910.729C1056.99,909.821 1057.37,907.96 1056.47,906.575L1023.73,857.746L1019.66,862.605Z" style="fill:rgb(55,104,190);"/>
                        <path d="M1174.54,636.557C1172.84,636.879 1171.1,638.171 1169.18,640.341C1168.25,641.405 1166.69,641.665 1165.45,640.963C1164.22,640.261 1163.64,638.789 1164.08,637.437C1164.08,637.437 1174.88,603.828 1180.87,585.213C1181.11,584.452 1180.8,583.622 1180.12,583.202C1179.44,582.783 1178.56,582.881 1178.01,583.427C1164.03,597.35 1146.77,630.003 1129.36,668.831C1088.32,760.309 1046.83,885.985 1046.83,885.985C1046.31,887.558 1044.62,888.413 1043.04,887.894C1041.47,887.375 1040.62,885.677 1041.13,884.104C1041.13,884.104 1082.74,758.096 1123.88,666.375C1141.68,626.688 1159.48,593.407 1173.79,579.161C1176.33,576.666 1180.24,576.227 1183.27,578.096C1186.3,579.965 1187.67,583.66 1186.58,587.049L1172.49,630.87C1174.72,630.224 1176.87,630.363 1178.93,631.106C1180.26,631.585 1181.08,632.926 1180.89,634.326C1180.89,634.326 1155.09,827.084 1141.13,931.326C1135.93,970.165 1102.96,999.27 1063.78,999.614C1063.78,999.614 1063.78,999.614 1063.78,999.614C1031,999.903 999.842,985.395 978.963,960.125C970.54,949.93 959.805,936.757 959.805,936.757L964.188,931.326C964.188,931.326 972.785,943.227 983.589,956.304C1003.32,980.18 1032.76,993.887 1063.73,993.614C1063.73,993.614 1063.73,993.614 1063.73,993.614C1099.93,993.296 1130.38,966.409 1135.18,930.53L1174.54,636.557Z" style="fill:rgb(55,104,190);"/>
                        <path d="M1174.78,565.698C1176.92,562.328 1181.16,560.928 1184.9,562.401C1188.75,563.916 1190.91,568.012 1189.99,572.041C1188.08,580.43 1186.57,587.047 1186.57,587.047C1186.2,588.662 1184.59,589.673 1182.98,589.305C1181.36,588.937 1180.35,587.328 1180.72,585.713C1180.72,585.713 1182.23,579.096 1184.14,570.707C1184.4,569.569 1183.79,568.412 1182.7,567.984C1181.62,567.556 1180.38,567.986 1179.8,568.995C1179.79,568.999 1179.79,569 1179.79,569C1179.69,569.173 1179.58,569.336 1179.44,569.485C1179.44,569.485 1166.68,583.861 1159.56,591.885C1156.76,595.033 1154.67,598.742 1153.43,602.763C1149.25,616.236 1140.26,645.272 1140.26,645.272C1139.77,646.854 1138.09,647.74 1136.51,647.251C1134.93,646.761 1134.04,645.079 1134.53,643.497C1134.53,643.497 1143.52,614.461 1147.69,600.988C1149.19,596.15 1151.71,591.689 1155.07,587.902L1174.78,565.698Z" style="fill:rgb(55,104,190);"/>
                        <path d="M1149.32,678.46C1149.32,678.46 1158.88,651.8 1168.17,641.414C1169.17,640.291 1170.16,639.376 1171.13,638.782C1171.7,638.435 1172.23,638.177 1172.77,638.228C1173.5,638.297 1174.04,638.96 1174.66,639.95C1175.54,641.353 1177.39,641.777 1178.79,640.897C1180.2,640.016 1180.62,638.163 1179.74,636.761C1177.84,633.727 1175.58,632.467 1173.33,632.255C1170.38,631.974 1166.95,633.779 1163.7,637.415C1153.9,648.37 1143.68,676.42 1143.68,676.42C1143.12,677.977 1143.92,679.698 1145.48,680.261C1147.04,680.824 1148.76,680.017 1149.32,678.46Z" style="fill:rgb(55,104,190);"/>
                    </g>
                    <g>
                        <g transform="matrix(1,0,0,1,-223.541,-11.153)">
                            <path d="M768.503,1221.83L728.088,1218.92L668.641,1447.9C668.641,1447.9 693.546,1451.66 709.666,1397.32L754.736,1399.3L768.503,1221.83Z" style="fill:white;"/>
                        </g>
                        <g transform="matrix(1,0,0,1,-223.541,-11.153)">
                            <path d="M1063.89,1724.71L1073.99,1751.15L1293.9,1757.15C1293.9,1757.15 1273.96,1726.54 1235.11,1721.75L1222.32,1697.53L1063.89,1724.71Z" style="fill:white;"/>
                        </g>
                        <path d="M488.199,1385.15C478.9,1408.16 469.782,1427.76 462.296,1434.54C449.298,1446.32 440.136,1442.06 440.136,1442.06C438.735,1441.48 437.987,1439.95 438.392,1438.49L501.656,1209.97C502.015,1208.67 503.198,1207.77 504.547,1207.77L545.595,1208.99L545.097,1214.99L506.829,1213.77L445.1,1436.75C447.01,1436.64 449.863,1436.01 453.389,1433.82C461.415,1428.84 472.135,1409.54 483.399,1381C483.862,1379.82 485.01,1379.06 486.271,1379.1L531.486,1382.89L531.255,1388.95L488.199,1385.15Z" style="fill:rgb(136,201,212);"/>
                        <path d="M1063.2,1740C1058.79,1735.82 1051.68,1729.76 1043.02,1724.82C1033.39,1719.32 1021.83,1715.15 1009.95,1716.8C1008.54,1717 1007.19,1716.18 1006.71,1714.84L996.817,1686.62L1003.25,1685.37L1011.57,1710.59C1023.94,1709.58 1035.94,1713.87 1046,1719.61C1061.71,1728.58 1072.62,1741.02 1072.62,1741.02C1073.39,1741.9 1073.58,1743.16 1073.1,1744.24C1072.61,1745.31 1071.54,1746 1070.36,1746L848.407,1746C847.177,1746 846.071,1745.25 845.618,1744.1L834.33,1713.83L839.725,1712.93L850.446,1740L1063.2,1740Z" style="fill:rgb(136,201,212);"/>
                    </g>
                </g>
            </g>
        </g>
        <g id="CHARACTER-1" serif:id="CHARACTER 1">
            <g>
                <path d="M1526.88,318.051C1444.25,315.958 1373.78,317.906 1297,318.051L1303.44,481.261L1536.27,481.261L1526.88,318.051Z" style="fill:rgb(56,104,190);"/>
                <path d="M1526.88,318.051C1451.32,316.583 1374.08,317.424 1297,318.051L1297.88,340.345L1528.13,339.696L1526.88,318.051Z" style="fill:rgb(254,74,61);"/>
                <path d="M1528.13,339.696L1297.88,340.345L1298.84,364.761L1529.6,365.305L1528.13,339.696Z" style="fill:rgb(255,119,102);"/>
                <path d="M1531.06,390.608L1299.86,390.608L1298.84,364.761L1529.9,365.305L1531.06,390.608Z" style="fill:rgb(255,210,116);"/>
                <path d="M1530.96,389.647L1299.86,390.608L1300.93,417.61L1532.42,414.36L1530.96,389.647Z" style="fill:rgb(169,191,234);"/>
                <path d="M1532.42,414.36L1535.12,444.789L1302.29,451.933L1300.93,417.61L1532.42,414.36Z" style="fill:rgb(101,142,220);"/>
                <g transform="matrix(0.649751,-0.0426418,0.0654871,0.997853,486.736,-254.409)">
                    <path d="M1539.8,642.938L1539.8,954.541C1539.8,955.81 1538.22,956.841 1536.27,956.841C1534.32,956.841 1532.74,955.81 1532.74,954.541L1532.74,640.638C1532.74,639.367 1534.32,638.338 1536.27,638.338L1566.6,638.338C1568.55,638.338 1570.13,639.368 1570.13,640.638C1570.13,641.907 1568.55,642.938 1566.6,642.938L1539.8,642.938Z" style="fill:rgb(55,104,190);"/>
                </g>
                <g transform="matrix(0.649751,-0.0426418,0.0654871,0.997853,486.736,-254.409)">
                    <path d="M1563.07,952.241L1563.07,640.638C1563.07,639.368 1564.65,638.338 1566.6,638.338C1568.55,638.338 1570.13,639.368 1570.13,640.638L1570.13,954.541C1570.13,955.811 1568.55,956.841 1566.6,956.841L1536.27,956.841C1534.32,956.841 1532.74,955.81 1532.74,954.541C1532.74,953.272 1534.32,952.241 1536.27,952.241L1563.07,952.241Z" style="fill:rgb(55,104,190);"/>
                </g>
            </g>
            <g>
                <path d="M1156.38,1292.91L892.013,1506.79C872.465,1493.89 851.453,1485.79 835.312,1498.6L963.704,1643.41L1244.79,1455.37L1420.37,1701.21C1391.97,1704.6 1370.9,1712.42 1367.17,1730.72L1611.76,1730.72C1537.78,1602.29 1459.92,1476.68 1378.7,1353.52L1571.89,1183.05C1674.99,1057.1 1619.91,966.028 1541.48,951.422C1573.21,925.935 1592.63,895.634 1605.55,862.785C1605.55,862.785 1778.41,862.985 1785.49,855.657C1788.57,852.469 1790.35,845.596 1794.57,846.264C1890.26,861.411 1867.99,770.471 1867.99,770.471L1668.74,576.493L1607.44,655.015L1704.21,747.411L1561.11,752.246C1535.94,755.002 1513.56,758.717 1497.42,764.588L1485.9,733.957C1485.9,733.957 1516.05,719.063 1495.13,702.891C1492.84,701.121 1488.4,708.377 1488.4,708.377L1485.6,693.431C1482.6,669.626 1467.8,663.59 1448.62,664.153C1417.44,614.757 1383.66,566.801 1347.4,520.208C1321.99,541.584 1302.64,564.43 1285.41,587.791L1433.22,667.46C1413.7,674.133 1411.34,688.763 1413.56,705.518C1414.43,719.398 1413.54,740.354 1433.22,750.537L1433.22,775.785C1345,790.409 1302.74,827.232 1255.02,878.56C1255.02,878.56 1251.18,793.167 1246.95,733.319C1245.8,717 1243.77,692.206 1241.11,673.195C1239.45,661.403 1247.44,630.264 1242.49,621.11C1231.18,600.185 1221.16,588.04 1213.36,576.493C1203.23,561.473 1193.86,558.953 1190.2,560.569L1194.72,623.928L1182.49,617.299L1165.32,752.246C1154.11,870.19 1105.13,1110 1366,906.015C1378.42,934.205 1395.12,955.408 1421.57,960.676C1349.56,1000.03 1290.95,1062.55 1231.58,1123.76C1165.08,1203.08 1151.1,1250.64 1156.38,1292.91Z" style="fill:white;"/>
                <g>
                    <path d="M1165.32,752.246L1252.61,732.007L1256.89,874.627C1256.89,874.627 1333.24,789.109 1405.02,781.578C1406.68,781.404 1407.89,780.962 1409.59,780.918C1409.59,780.918 1480.26,826.572 1548.71,752.246L1704.21,747.411L1600.09,657.621L1666.12,574.074C1666.12,574.074 1799.34,697.14 1857.28,750.653C1873.75,765.874 1881.53,788.328 1877.99,810.479C1877.99,810.479 1877.99,810.48 1877.99,810.48C1874.11,834.775 1853.63,852.959 1829.04,853.932C1754.05,856.903 1605.55,862.785 1605.55,862.785C1605.55,862.785 1584.76,926.293 1541.48,951.422C1541.48,951.422 1542.87,951.594 1545.28,951.894C1590.26,957.478 1625.7,992.908 1631.3,1037.89C1631.3,1037.89 1631.3,1037.89 1631.3,1037.89C1636.04,1076 1625.42,1114.43 1601.8,1144.71C1586.34,1164.52 1571.89,1183.05 1571.89,1183.05C1571.89,1183.05 1556.24,1122.69 1503.26,1125.49L1231.58,1123.76C1231.58,1123.76 1349.15,989.542 1421.57,960.676C1421.57,960.676 1377.01,950.96 1366,906.015C1366,906.015 1309.25,951.111 1274.76,978.52C1258.05,991.802 1237.2,998.782 1215.86,998.238C1215.85,998.238 1215.85,998.238 1215.85,998.238C1193.94,997.68 1173.32,987.76 1159.2,970.989C1145.09,954.218 1138.84,932.204 1142.03,910.518C1152.37,840.257 1165.32,752.246 1165.32,752.246Z" style="fill:rgb(255,119,102);"/>
                    <g>
                        <path d="M1577.44,961.762C1581.7,963.555 1587.01,966.919 1592.92,971.408C1582.45,975.6 1568.63,983.656 1560.89,998.464C1555.03,1009.67 1552.9,1024.72 1557.97,1044.78C1559.05,1049.06 1556.46,1053.41 1552.18,1054.5C1547.9,1055.58 1543.54,1052.98 1542.46,1048.7C1536.14,1023.71 1539.41,1005.01 1546.71,991.054C1554.07,976.971 1566.51,967.775 1577.44,961.762Z" style="fill:rgb(252,216,200);"/>
                        <path d="M1632.13,1045.37C1609.47,1047.14 1590.33,1038.81 1590.33,1038.8C1586.28,1037.02 1584.45,1032.3 1586.23,1028.26C1588.01,1024.22 1592.73,1022.38 1596.77,1024.16C1596.77,1024.16 1611.93,1030.93 1629.91,1029.67C1630.65,1033.57 1631.89,1040.65 1632.13,1045.37ZM1590.33,1038.8C1590.33,1038.8 1590.33,1038.8 1590.33,1038.8Z" style="fill:rgb(252,216,200);"/>
                        <g transform="matrix(-0.83724,-0.546836,0.546836,-0.83724,2318.81,2817.68)">
                            <path d="M1574.14,982.36C1569.06,986.537 1564.36,991.821 1560.89,998.464C1555.03,1009.67 1552.9,1024.72 1557.97,1044.78C1559.05,1049.06 1556.46,1053.41 1552.18,1054.5C1547.9,1055.58 1543.54,1052.98 1542.46,1048.7C1536.14,1023.71 1539.41,1005.01 1546.71,991.054C1548.97,986.727 1551.64,982.853 1554.58,979.395C1562.99,981.463 1570.37,982.146 1574.14,982.36Z" style="fill:rgb(252,216,200);"/>
                        </g>
                        <g transform="matrix(0.531708,0.846928,-0.846928,0.531708,1449.24,-797.961)">
                            <path d="M1604.26,951.486C1604.26,951.486 1563.8,958.346 1546.71,991.054C1539.41,1005.01 1536.14,1023.71 1542.46,1048.7C1543.54,1052.98 1547.9,1055.58 1552.18,1054.5C1556.46,1053.41 1559.05,1049.06 1557.97,1044.78C1552.9,1024.72 1555.03,1009.67 1560.89,998.464C1574.49,972.444 1606.87,967.272 1606.87,967.272C1611.23,966.552 1614.18,962.431 1613.46,958.075C1612.74,953.719 1608.62,950.766 1604.26,951.486Z" style="fill:rgb(252,216,200);"/>
                        </g>
                        <path d="M1395.12,974.576C1412.64,982.842 1423.7,995.237 1423.7,995.237C1426.63,998.543 1426.32,1003.6 1423.01,1006.53C1419.7,1009.46 1414.64,1009.14 1411.72,1005.84C1411.72,1005.84 1398.61,990.867 1378.99,985.342C1383.47,982.284 1389.76,978.036 1395.12,974.576Z" style="fill:rgb(252,216,200);"/>
                        <g transform="matrix(-0.217383,0.976086,-0.976086,-0.217383,2760.76,-385.442)">
                            <path d="M1604.26,951.486C1608.62,950.766 1612.74,953.719 1613.46,958.075C1614.18,962.431 1611.23,966.552 1606.87,967.272C1606.87,967.272 1574.49,972.444 1560.89,998.464C1555.03,1009.67 1552.9,1024.72 1557.97,1044.78C1559.05,1049.06 1556.46,1053.41 1552.18,1054.5C1547.9,1055.58 1543.54,1052.98 1542.46,1048.7C1536.14,1023.71 1539.41,1005.01 1546.71,991.054C1563.8,958.349 1604.26,951.487 1604.26,951.486ZM1604.26,951.486C1604.26,951.486 1604.26,951.486 1604.26,951.486Z" style="fill:rgb(252,216,200);"/>
                        </g>
                        <g transform="matrix(-0.999939,-0.0110752,0.0110752,-0.999939,3097.68,1877.21)">
                            <path d="M1604.26,951.486C1608.62,950.766 1612.74,953.719 1613.46,958.075C1614.18,962.431 1611.23,966.552 1606.87,967.272C1606.87,967.272 1574.49,972.444 1560.89,998.464C1555.03,1009.67 1552.9,1024.72 1557.97,1044.78C1559.05,1049.06 1556.46,1053.41 1552.18,1054.5C1547.9,1055.58 1543.54,1052.98 1542.46,1048.7C1536.14,1023.71 1539.41,1005.01 1546.71,991.054C1563.8,958.349 1604.26,951.487 1604.26,951.486ZM1604.26,951.486C1604.26,951.486 1604.26,951.486 1604.26,951.486Z" style="fill:rgb(252,216,200);"/>
                        </g>
                        <path d="M1815.89,712.429L1827.62,723.259C1824.42,727.77 1821.73,732.971 1820.03,738.908C1816.56,751.068 1817.5,766.235 1826.52,784.86C1828.45,788.834 1826.78,793.623 1822.81,795.547C1818.83,797.471 1814.05,795.807 1812.12,791.833C1800.89,768.634 1800.32,749.66 1804.64,734.514C1807.08,725.991 1811.13,718.657 1815.89,712.429Z" style="fill:rgb(252,216,200);"/>
                        <g transform="matrix(-0.341264,0.939968,-0.939968,-0.341264,3186.41,-405.351)">
                            <path d="M1604.26,951.486C1608.62,950.766 1612.74,953.719 1613.46,958.075C1614.18,962.431 1611.23,966.552 1606.87,967.272C1606.87,967.272 1574.49,972.444 1560.89,998.464C1555.03,1009.67 1552.9,1024.72 1557.97,1044.78C1559.05,1049.06 1556.46,1053.41 1552.18,1054.5C1547.9,1055.58 1543.54,1052.98 1542.46,1048.7C1536.14,1023.71 1539.41,1005.01 1546.71,991.054C1563.8,958.349 1604.26,951.487 1604.26,951.486ZM1604.26,951.486C1604.26,951.486 1604.26,951.486 1604.26,951.486Z" style="fill:rgb(252,216,200);"/>
                        </g>
                        <path d="M1613.32,750.198C1613.73,750.434 1614.53,750.806 1614.94,751.03C1626.09,757.007 1641.11,759.302 1661.23,754.445C1665.52,753.409 1669.85,756.052 1670.88,760.344C1671.92,764.636 1669.27,768.962 1664.98,769.998C1639.93,776.048 1621.26,772.575 1607.38,765.131C1600.36,761.362 1594.65,756.248 1589.86,750.965L1613.32,750.198Z" style="fill:rgb(252,216,200);"/>
                        <path d="M1444.33,793.337C1448.62,793.943 1455.23,794.681 1462.37,794.774C1461.57,795.832 1460.81,796.934 1460.08,798.085C1453.31,808.766 1449.93,823.582 1453.31,843.997C1454.03,848.353 1451.08,852.476 1446.73,853.198C1442.37,853.919 1438.25,850.969 1437.53,846.613C1433.7,823.534 1437.32,806.277 1444.33,793.337ZM1459.75,774.539L1457.81,776.23C1458.45,775.651 1459.09,775.087 1459.75,774.539Z" style="fill:rgb(252,216,200);"/>
                        <path d="M1327.72,813.271C1335,819.939 1344.9,826.298 1357.29,828.188C1369.79,830.096 1384.71,827.239 1402.05,815.938C1405.75,813.527 1410.71,814.572 1413.12,818.271C1415.53,821.969 1414.49,826.93 1410.79,829.341C1389.19,843.417 1370.44,846.381 1354.87,844.005C1337.52,841.356 1323.98,831.807 1314.56,822.522C1317.89,820.144 1323.22,816.362 1327.72,813.271Z" style="fill:rgb(252,216,200);"/>
                        <path d="M1299.7,958.7C1295.78,950.067 1293.97,941.762 1293.61,933.964C1291.88,897.101 1323.37,870.777 1323.37,870.777C1326.77,867.96 1331.81,868.432 1334.63,871.832C1337.45,875.231 1336.98,880.279 1333.58,883.096C1333.58,883.096 1308.21,903.889 1309.59,933.215C1309.82,938.058 1310.8,943.112 1312.75,948.336L1299.7,958.7Z" style="fill:rgb(252,216,200);"/>
                        <path d="M1156.04,967.129C1168.41,952.652 1181.49,943.829 1194.11,940.671C1229.91,931.714 1261.92,957.398 1261.92,957.398C1265.35,960.176 1265.88,965.218 1263.1,968.65C1260.33,972.082 1255.29,972.613 1251.85,969.835C1251.85,969.835 1226.47,949.067 1197.99,956.192C1187.46,958.828 1177.79,966.86 1167.58,979.499C1163.2,975.519 1160.36,972.823 1156.04,967.129Z" style="fill:rgb(252,216,200);"/>
                        <path d="M1158.77,796.748C1166.85,803.702 1172.35,811.329 1176.03,819.062C1191.86,852.392 1172.99,888.832 1172.99,888.839C1170.94,892.751 1166.1,894.265 1162.19,892.218C1158.28,890.171 1156.76,885.333 1158.81,881.421C1158.81,881.421 1174.17,852.445 1161.58,825.927C1160.08,822.788 1158.19,819.699 1155.84,816.703L1158.77,796.748Z" style="fill:rgb(252,216,200);"/>
                        <path d="M1254.46,793.719C1226.63,800.391 1198.05,791.488 1198.05,791.488C1193.84,790.149 1191.51,785.646 1192.85,781.439C1194.19,777.231 1198.69,774.902 1202.9,776.241C1202.9,776.241 1229.94,785.069 1253.97,777.313L1254.46,793.719Z" style="fill:rgb(252,216,200);"/>
                        <path d="M1332.08,1124.34C1331.69,1123.82 1331.31,1123.29 1330.94,1122.76C1309.76,1092.54 1322.28,1053.46 1322.28,1053.45C1323.64,1049.26 1328.16,1046.95 1332.36,1048.32C1336.56,1049.68 1338.86,1054.2 1337.49,1058.4C1337.49,1058.4 1327.19,1089.54 1344.04,1113.58C1346.78,1117.49 1350.26,1121.19 1354.61,1124.52L1332.08,1124.34Z" style="fill:rgb(252,216,200);"/>
                        <path d="M1648.93,595.821C1652.3,602.158 1656.87,608.485 1662.7,613.923C1674.03,624.503 1690.71,632.052 1715.02,632.64C1719.43,632.747 1722.93,636.417 1722.82,640.831C1722.71,645.245 1719.04,648.742 1714.63,648.635C1685.36,647.927 1665.43,638.364 1651.78,625.62C1646.4,620.597 1641.83,615.116 1638.23,609.358L1648.93,595.821Z" style="fill:rgb(252,216,200);"/>
                        <path d="M1753.19,856.937C1767.17,836.023 1782.92,826.027 1797.91,822.019C1830.24,813.379 1860.07,833.118 1865.33,836.904C1859.94,842.842 1855.11,845.776 1852.12,847.483C1843.82,842.194 1823.7,831.687 1802.05,837.476C1792.62,839.996 1783,845.694 1773.89,856.117L1753.19,856.937Z" style="fill:rgb(252,216,200);"/>
                        <path d="M1686.16,859.592C1683.71,851.485 1679.45,842.978 1672.17,835.913C1663.1,827.107 1649.28,820.776 1628.6,819.926C1624.19,819.745 1620.76,816.016 1620.94,811.604C1621.12,807.193 1624.85,803.758 1629.26,803.94C1655.02,804.999 1672.01,813.461 1683.31,824.429C1693.92,834.717 1699.48,847.417 1702.35,858.951L1686.16,859.592Z" style="fill:rgb(252,216,200);"/>
                    </g>
                    <path d="M1256.89,874.627C1256.89,874.627 1257.84,893.895 1258.69,911.031C1258.8,913.238 1260.48,915.046 1262.67,915.317C1264.86,915.588 1266.93,914.243 1267.57,912.129C1276,884.443 1288.41,843.641 1288.41,843.641L1256.89,874.627Z" style="fill:rgb(254,74,61);"/>
                    <path d="M1704.21,747.411C1704.21,747.411 1739.75,774.141 1765.6,793.579C1766.85,794.522 1767.18,796.266 1766.35,797.602C1765.53,798.937 1763.82,799.425 1762.42,798.726C1724.22,779.743 1662.55,749.092 1662.55,749.092L1704.21,747.411Z" style="fill:rgb(254,74,61);"/>
                    <path d="M1605.55,862.785C1605.55,862.785 1606.87,855.266 1607.09,843.306C1607.17,840.897 1608.74,838.79 1611.02,838.024C1613.31,837.259 1615.83,837.997 1617.34,839.875C1622.84,846.662 1628.74,855.078 1630.44,861.601C1630.45,861.649 1630.44,861.7 1630.41,861.74C1630.38,861.779 1630.33,861.803 1630.29,861.805C1627.91,861.899 1605.55,862.785 1605.55,862.785Z" style="fill:rgb(254,74,61);"/>
                    <path d="M1366,906.015C1366,906.015 1364.62,900.27 1364.68,891.862C1364.67,890.15 1363.55,888.643 1361.91,888.147C1360.27,887.652 1358.5,888.285 1357.55,889.707C1351.85,898.215 1345.56,910.401 1346.31,921.661L1366,906.015Z" style="fill:rgb(254,74,61);"/>
                </g>
                <path d="M1561.39,478.657C1561.39,478.657 1545.96,490.458 1566.4,518.769L1561.39,478.657Z" style="fill:white;"/>
                <path d="M1537.6,516.78C1537.6,516.78 1512.02,513.877 1516.45,533.783L1523.41,542.296L1528.56,546.459C1528.56,546.459 1512.09,550.992 1523.41,563.79L1529.85,568.997C1529.85,568.997 1508.76,570.939 1528.56,587.498L1534.07,591.762C1534.07,591.762 1513.47,590.074 1523.41,603.242L1544.09,617.299L1548.49,610.93L1539.87,598.467L1550.96,593.401C1549.62,591.126 1550.85,588.136 1548.56,585.618C1545.21,581.923 1538.73,578.862 1542.01,577.423C1544.98,576.119 1549.99,571.59 1548.83,567.002C1547.5,561.741 1539.72,556.439 1539.72,556.439C1544.41,556.91 1550.4,550.707 1548.9,544.488C1547.53,538.781 1538.85,533.03 1538.85,533.03L1537.6,516.78Z" style="fill:white;"/>
                <g>
                    <g>
                        <g transform="matrix(-0.570709,0.705456,0.777447,0.628949,1659.32,-369.879)">
                            <path d="M885.42,503.035C888.417,503.035 890.849,500.827 890.849,498.108C890.849,498.108 890.849,479.142 890.849,479.142C890.849,477.486 892.331,476.142 894.156,476.142C895.98,476.142 897.462,477.486 897.462,479.142L897.462,498.108C897.462,504.139 892.066,509.035 885.42,509.035C883.595,509.035 882.114,507.69 882.114,506.035C882.114,504.379 883.595,503.035 885.42,503.035Z"/>
                        </g>
                        <g transform="matrix(-0.570709,0.705456,0.777447,0.628949,1659.32,-369.879)">
                            <path d="M890.849,479.142C890.849,476.423 888.417,474.215 885.42,474.215C882.424,474.215 879.991,476.423 879.991,479.142C879.991,479.142 879.991,498.108 879.991,498.108C879.991,500.827 882.424,503.035 885.42,503.035C887.245,503.035 888.726,504.379 888.726,506.035C888.726,507.69 887.245,509.035 885.42,509.035C878.774,509.035 873.379,504.139 873.379,498.108L873.379,479.142C873.379,473.111 878.774,468.215 885.42,468.215C892.066,468.215 897.462,473.111 897.462,479.142C897.462,480.798 895.98,482.142 894.156,482.142C892.331,482.142 890.849,480.798 890.849,479.142Z"/>
                        </g>
                        <g transform="matrix(-0.584577,0.722599,0.811913,0.656831,1653.91,-421.112)">
                            <path d="M879.975,480.995L879.912,498.269C879.912,500.966 882.38,503.162 885.42,503.162C888.46,503.162 890.928,500.966 890.928,498.26C890.928,498.26 890.928,478.99 890.928,478.99C890.928,478.037 890.606,475.711 889.355,473.54C888.245,471.612 886.321,469.792 882.962,469.509C876.71,468.982 873.406,472.473 869.634,477.458C868.639,478.773 866.631,479.122 865.154,478.237C863.676,477.351 863.284,475.565 864.279,474.249C869.589,467.231 874.767,463.048 883.57,463.789C895.254,464.773 897.383,476.046 897.383,478.99L897.383,498.26C897.383,504.137 892.023,508.907 885.42,508.907C878.818,508.907 873.457,504.137 873.457,498.26C873.457,498.251 873.519,480.976 873.519,480.976C873.525,479.391 874.976,478.108 876.757,478.113C878.539,478.118 879.98,479.409 879.975,480.995Z"/>
                        </g>
                        <g transform="matrix(-0.515751,0.666833,0.791416,0.612108,1605.82,-305.673)">
                            <path d="M885.42,503.036C888.277,503.036 890.597,501.082 890.597,498.674L890.597,478.576C890.597,476.168 888.277,474.214 885.42,474.214C883.456,474.214 881.861,472.87 881.861,471.215C881.861,469.561 883.456,468.217 885.42,468.217C892.205,468.217 897.714,472.859 897.714,478.576C897.714,478.576 897.714,498.674 897.714,498.674C897.714,504.392 892.205,509.033 885.42,509.033C883.456,509.033 881.861,507.69 881.861,506.035C881.861,504.38 883.456,503.036 885.42,503.036Z"/>
                        </g>
                        <g transform="matrix(-0.515751,0.666833,0.791416,0.612108,1605.82,-305.673)">
                            <path d="M885.42,474.214C882.563,474.214 880.243,476.168 880.243,478.576C880.243,478.576 880.243,498.674 880.243,498.674C880.243,501.082 882.563,503.036 885.42,503.036C887.384,503.036 888.979,504.38 888.979,506.035C888.979,507.69 887.384,509.033 885.42,509.033C878.635,509.033 873.126,504.392 873.126,498.674C873.126,498.674 873.126,478.576 873.126,478.576C873.126,472.859 878.635,468.217 885.42,468.217C887.384,468.217 888.979,469.561 888.979,471.215C888.979,472.87 887.384,474.214 885.42,474.214Z"/>
                        </g>
                        <g transform="matrix(-0.443056,0.572843,0.748598,0.578991,1561.62,-185.82)">
                            <path d="M885.42,502.865C887.955,502.865 890.013,501.29 890.013,499.35C890.013,499.35 890.013,477.9 890.013,477.9C890.013,475.96 887.955,474.385 885.42,474.385C883.134,474.385 881.278,472.965 881.278,471.215C881.278,469.466 883.134,468.045 885.42,468.045C892.528,468.045 898.298,472.461 898.298,477.9C898.298,477.9 898.298,499.35 898.298,499.35C898.298,504.789 892.528,509.205 885.42,509.205C883.134,509.205 881.278,507.784 881.278,506.035C881.278,504.285 883.134,502.865 885.42,502.865Z"/>
                        </g>
                        <g transform="matrix(-0.443056,0.572843,0.748598,0.578991,1561.62,-185.82)">
                            <path d="M885.42,474.385C882.885,474.385 880.827,475.96 880.827,477.9C880.827,477.9 880.827,499.35 880.827,499.35C880.827,501.29 882.885,502.865 885.42,502.865C887.706,502.865 889.563,504.285 889.563,506.035C889.563,507.784 887.706,509.205 885.42,509.205C878.313,509.205 872.542,504.789 872.542,499.35L872.542,477.9C872.542,472.461 878.313,468.045 885.42,468.045C887.706,468.045 889.563,469.466 889.563,471.215C889.563,472.965 887.706,474.385 885.42,474.385Z"/>
                        </g>
                        <g transform="matrix(-0.989074,-0.147418,-0.147418,0.989074,2471.23,212.279)">
                            <path d="M837.618,503.876C838.412,502.784 839.035,501.845 839.438,501.172C843.173,494.93 847.921,485.514 851.414,475.433C856.076,461.975 858.333,447.36 853.68,437.155C852.993,435.648 851.212,434.983 849.706,435.67C848.199,436.357 847.534,438.138 848.221,439.644C852.336,448.67 849.868,461.566 845.744,473.469C842.403,483.113 837.862,492.12 834.289,498.091C833.95,498.658 833.431,499.451 832.771,500.375C830.066,499.078 826.939,498.528 823.406,499.029C820.124,499.496 814.927,502.107 812.569,505.469C811.543,506.932 810.995,508.529 811.03,510.155C811.066,511.805 811.674,513.542 813.256,515.228C816.208,518.374 819.876,518.606 823.712,516.924C827.207,515.392 830.882,511.956 833.85,508.582C835.801,510.735 837.202,513.588 838.107,516.503C838.599,518.084 840.281,518.969 841.863,518.478C843.444,517.986 844.329,516.304 843.837,514.723C842.563,510.622 840.478,506.763 837.618,503.876ZM828.839,505.281C827.18,507.12 825.306,508.915 823.403,510.227C821.311,511.669 819.232,512.828 817.631,511.122C816.193,509.589 817.823,508.232 819.32,507.152C820.913,506.003 822.849,505.169 824.25,504.97C825.932,504.731 827.459,504.861 828.839,505.281Z"/>
                        </g>
                    </g>
                    <path d="M1566.22,517.727C1566.86,518.024 1567.39,518.546 1567.7,519.242C1568.36,520.759 1567.67,522.529 1566.15,523.192C1565.4,523.519 1564.42,523.657 1563.29,523.057C1562.65,522.721 1561.41,521.531 1560.17,519.407C1557.57,514.975 1553.73,505.684 1552.66,495.908C1551.92,489.131 1552.52,482.141 1555.56,476.27C1555.57,476.243 1555.59,476.217 1555.6,476.19C1556.48,474.609 1558.08,473.556 1559.88,473.369C1561.67,473.181 1563.45,473.883 1564.64,475.248L1564.72,475.338C1575.36,488.595 1592.15,519.265 1663.42,576.207C1663.63,576.374 1664.05,576.71 1664.05,576.71L1660.31,581.401C1660.31,581.401 1659.93,581.101 1659.74,580.95C1588.87,524.335 1571.33,493.448 1560.54,479.731C1557.36,486.524 1558.09,494.97 1559.88,502.219C1561.69,509.531 1564.61,515.68 1566.22,517.727ZM1563.92,517.626L1563.91,517.631L1563.95,517.615L1563.92,517.626ZM1564.1,517.567L1564.08,517.573L1564.11,517.564L1564.1,517.567Z"/>
                    <path d="M1546.81,609.89L1600.75,657.323L1604.82,652.204L1550.76,605.376C1549.51,604.285 1547.62,604.411 1546.52,605.656C1545.43,606.902 1545.56,608.799 1546.81,609.89Z"/>
                </g>
                <g>
                    <path d="M1165.32,752.246L1171.29,750.863L1184.63,623.241C1184.65,623.03 1184.78,622.848 1184.97,622.761C1185.17,622.674 1185.39,622.696 1185.56,622.818C1190.8,626.735 1198.77,638.284 1203.94,671.189C1204.19,672.825 1205.73,673.945 1207.37,673.688C1209,673.431 1210.12,671.895 1209.87,670.259C1204.26,634.523 1194.85,622.271 1189.1,617.972C1187.13,616.57 1184.64,616.327 1182.51,617.291C1180.37,618.256 1178.9,620.283 1178.66,622.616L1165.32,752.246Z"/>
                    <path d="M1241.01,734.696L1246.95,733.319C1246.95,733.319 1242.65,661.013 1230.5,615.188C1224.32,591.858 1215.82,571.479 1204.53,560.686C1201.45,557.739 1196.89,556.956 1193.01,558.709C1189.12,560.463 1186.69,564.401 1186.86,568.661C1187.65,588.199 1189.06,622.698 1189.06,622.698C1189.13,624.352 1190.53,625.64 1192.18,625.573C1193.84,625.505 1195.12,624.107 1195.06,622.453C1195.06,622.453 1193.65,587.956 1192.86,568.418C1192.78,566.602 1193.82,564.925 1195.47,564.178C1197.13,563.431 1199.07,563.765 1200.38,565.021C1211.06,575.236 1218.85,594.646 1224.7,616.726C1237.04,663.279 1241.01,734.696 1241.01,734.696Z"/>
                    <path d="M1208.68,574.515C1208.68,574.515 1221.24,593.788 1230.23,607.582C1235.68,615.947 1238.37,625.81 1237.92,635.784C1237.13,653.304 1235.98,678.668 1235.98,678.668C1235.91,680.322 1237.19,681.725 1238.84,681.8C1240.5,681.875 1241.9,680.593 1241.98,678.939C1241.98,678.939 1243.12,653.575 1243.91,636.055C1244.42,624.827 1241.39,613.723 1235.26,604.306C1226.27,590.512 1213.71,571.239 1213.71,571.239C1212.81,569.852 1210.95,569.46 1209.56,570.363C1208.17,571.267 1207.78,573.127 1208.68,574.515Z"/>
                    <path d="M1191.88,565.441L1191.94,565.393C1190.67,566.452 1188.78,566.277 1187.72,565.004C1186.66,563.731 1186.83,561.838 1188.11,560.779C1188.11,560.779 1190.85,558.388 1195.02,559.145C1197.31,559.56 1200.21,560.95 1203.21,564.896C1209.19,572.79 1216.37,592.713 1220.16,641.05C1220.29,642.701 1219.05,644.146 1217.4,644.275C1215.75,644.404 1214.3,643.169 1214.17,641.518C1210.55,595.252 1204.16,576.078 1198.43,568.523C1196.73,566.288 1195.25,565.284 1193.95,565.049C1192.83,564.845 1192.03,565.329 1191.88,565.441L1191.87,565.453C1191.87,565.453 1191.87,565.449 1191.88,565.442L1191.88,565.441Z"/>
                </g>
                <g transform="matrix(1,0,0,1,-0.0378821,0.203238)">
                    <path d="M1367.63,1124.42L928.508,1474.3C927.214,1475.33 927.002,1477.22 928.035,1478.51C929.068,1479.81 930.957,1480.02 932.251,1478.99L1376,1124.48L1367.63,1124.42Z"/>
                    <path d="M1240.2,1123.56L1231.62,1123.56C1231.62,1123.56 1184.99,1173.12 1162.49,1219.88C1141.2,1264.15 1150.79,1294.85 1150.79,1294.85C1151.27,1296.43 1152.95,1297.33 1154.53,1296.84C1156.12,1296.35 1157.01,1294.67 1156.52,1293.09C1156.52,1293.09 1147.83,1264.21 1167.9,1222.49C1192.7,1170.93 1240.2,1123.56 1240.2,1123.56Z"/>
                    <path d="M1239.88,1458.56L1386.61,1664.06C1387.57,1665.41 1389.44,1665.72 1390.79,1664.76C1392.14,1663.8 1392.45,1661.92 1391.49,1660.58L1244.76,1455.08C1243.8,1453.73 1241.92,1453.42 1240.57,1454.38C1239.23,1455.34 1238.91,1457.22 1239.88,1458.56Z"/>
                    <path d="M1377.95,1352.05L1564.06,1649.74C1564.93,1651.14 1566.79,1651.57 1568.19,1650.69C1569.6,1649.82 1570.02,1647.96 1569.14,1646.56L1383.03,1348.87C1382.16,1347.46 1380.3,1347.04 1378.9,1347.91C1377.5,1348.79 1377.07,1350.64 1377.95,1352.05Z"/>
                    <path d="M1198.06,1329.94L1226.51,1321.89C1228.11,1321.44 1229.03,1319.78 1228.58,1318.19C1228.13,1316.59 1226.47,1315.66 1224.88,1316.12L1196.42,1324.17C1194.83,1324.62 1193.9,1326.28 1194.35,1327.88C1194.8,1329.47 1196.46,1330.4 1198.06,1329.94Z"/>
                    <path d="M1569.28,1175.65C1560.17,1185.4 1539.74,1211.91 1493.47,1251.66C1384.68,1345.12 1191.47,1494.68 1029.5,1593.94C1028.09,1594.8 1027.64,1596.65 1028.51,1598.06C1029.37,1599.48 1031.22,1599.92 1032.63,1599.05C1194.87,1499.63 1388.41,1349.83 1497.38,1256.21C1544.43,1215.79 1572.54,1181.78 1572.54,1181.78C1572.54,1181.78 1570.11,1174.22 1569.28,1175.65Z"/>
                </g>
                <g>
                    <path d="M1417.63,704.593C1417.62,704.716 1417.61,704.936 1417.6,705.148C1417.51,707.247 1417.43,712.297 1417.47,713.548C1417.57,716.772 1417.8,719.978 1418.22,723.156C1418.63,726.309 1419.24,729.434 1420.09,732.525C1422.14,740.001 1427.13,744.097 1433.22,745.799C1439.5,747.552 1446.9,746.858 1453.61,744.784C1454.82,744.409 1456.11,745.089 1456.48,746.302C1456.86,747.515 1456.18,748.804 1454.96,749.179C1445.73,752.033 1435.36,752.408 1427.48,748.518C1422.01,745.815 1417.67,741.108 1415.65,733.744C1414.75,730.45 1414.1,727.119 1413.65,723.759C1413.21,720.426 1412.97,717.065 1412.87,713.684C1412.84,712.383 1412.91,707.134 1413,704.952C1413.02,704.44 1413.05,704.067 1413.07,703.895C1413.16,703.202 1413.45,702.841 1413.54,702.721C1414.18,701.879 1414.96,701.758 1415.6,701.82C1416.11,701.871 1416.76,702.064 1417.28,702.811C1417.65,703.352 1417.76,703.997 1417.63,704.593ZM1416.95,705.793C1416.87,705.87 1416.78,705.943 1416.68,706.009C1416.28,706.282 1415.83,706.413 1415.38,706.412C1415.88,706.421 1416.45,706.292 1416.95,705.793ZM1413.56,705.518C1413.99,706.091 1414.51,706.298 1414.96,706.373C1414.42,706.273 1413.91,705.981 1413.56,705.518ZM1416.96,705.784L1416.96,705.786L1416.96,705.784Z"/>
                    <path d="M1431.1,750.966C1430.74,750.218 1430.81,749.304 1431.34,748.599C1432.11,747.586 1433.55,747.385 1434.56,748.15C1434.78,748.312 1435.37,748.891 1435.62,750.117C1435.83,751.122 1436.08,753.258 1436.32,755.991C1437.02,763.944 1437.75,777.12 1437.63,781.359C1437.6,782.628 1436.54,783.631 1435.27,783.597C1434,783.563 1433,782.506 1433.03,781.237C1433.16,776.47 1432.2,760.16 1431.43,753.322C1431.32,752.329 1431.15,751.274 1431.1,750.966Z"/>
                    <path d="M1489.54,732.605C1489.76,733.223 1490.04,734.08 1490.12,734.397L1492.06,741.425C1493.25,745.567 1494.39,749.751 1495.6,753.908C1496.4,756.652 1497.23,759.385 1498.14,762.084C1498.54,763.287 1497.89,764.592 1496.69,764.996C1495.48,765.4 1494.18,764.751 1493.78,763.547C1492.85,760.789 1492,757.998 1491.18,755.194C1489.97,751.034 1488.84,746.847 1487.64,742.703L1485.67,735.531C1485.52,734.966 1484.94,733.524 1484.8,732.835C1484.67,732.252 1484.73,731.794 1484.79,731.523C1484.98,730.779 1485.4,730.333 1485.86,730.053C1486.34,729.759 1487.46,729.204 1488.82,730.403C1489.46,730.972 1489.71,731.821 1489.54,732.605ZM1485.89,733.944L1485.9,733.957L1485.88,733.935L1485.89,733.944Z"/>
                    <path d="M1487.5,697.024C1487.48,697.133 1487.4,697.518 1487.38,697.795C1487.28,698.936 1487.38,700.444 1487.53,701.963C1487.79,704.588 1488.24,707.244 1488.4,708.377C1488.57,709.634 1487.69,710.797 1486.44,710.972C1485.18,711.147 1484.02,710.269 1483.84,709.012C1483.59,707.197 1482.64,701.658 1482.75,698.19C1482.8,696.378 1483.25,694.989 1483.81,694.293C1484.6,693.302 1486.05,693.142 1487.04,693.936C1487.98,694.692 1488.17,696.042 1487.5,697.024Z"/>
                    <path d="M1485.25,708.287C1485.57,707.594 1486.11,706.43 1486.43,706.013C1487.3,704.897 1488.26,703.83 1489.38,702.995C1490.23,702.364 1491.17,701.862 1492.23,701.545C1494.58,700.837 1496.85,701.469 1498.84,702.883C1501.17,704.538 1503.09,707.321 1504.14,709.393C1506.84,714.695 1505.45,720.683 1501.9,725.376C1498.51,729.86 1493.17,733.075 1488.04,733.341C1486.78,733.406 1485.69,732.43 1485.63,731.163C1485.56,729.895 1486.54,728.812 1487.81,728.747C1491.69,728.546 1495.66,725.997 1498.23,722.602C1500.71,719.325 1501.92,715.18 1500.04,711.478C1499.38,710.174 1498.28,708.476 1496.91,707.232C1495.92,706.331 1494.8,705.573 1493.55,705.95C1492.87,706.153 1492.3,706.523 1491.78,706.966C1491.14,707.512 1490.59,708.167 1490.07,708.836C1489.68,709.326 1489.2,710.787 1489,711.134C1488.34,712.265 1487.35,712.35 1487.02,712.363C1486.29,712.39 1485.61,712.142 1485.08,711.436C1484.95,711.259 1484.51,710.72 1484.64,709.615C1484.69,709.097 1484.92,708.638 1485.25,708.287ZM1489.22,709.931L1489.22,709.987L1489.22,709.965L1489.22,709.931ZM1489.22,709.797L1489.22,709.85L1489.22,709.815L1489.22,709.797Z"/>
                    <path d="M1417.46,778.732C1416.08,778.996 1409.02,780.948 1409.02,780.948L1414.96,783.863C1414.96,783.863 1418.07,783.284 1420.14,782.895C1426.37,781.729 1427.54,781.338 1435.38,780.101C1436.63,779.902 1437.49,778.724 1437.29,777.47C1437.09,776.216 1435.91,775.359 1434.66,775.557C1425.94,776.933 1424.19,777.451 1417.46,778.732Z"/>
                    <path d="M1496.09,760.163C1496.16,760.143 1496.23,760.127 1496.31,760.113C1497.13,759.974 1498.85,759.669 1501.21,759.255C1511.27,757.494 1533.44,753.53 1548.71,752.246C1549.13,752.21 1547.65,753.192 1546.59,754.506C1545.54,755.805 1543.58,757.576 1543.58,757.576C1543.58,757.576 1510.9,762.23 1502,763.787C1499.62,764.202 1497.9,764.509 1497.08,764.648C1494.4,765.1 1493.87,762.106 1493.88,762.049C1494.08,760.958 1495.02,760.188 1496.09,760.163Z"/>
                    <g transform="matrix(0.12437,-0.992236,0.992236,0.12437,692.128,1538.77)">
                        <path d="M909.16,663.762C909.958,662.291 909.927,660.879 909.25,659.381C908.643,658.039 907.294,656.549 905.724,654.691C904.067,652.73 902.35,651.073 900.718,650.326C899.093,649.581 897.489,649.55 895.923,650.414C894.812,651.028 894.408,652.428 895.021,653.539C895.635,654.651 897.035,655.055 898.147,654.441C898.505,654.243 898.841,654.498 899.216,654.737C900.214,655.376 901.203,656.468 902.211,657.66C903.106,658.719 903.938,659.623 904.544,660.449C904.741,660.717 904.909,660.969 905.031,661.218C905.091,661.342 905.183,661.448 905.117,661.569C904.512,662.685 904.926,664.082 906.042,664.687C907.158,665.292 908.555,664.878 909.16,663.762Z"/>
                    </g>
                    <g transform="matrix(0.12437,-0.992236,0.992236,0.12437,692.128,1538.77)">
                        <path d="M895.923,650.414C893.212,651.911 892.491,654.318 893.102,656.962C893.561,658.946 894.927,661.122 896.728,662.888C898.927,665.045 901.749,666.533 904.06,666.633C906.173,666.724 908.007,665.889 909.16,663.762C909.766,662.646 909.351,661.249 908.235,660.644C907.119,660.038 905.722,660.453 905.117,661.569C904.831,662.097 904.288,662.09 903.736,661.96C902.465,661.66 901.098,660.731 899.949,659.604C898.815,658.493 897.873,657.175 897.584,655.926C897.448,655.337 897.543,654.775 898.147,654.441C899.258,653.828 899.662,652.427 899.049,651.316C898.435,650.205 897.035,649.801 895.923,650.414Z"/>
                    </g>
                </g>
                <g id="FEET">
                    <path d="M891.943,1503.03L928.077,1474.75C929.381,1473.73 931.268,1473.96 932.289,1475.26C933.309,1476.57 933.079,1478.45 931.776,1479.47L893.862,1509.15C892.778,1510 891.256,1510 890.17,1509.15C890.17,1509.15 878.457,1500.03 864.374,1496.51C856.353,1494.51 847.506,1494.31 839.774,1499.11L964.179,1639.43L1028.03,1594.97C1029.39,1594.03 1031.26,1594.36 1032.21,1595.72C1033.15,1597.08 1032.82,1598.95 1031.46,1599.9L965.418,1645.87C964.169,1646.74 962.468,1646.54 961.459,1645.4L833.067,1500.59C832.522,1499.98 832.253,1499.16 832.323,1498.35C832.392,1497.53 832.794,1496.77 833.436,1496.26C843.34,1488.32 855.171,1488.03 865.828,1490.69C877.594,1493.63 887.838,1500.17 891.943,1503.03Z" style="fill:rgb(255,210,116);"/>
                    <path d="M1611.76,1730.72L1561.3,1645.48C1560.46,1644.06 1560.93,1642.22 1562.36,1641.37C1563.78,1640.53 1565.62,1641 1566.47,1642.43L1619.6,1732.19C1620.15,1733.12 1620.16,1734.27 1619.63,1735.2C1619.09,1736.14 1618.1,1736.72 1617.02,1736.72L1363.33,1736.72C1362.44,1736.72 1361.6,1736.32 1361.03,1735.64C1360.46,1734.95 1360.22,1734.05 1360.38,1733.18C1362.88,1719.53 1372.65,1711.17 1383.62,1706.17C1393.91,1701.48 1405.2,1699.78 1411.78,1699.17L1386.82,1664.97C1385.85,1663.63 1386.14,1661.75 1387.48,1660.78C1388.82,1659.8 1390.69,1660.1 1391.67,1661.43L1419.86,1700.06C1420.52,1700.97 1420.62,1702.17 1420.11,1703.18C1419.61,1704.18 1418.58,1704.82 1417.46,1704.83C1417.46,1704.83 1400.71,1704.97 1386.11,1711.63C1377.84,1715.4 1370.21,1721.29 1367.17,1730.72L1611.76,1730.72Z" style="fill:rgb(255,210,116);"/>
                </g>
                <path d="M1426.13,666.856C1423.09,665.361 1419.95,663.823 1419.64,663.667C1412.16,659.922 1404.71,656.158 1397.28,652.338C1389.84,648.513 1382.43,644.63 1375.07,640.652C1366.13,635.823 1357.22,630.936 1348.32,626.022C1334.99,618.656 1321.69,611.229 1308.38,603.844C1306.58,602.849 1296.46,597.869 1290.77,594.303C1289.13,593.279 1287.84,592.34 1287.08,591.618C1286.29,590.869 1285.88,590.148 1285.7,589.624C1285.37,588.641 1285.31,587.486 1285.59,586.205C1285.9,584.784 1286.68,583.113 1287.77,581.383C1290.57,576.956 1295.53,571.899 1296.92,570.093C1302.43,562.937 1308.21,555.846 1314.3,549.028C1320.4,542.183 1326.81,535.613 1333.57,529.53C1335.55,527.741 1339.35,523.356 1343.01,521.422C1345.71,519.991 1348.4,519.759 1350.7,521.081C1354.57,523.301 1358.67,527.244 1362.7,531.991C1370.64,541.363 1378.38,553.908 1383.61,561.022C1389.81,569.444 1395.77,578.027 1401.61,586.695C1410.33,599.658 1418.77,612.813 1427.31,625.903C1432.78,634.279 1439.2,642.61 1444.69,651.286C1446.75,654.548 1448.68,657.858 1450.38,661.235C1455.29,661.02 1467.52,661.297 1476.77,668.306C1483.3,673.252 1488.5,681.461 1488.57,695.198C1488.57,696.418 1487.84,697.52 1486.71,697.986C1486.71,697.986 1467.46,705.815 1452.46,700.064C1447.15,698.028 1442.32,694.384 1438.95,688.221C1436.62,691.684 1433.02,696.219 1428.29,699.795C1424.38,702.756 1419.72,705.057 1414.4,705.7C1413.6,705.797 1412.8,705.567 1412.17,705.061C1411.54,704.555 1411.14,703.817 1411.06,703.013C1411.06,703.013 1409.57,687.283 1416.99,675.683C1419.19,672.23 1422.16,669.128 1426.13,666.856ZM1482.51,693.153C1482,683.123 1478.16,676.886 1473.15,673.089C1463.13,665.498 1448.95,667.346 1448.95,667.346C1447.67,667.509 1446.43,666.829 1445.87,665.659C1444.06,661.853 1441.92,658.142 1439.62,654.492C1434.15,645.84 1427.73,637.533 1422.29,629.181C1413.77,616.115 1405.34,602.985 1396.63,590.046C1390.84,581.447 1384.93,572.933 1378.78,564.579C1373.61,557.547 1365.98,545.135 1358.12,535.87C1354.61,531.729 1351.09,528.222 1347.71,526.284C1347.29,526.042 1346.83,526.268 1346.34,526.476C1345.4,526.871 1344.46,527.541 1343.54,528.291C1341.13,530.257 1338.92,532.78 1337.58,533.988C1330.99,539.926 1324.74,546.34 1318.77,553.022C1312.79,559.732 1307.1,566.713 1301.67,573.756C1300.49,575.288 1296.65,579.214 1293.89,583.051C1292.98,584.305 1292.2,585.539 1291.73,586.654C1291.63,586.901 1291.54,587.242 1291.48,587.489C1291.65,587.639 1291.87,587.816 1292.07,587.957C1293.92,589.314 1297.06,591.103 1300.25,592.831C1305.1,595.458 1310.08,597.929 1311.29,598.597C1324.6,605.981 1337.9,613.406 1351.22,620.77C1360.1,625.675 1368.99,630.553 1377.92,635.373C1385.25,639.332 1392.62,643.195 1400.02,647.002C1407.43,650.813 1414.87,654.567 1422.33,658.303C1422.82,658.55 1430.44,662.279 1433.47,663.789C1434.04,664.07 1434.45,664.278 1434.64,664.38C1438.02,666.158 1434.35,669.945 1434.16,669.997C1426.78,672.013 1422.58,677.003 1420.18,682.398C1417.44,688.525 1416.94,695.18 1416.92,699.068C1420.87,697.892 1424.27,695.569 1427.08,692.998C1433.29,687.317 1436.69,680.33 1436.69,680.33C1437.22,679.229 1438.37,678.563 1439.59,678.645C1440.81,678.728 1441.86,679.544 1442.24,680.707C1444.72,688.29 1449.32,692.433 1454.61,694.461C1465.01,698.449 1477.75,694.804 1482.51,693.153Z" style="fill:rgb(255,210,116);"/>
            </g>
        </g>
        <g id="HEARTS">
            <path d="M1068.62,597.102C1068.62,597.102 1023.95,562.055 1045.13,542.498C1051.59,536.533 1069.77,541.68 1071.1,553.581C1071.11,553.689 1071.19,553.777 1071.3,553.794C1071.41,553.811 1071.51,553.753 1071.55,553.654C1073.42,549.479 1082.1,532.563 1095.82,543.964C1095.82,543.964 1117.88,561.303 1068.62,597.102Z" style="fill:rgb(254,74,61);"/>
            <g transform="matrix(0.993279,0.115742,-0.115742,0.993279,189.924,-206.185)">
                <path d="M1068.62,597.102C1068.62,597.102 1023.95,562.055 1045.13,542.498C1051.59,536.533 1069.77,541.68 1071.1,553.581C1071.11,553.689 1071.19,553.777 1071.3,553.794C1071.41,553.811 1071.51,553.753 1071.55,553.654C1073.42,549.479 1082.1,532.563 1095.82,543.964C1095.82,543.964 1117.88,561.303 1068.62,597.102Z" style="fill:rgb(254,74,61);"/>
            </g>
        </g>
        <g id="GREEN-LINES-" serif:id="GREEN LINES ">
            <g>
                <g transform="matrix(1,0,0,1,-5.22907,-4.89596)">
                    <path d="M493.477,581.702C493.477,581.702 461.446,622.897 481.349,678.74C481.998,680.559 484.002,681.51 485.821,680.861C487.641,680.213 488.592,678.209 487.943,676.389C469.406,624.382 499.012,585.988 499.012,585.988C500.195,584.461 499.915,582.261 498.388,581.078C496.86,579.895 494.66,580.175 493.477,581.702Z" style="fill:rgb(136,201,212);"/>
                </g>
                <path d="M466.639,683.874C466.639,683.874 444.505,612.299 484.739,564.519C485.983,563.041 485.793,560.831 484.316,559.587C482.838,558.343 480.628,558.532 479.384,560.01C436.92,610.438 459.947,685.929 459.947,685.929C460.514,687.776 462.474,688.815 464.32,688.248C466.167,687.681 467.206,685.721 466.639,683.874Z" style="fill:rgb(136,201,212);"/>
            </g>
            <g>
                <path d="M1637.95,989.285C1637.95,989.285 1669.31,1041.35 1645.13,1098.27C1644.38,1100.05 1645.21,1102.1 1646.99,1102.86C1648.76,1103.61 1650.82,1102.78 1651.57,1101.01C1677.16,1040.77 1643.95,985.672 1643.95,985.672C1642.95,984.018 1640.8,983.484 1639.14,984.481C1637.49,985.477 1636.95,987.63 1637.95,989.285Z" style="fill:rgb(136,201,212);"/>
                <path d="M1646.87,972.555C1646.87,972.555 1698.71,1025.58 1654.62,1116.63C1653.78,1118.37 1654.51,1120.46 1656.25,1121.3C1657.99,1122.14 1660.08,1121.42 1660.92,1119.68C1707.47,1023.56 1651.85,967.639 1651.85,967.639C1650.5,966.264 1648.28,966.249 1646.9,967.605C1645.53,968.962 1645.51,971.179 1646.87,972.555Z" style="fill:rgb(136,201,212);"/>
            </g>
            <g>
                <path d="M1161.44,1168.05C1161.44,1168.05 1132.6,1213.4 1129.49,1237.88C1129.25,1239.8 1130.61,1241.55 1132.53,1241.8C1134.44,1242.04 1136.19,1240.68 1136.44,1238.76C1139.42,1215.26 1167.34,1171.82 1167.34,1171.82C1168.38,1170.19 1167.91,1168.02 1166.28,1166.98C1164.65,1165.94 1162.49,1166.42 1161.44,1168.05Z" style="fill:rgb(136,201,212);"/>
                <path d="M1161.6,1141.43C1151.23,1155.21 1126.35,1178.55 1110.33,1253.44C1109.92,1255.33 1111.13,1257.19 1113.02,1257.6C1114.91,1258 1116.77,1256.8 1117.17,1254.91C1132.8,1181.85 1157.08,1159.08 1167.19,1145.64C1168.35,1144.1 1168.04,1141.9 1166.5,1140.74C1164.95,1139.58 1162.76,1139.89 1161.6,1141.43Z" style="fill:rgb(136,201,212);"/>
            </g>
        </g>
    </g>
</svg>
