<?xml version="1.0" encoding="UTF-8" standalone="no"?>
<!DOCTYPE svg PUBLIC "-//W3C//DTD SVG 1.1//EN" "http://www.w3.org/Graphics/SVG/1.1/DTD/svg11.dtd">
<svg width="100%" height="100%" viewBox="0 0 2732 2048" version="1.1" xmlns="http://www.w3.org/2000/svg" xmlns:xlink="http://www.w3.org/1999/xlink" xml:space="preserve" xmlns:serif="http://www.serif.com/" style="fill-rule:evenodd;clip-rule:evenodd;stroke-linecap:round;stroke-linejoin:round;stroke-miterlimit:2.28659;">
    <g id="SKATEBOARD" transform="matrix(1,0,0,1,101.67,-0.981618)">
        <g transform="matrix(0.999999,0.00168745,-0.00168745,0.999999,-17.5993,-4.78128)">
            <path d="M1297.85,1648.92C1293.34,1644.19 1285.84,1644.02 1281.11,1648.53C1276.38,1653.04 1276.21,1660.54 1280.72,1665.27C1280.72,1665.27 1289.44,1674.42 1299.18,1684.63C1318.13,1704.5 1344.39,1715.74 1371.85,1715.74C1432.24,1715.74 1549.35,1715.74 1607.6,1715.74C1632.74,1715.74 1657.8,1708.04 1676.84,1691.63L1672.93,1687.09C1654.97,1702.56 1631.31,1709.74 1607.6,1709.74L1371.85,1709.74C1346.03,1709.74 1321.34,1699.17 1303.52,1680.49C1293.79,1670.28 1285.06,1661.13 1285.06,1661.13C1282.83,1658.79 1282.92,1655.09 1285.25,1652.87C1287.59,1650.64 1291.29,1650.73 1293.51,1653.06L1297.85,1648.92Z" style="fill:rgb(246,29,55);"/>
        </g>
        <g transform="matrix(0.999999,0.00168745,-0.00168745,0.999999,-17.5993,-4.78128)">
            <path d="M1676.84,1691.63C1680.94,1688.1 1683.97,1680.57 1678.96,1674.81C1676.64,1672.16 1674.16,1670.8 1671.39,1670.52C1668.82,1670.26 1665.9,1670.97 1662.47,1672.86C1652.54,1678.36 1632.35,1691.81 1607.57,1692.06C1549.33,1692.65 1432.23,1692.06 1371.85,1692.06C1350.87,1692.06 1330.8,1683.47 1316.32,1668.28C1306.58,1658.07 1297.85,1648.92 1297.85,1648.92L1293.51,1653.06C1293.51,1653.06 1302.24,1662.21 1311.98,1672.42C1327.59,1688.8 1349.23,1698.06 1371.85,1698.06C1432.24,1698.06 1549.38,1698.65 1607.63,1698.06C1633.66,1697.79 1654.95,1683.88 1665.37,1678.11C1667.81,1676.77 1669.74,1676.12 1671.48,1676.62C1672.55,1676.93 1673.49,1677.68 1674.43,1678.76C1676.94,1681.63 1674.97,1685.32 1672.93,1687.09L1676.84,1691.63Z" style="fill:rgb(246,29,55);"/>
        </g>
        <g transform="matrix(1.09707,0,0,1.09707,-127.185,-174.103)">
            <circle cx="1374.57" cy="1748.9" r="22.77" style="fill:rgb(246,29,55);"/>
        </g>
        <g transform="matrix(1.09707,0,0,1.09707,48.6068,-175.989)">
            <circle cx="1374.57" cy="1748.9" r="22.77" style="fill:rgb(246,29,55);"/>
        </g>
    </g>
    <g id="YELLOW-SMOKE" serif:id="YELLOW SMOKE" transform="matrix(1,0,0,1,101.67,-0.981618)">
        <g transform="matrix(0.999203,-0.0399078,0.0399078,0.999203,-69.0606,60.0635)">
            <path d="M1711.47,1722.69C1716.98,1711.55 1813.03,1600.11 1799.55,1672.65C1799.55,1672.65 1891.94,1607.85 1922.46,1645.27C1926.47,1650.18 1925.35,1664.71 1914.83,1672.65C1914.83,1672.65 1947.42,1683.42 1947.55,1701.63C1947.65,1716.68 1928.43,1735.23 1896.3,1733.89L1711.47,1722.69Z" style="fill:rgb(255,210,116);"/>
        </g>
        <path d="M1244.35,1711.62C1244.35,1711.62 743.923,1715.33 586.729,1711.62C543.9,1710.61 471.802,1686.64 505.005,1612.42C511.676,1597.51 543.419,1543.76 617.516,1558.69C617.516,1558.69 618.595,1503.67 687.834,1507.03C712.768,1508.23 769.115,1540.66 818.143,1584.22C818.143,1584.22 858.056,1520.89 946.128,1584.22C971.619,1602.56 1121.05,1692.23 1244.35,1711.62Z" style="fill:rgb(255,210,116);"/>
        <path d="M1255.92,1667.78C1255.92,1667.78 1169.49,1554.22 1160.37,1627.05C1160.37,1627.05 1131.7,1622.22 1130.66,1646.94C1130.27,1656.37 1140.85,1675.88 1255.92,1667.78Z" style="fill:rgb(255,210,116);"/>
    </g>
    <g transform="matrix(1,0,0,1,101.67,-0.981618)">
        <path d="M1633.41,372.968L1646.71,419.447L1659.27,417.075L1650.74,368.299L1633.41,372.968Z" style="fill:rgb(246,29,55);"/>
        <g transform="matrix(1,0,0,1,8.43923,2.23152)">
            <path d="M1712.94,369.616L1699.07,414.685L1715.1,419.163L1733.98,375.691L1712.94,369.616Z" style="fill:rgb(246,29,55);"/>
        </g>
        <path d="M1754.14,439.176L1763.59,453.669L1805.2,432.715L1790.45,412.925L1754.14,439.176Z" style="fill:rgb(246,29,55);"/>
    </g>
    <g id="SHOES" transform="matrix(1,0,0,1,101.67,-0.981618)">
        <path d="M723.172,1138.23L736.107,1385.52L679.915,1386.56C679.915,1386.56 670.582,1419.07 648.749,1425.09L648.749,1139.6L723.172,1138.23Z"/>
        <path d="M691.154,1399.83C690.6,1398.39 691.24,1396.74 692.657,1396.06C694.15,1395.34 695.944,1395.97 696.66,1397.47C696.86,1397.88 697.059,1398.54 697.151,1399.42C697.265,1400.53 697.253,1402.28 697.175,1404.47C696.942,1411.01 696.15,1421.91 697.719,1430.37C698.189,1432.9 698.864,1435.2 699.893,1437.02C700.692,1438.43 701.69,1439.53 703.07,1440.04C704.31,1440.49 705.801,1440.45 707.594,1439.96C709.191,1439.52 710.843,1440.46 711.283,1442.06C711.722,1443.65 710.783,1445.31 709.186,1445.75C704.788,1446.96 701.389,1446.29 698.747,1444.52C695.159,1442.13 692.911,1437.34 691.82,1431.46C690.171,1422.58 690.934,1411.13 691.179,1404.26C691.25,1402.24 691.164,1400.09 691.154,1399.83Z"/>
        <path d="M700.205,1408.98C697.424,1406.46 694.574,1403.87 692.231,1400.96C692.18,1400.9 691.542,1400.02 691.277,1399.52C690.972,1398.94 690.884,1398.43 690.863,1398.15C690.798,1397.27 691.086,1396.62 691.41,1396.16C691.825,1395.58 692.397,1395.15 693.177,1394.97C694.111,1394.74 695.565,1394.92 697.082,1396.04C699.578,1397.9 703.475,1403.18 704.167,1404.12C704.358,1404.39 704.571,1404.7 704.802,1405.05L705.278,1405.48C708.246,1408.17 711.639,1411.37 715.362,1413.93C718.731,1416.25 722.364,1418.09 726.221,1418.3C727.874,1418.39 729.144,1419.8 729.054,1421.46C728.964,1423.11 727.549,1424.38 725.896,1424.29C720.896,1424.02 716.123,1421.68 711.763,1418.65C713.961,1423.95 715.769,1429.69 715.978,1434.33C716.24,1440.13 714.163,1444.38 709.186,1445.75C707.59,1446.19 705.937,1445.25 705.498,1443.65C705.058,1442.05 705.998,1440.4 707.594,1439.96C708.829,1439.62 709.468,1438.73 709.76,1437.55C710.232,1435.66 709.993,1433.25 709.434,1430.64C707.738,1422.72 702.878,1413.21 700.205,1408.98Z"/>
        <path d="M725.896,1424.29C729.811,1424.5 732.013,1423.16 733.203,1421.5C734.41,1419.81 734.7,1417.44 734.056,1414.87C733.095,1411.04 730.03,1406.66 727.622,1404.8C719.247,1398.3 707.198,1396.99 696.995,1395.85C695.35,1395.66 693.864,1396.85 693.679,1398.49C693.494,1400.14 694.68,1401.62 696.326,1401.81C705.496,1402.84 716.416,1403.69 723.943,1409.54C725.562,1410.79 727.59,1413.75 728.236,1416.33C728.398,1416.98 728.624,1417.58 728.32,1418.01C728.233,1418.13 728.057,1418.15 727.858,1418.2C727.41,1418.31 726.867,1418.33 726.221,1418.3C724.568,1418.21 723.153,1419.48 723.063,1421.13C722.973,1422.78 724.242,1424.2 725.896,1424.29Z"/>
        <g transform="matrix(1,0,0,1,-1.45412,-0.699315)">
            <path d="M1359.5,1613.42L1546.41,1634.65L1541.27,1660.43C1541.27,1660.43 1587.82,1662.44 1584.2,1685.72L1341.1,1685.72L1359.5,1613.42Z"/>
        </g>
        <path d="M1558.88,1655.52C1559.25,1656.83 1558.68,1658.26 1557.44,1658.95C1555.99,1659.75 1554.17,1659.22 1553.37,1657.77C1552.94,1657 1552.7,1655.7 1553.02,1654.12C1553.39,1652.29 1554.49,1649.71 1555.24,1648.1C1558.1,1641.98 1561.35,1635.9 1566.31,1631.2C1567.54,1630.03 1570.2,1627.67 1572.61,1626.9C1574.36,1626.34 1576.03,1626.45 1577.45,1627.3C1578.87,1628.15 1579.34,1629.99 1578.49,1631.41C1577.69,1632.75 1576,1633.24 1574.62,1632.58C1574.4,1632.66 1573.76,1632.9 1573.39,1633.13C1572.18,1633.89 1571.07,1634.95 1570.44,1635.55C1566.03,1639.73 1563.22,1645.19 1560.67,1650.64C1560.09,1651.88 1559.06,1654.98 1558.88,1655.52Z"/>
        <path d="M1574.08,1632.25C1572.89,1631.33 1572.55,1629.65 1573.34,1628.33C1574.19,1626.91 1576.03,1626.45 1577.45,1627.3C1579.34,1628.43 1580.18,1630.4 1580.1,1632.73C1580.02,1634.88 1579.06,1637.37 1578.45,1638.67C1575.33,1645.33 1569.57,1649.93 1563.83,1654.22C1564.35,1654.16 1564.73,1654.11 1564.9,1654.1C1568.67,1653.82 1573.5,1653.33 1577.64,1651.77C1579.93,1650.91 1582.01,1649.72 1583.42,1647.94L1583.37,1647.94C1581.72,1647.79 1580.5,1646.33 1580.65,1644.68C1580.79,1643.04 1582.25,1641.81 1583.9,1641.96C1586.44,1642.18 1588.24,1643.41 1589.11,1644.91C1590.07,1646.56 1590.24,1648.82 1588.41,1651.29C1586.34,1654.09 1583.26,1656.06 1579.76,1657.38C1575.06,1659.16 1569.6,1659.77 1565.33,1660.08C1564.47,1660.14 1558.9,1660.87 1556.43,1660.43C1554.46,1660.09 1553.44,1658.95 1553.08,1658.01C1552.75,1657.15 1552.69,1655.62 1554.03,1654.12C1555.34,1652.64 1559.17,1650.21 1559.69,1649.83C1564.83,1645.99 1570.22,1642.09 1573.01,1636.13C1573.34,1635.43 1573.86,1634.22 1574.05,1633.03C1574.08,1632.8 1574.08,1632.44 1574.08,1632.25Z"/>
        <path d="M1583.9,1641.96C1579.72,1641.59 1575.33,1642.9 1571.56,1644.6C1568.29,1646.09 1565.18,1647.97 1562.1,1649.82C1560.68,1650.67 1560.23,1652.52 1561.08,1653.94C1561.93,1655.36 1563.78,1655.81 1565.2,1654.96C1568.07,1653.23 1570.97,1651.46 1574.04,1650.07C1576.89,1648.78 1580.2,1647.66 1583.37,1647.94C1585.02,1648.08 1586.48,1646.86 1586.62,1645.21C1586.77,1643.56 1585.55,1642.11 1583.9,1641.96Z"/>
    </g>
    <g id="PANTS" transform="matrix(1,0,0,1,101.67,-0.981618)">
        <g>
            <path d="M1443.72,1219.79C1135.29,990.845 1227.28,798.59 1227.28,798.59C1228.23,796.595 1230.62,795.744 1232.61,796.69C1234.61,797.637 1235.46,800.024 1234.51,802.019C1234.51,802.019 1146.1,990.033 1450.56,1214.9C1451.83,1215.84 1452.43,1217.44 1452.09,1218.98L1365.76,1613.6L1357.83,1612.72L1443.72,1219.79Z" style="fill:rgb(103,141,218);"/>
            <path d="M1388.3,819.834C1388.3,819.834 1525.57,964.958 1619.53,1064.3C1671.4,1119.13 1688.48,1198.25 1663.86,1269.6C1614.67,1412.11 1537.79,1633.14 1537.79,1633.14L1544.96,1633.96C1544.96,1633.96 1622.24,1414.72 1671.42,1272.21C1697.02,1198.04 1679.26,1115.8 1625.35,1058.8C1531.38,959.46 1394.11,814.337 1394.11,814.337C1392.6,812.733 1390.06,812.663 1388.46,814.18C1386.86,815.697 1386.79,818.23 1388.3,819.834Z" style="fill:rgb(103,141,218);"/>
            <path d="M1088.19,1120.8L1223.79,806.701C1224.67,804.675 1227.02,803.739 1229.05,804.614C1231.08,805.489 1232.01,807.845 1231.14,809.872L1094.55,1126.26C1093.94,1127.66 1092.59,1128.6 1091.07,1128.67L723.574,1146.56L722.963,1138L1088.19,1120.8Z" style="fill:rgb(103,141,218);"/>
            <path d="M736.063,1385.44C736.063,1385.44 1009.63,1376.69 1151.82,1371.74C1204.57,1369.9 1252.28,1339.89 1276.78,1293.14L1356.35,1141.27C1357.37,1139.32 1356.62,1136.9 1354.66,1135.88C1352.71,1134.85 1350.29,1135.61 1349.26,1137.56L1269.69,1289.42C1246.53,1333.63 1201.42,1362 1151.54,1363.74C1009.35,1368.69 735.667,1377.1 735.667,1377.1L736.063,1385.44Z" style="fill:rgb(103,141,218);"/>
            <path d="M1443.12,1243.4L1448.18,1245.99C1448.18,1245.99 1479.22,1258.08 1498.87,1254.69C1500.98,1254.32 1502.64,1252.67 1503.02,1250.56C1503.4,1248.45 1502.42,1246.33 1500.58,1245.24C1483.72,1235.3 1448.18,1214.39 1448.18,1214.39C1448.18,1214.39 1445,1244.63 1443.12,1243.4Z" style="fill:rgb(106,143,219);"/>
        </g>
        <path id="PANTS1" serif:id="PANTS" d="M1556.24,1597.65C1554.45,1603.3 1552.81,1608.49 1551.34,1613.12C1550.2,1613.42 1549.1,1613.72 1548.04,1614.01C1533.8,1617.94 1526.82,1622.78 1520.87,1631.22L1506.2,1629.55C1513.19,1617.3 1522.71,1606.47 1544.32,1600.51C1547.89,1599.53 1551.89,1598.5 1556.24,1597.65ZM1392.17,1576.4C1399.31,1576.4 1405.1,1582.29 1405.1,1589.54C1405.1,1596.79 1399.31,1602.67 1392.17,1602.67C1385.03,1602.67 1379.24,1596.79 1379.24,1589.54C1379.24,1582.29 1385.03,1576.4 1392.17,1576.4ZM1509.99,1562.17C1509.99,1562.17 1485.48,1584.87 1454.42,1574.14C1439.63,1569.02 1416.35,1559.93 1405.94,1531.92C1404.59,1528.3 1400.56,1526.45 1396.94,1527.79C1393.32,1529.14 1391.47,1533.17 1392.81,1536.79C1405.15,1570.01 1432.31,1581.31 1449.85,1587.37C1488.76,1600.82 1519.49,1572.45 1519.49,1572.45C1522.33,1569.83 1522.5,1565.39 1519.88,1562.56C1517.26,1559.72 1512.82,1559.55 1509.99,1562.17ZM1534.64,1387.77C1534.64,1387.77 1560.87,1408.46 1555.07,1440.81C1552.31,1456.21 1546.93,1480.62 1520.87,1495.24C1517.5,1497.13 1516.3,1501.4 1518.18,1504.77C1520.08,1508.14 1524.35,1509.34 1527.71,1507.45C1558.62,1490.12 1565.57,1461.54 1568.85,1443.28C1576.12,1402.75 1543.33,1376.78 1543.33,1376.78C1540.3,1374.39 1535.89,1374.9 1533.5,1377.93C1531.1,1380.96 1531.61,1385.37 1534.64,1387.77ZM1407.49,1396.18C1418.01,1400.25 1429.04,1407.35 1437.73,1419.6C1448.45,1434.74 1463.96,1459.74 1454.65,1493.93C1453.64,1497.65 1449.79,1499.86 1446.06,1498.84C1442.33,1497.83 1440.13,1493.98 1441.14,1490.25C1448.99,1461.41 1435.35,1440.47 1426.3,1427.69C1419.97,1418.76 1412.07,1413.27 1404.35,1409.92L1407.49,1396.18ZM1501.06,1430.22C1508.19,1430.22 1513.99,1436.11 1513.99,1443.35C1513.99,1450.6 1508.19,1456.49 1501.06,1456.49C1493.92,1456.49 1488.12,1450.6 1488.12,1443.35C1488.12,1436.11 1493.92,1430.22 1501.06,1430.22ZM1612.48,1423.66C1607.02,1422.12 1603.01,1417.03 1603.01,1411C1603.01,1403.75 1608.8,1397.87 1615.94,1397.87C1617.66,1397.87 1619.31,1398.21 1620.82,1398.83C1618.13,1406.76 1615.34,1415.07 1612.48,1423.66ZM1481.32,1394.58C1481.32,1394.58 1465.58,1365.11 1483.85,1337.8C1492.55,1324.79 1507.26,1304.57 1537,1301.62C1540.84,1301.23 1543.65,1297.8 1543.27,1293.96C1542.89,1290.11 1539.46,1287.3 1535.61,1287.68C1500.35,1291.19 1482.53,1314.59 1472.21,1330.01C1449.32,1364.24 1468.97,1401.16 1468.97,1401.16C1470.78,1404.57 1475.03,1405.86 1478.44,1404.05C1481.85,1402.23 1483.14,1397.99 1481.32,1394.58ZM810.315,1379.63C799.647,1370.98 789.472,1358.09 780.852,1339.26C779.244,1335.75 780.79,1331.59 784.303,1329.98C787.816,1328.38 791.974,1329.92 793.582,1333.43C804.574,1357.45 818.128,1370.5 832.016,1376.75C833.651,1377.48 835.287,1378.12 836.921,1378.68L822.239,1379.2L810.315,1379.63ZM880.885,1377.1C890.316,1373.75 896.361,1369.78 896.361,1369.78C899.602,1367.68 903.941,1368.6 906.044,1371.84C906.906,1373.17 907.26,1374.68 907.154,1376.15L889.527,1376.79L880.885,1377.1ZM1085.45,1369.49C1084.42,1368.31 1083.41,1367.09 1082.44,1365.81C1071.65,1351.63 1064.4,1330.79 1066.5,1299.97C1066.76,1296.11 1070.11,1293.2 1073.96,1293.46C1077.82,1293.72 1080.73,1297.07 1080.47,1300.92C1078.67,1327.27 1084.35,1345.21 1093.58,1357.32C1097.07,1361.91 1101.04,1365.65 1105.24,1368.7C1098.91,1368.96 1092.31,1369.22 1085.45,1369.49ZM1622.88,1356.88C1622.88,1356.88 1602.83,1330.16 1616.72,1300.38C1623.33,1286.19 1634.77,1263.97 1663.71,1256.51C1667.45,1255.54 1669.71,1251.72 1668.74,1247.98C1667.78,1244.24 1663.96,1241.99 1660.22,1242.95C1625.9,1251.8 1611.87,1277.64 1604.03,1294.46C1586.63,1331.78 1611.68,1365.27 1611.68,1365.27C1614,1368.36 1618.39,1368.99 1621.48,1366.68C1624.57,1364.36 1625.2,1359.97 1622.88,1356.88ZM1010.19,1265.62C1010.19,1265.62 1019.91,1303.23 996.099,1328.79C985.72,1339.94 969.001,1348.57 942.73,1351.26C938.886,1351.66 936.086,1355.1 936.479,1358.94C936.873,1362.78 940.312,1365.59 944.156,1365.19C974.887,1362.05 994.203,1351.37 1006.34,1338.34C1035.08,1307.48 1023.76,1262.18 1023.76,1262.18C1022.81,1258.43 1019,1256.17 1015.25,1257.12C1011.51,1258.07 1009.24,1261.88 1010.19,1265.62L1010.19,1265.62ZM1192.3,1289.26C1199.38,1289.26 1205.12,1295 1205.12,1302.07C1205.12,1309.15 1199.38,1314.89 1192.3,1314.89C1185.23,1314.89 1179.49,1309.15 1179.49,1302.07C1179.49,1295 1185.23,1289.26 1192.3,1289.26ZM729.797,1273.28L730.195,1273.72C752.218,1298.11 784.638,1290.05 784.638,1290.05C788.388,1289.12 792.186,1291.41 793.116,1295.16C794.045,1298.91 791.755,1302.7 788.005,1303.63C788.005,1303.63 757.109,1311.27 730.902,1292.93L729.797,1273.28ZM857.503,1277.37C864.641,1277.37 870.435,1283.26 870.435,1290.51C870.435,1297.76 864.641,1303.64 857.503,1303.64C850.366,1303.64 844.571,1297.76 844.571,1290.51C844.571,1283.26 850.366,1277.37 857.503,1277.37ZM1122.26,1292.15C1122.26,1292.15 1125.65,1253.46 1156.63,1237.31C1170.13,1230.27 1188.78,1227.7 1214.44,1233.94C1218.19,1234.85 1221.98,1232.54 1222.89,1228.79C1223.81,1225.03 1221.5,1221.25 1217.74,1220.33C1187.72,1213.04 1165.95,1216.66 1150.16,1224.89C1112.77,1244.38 1108.32,1290.87 1108.32,1290.87C1107.97,1294.71 1110.8,1298.12 1114.65,1298.48C1118.5,1298.83 1121.91,1296 1122.26,1292.15L1122.26,1292.15ZM1458.53,1272C1465.67,1272 1471.47,1277.88 1471.47,1285.13C1471.47,1292.38 1465.67,1298.27 1458.53,1298.27C1451.4,1298.27 1445.6,1292.38 1445.6,1285.13C1445.6,1277.88 1451.4,1272 1458.53,1272ZM832.877,1258.12C832.877,1258.12 855.573,1233.61 887.359,1241.93C902.5,1245.89 926.414,1253.17 938.938,1280.31C940.557,1283.82 944.72,1285.35 948.228,1283.73C951.735,1282.11 953.269,1277.95 951.65,1274.44C936.8,1242.27 908.858,1233.09 890.906,1228.39C851.074,1217.96 822.612,1248.6 822.612,1248.6C819.985,1251.43 820.152,1255.87 822.985,1258.49C825.818,1261.12 830.25,1260.95 832.877,1258.12ZM1297.99,1244.86C1298.34,1236.86 1297.31,1229.76 1295.29,1223.46C1284.62,1190.2 1247.06,1180.31 1247.06,1180.31L1247.06,1180.31C1243.33,1179.31 1241.11,1175.47 1242.11,1171.73C1243.12,1168 1246.96,1165.79 1250.69,1166.79C1250.69,1166.79 1295.75,1179.04 1308.62,1219.19C1308.98,1220.3 1309.31,1221.42 1309.62,1222.57L1297.99,1244.86ZM1073.7,1182.12C1073.7,1182.12 1055.93,1210.4 1023.15,1208.1C1007.54,1207 982.692,1204.27 965.369,1179.91C963.13,1176.76 958.756,1176.03 955.608,1178.27C952.46,1180.5 951.722,1184.88 953.961,1188.03C974.501,1216.9 1003.66,1220.76 1022.17,1222.06C1063.24,1224.95 1085.55,1189.57 1085.55,1189.57C1087.61,1186.31 1086.63,1181.98 1083.36,1179.92C1080.09,1177.86 1075.76,1178.85 1073.7,1182.12ZM1591.91,1195.42C1599.05,1195.42 1604.85,1201.31 1604.85,1208.56C1604.85,1215.81 1599.05,1221.69 1591.91,1221.69C1584.78,1221.69 1578.98,1215.81 1578.98,1208.56C1578.98,1201.31 1584.78,1195.42 1591.91,1195.42ZM1509.33,1207.8C1509.33,1207.8 1505.67,1174.59 1532.78,1156.03C1545.7,1147.18 1566.86,1133.88 1595.57,1142.19C1599.28,1143.27 1603.16,1141.13 1604.24,1137.42C1605.31,1133.71 1603.17,1129.82 1599.46,1128.75C1565.42,1118.89 1540.19,1133.99 1524.87,1144.48C1490.9,1167.74 1495.41,1209.32 1495.41,1209.32C1495.83,1213.16 1499.29,1215.93 1503.13,1215.52C1506.97,1215.1 1509.75,1211.64 1509.33,1207.8ZM866.33,1134.56C874.12,1147.78 879.853,1164.97 876.429,1186.75C875.829,1190.57 872.244,1193.18 868.427,1192.58C864.61,1191.98 861.999,1188.39 862.599,1184.58C865.965,1163.16 858.549,1147.11 850.255,1135.45L866.33,1134.56ZM1196.95,1176.98C1196.95,1176.98 1163.61,1174.84 1150.02,1144.93C1143.54,1130.68 1134.1,1107.53 1147.25,1080.7C1148.95,1077.23 1147.52,1073.03 1144.05,1071.33C1140.58,1069.63 1136.38,1071.07 1134.68,1074.53C1119.09,1106.35 1129.59,1133.82 1137.27,1150.72C1154.31,1188.2 1196.04,1190.95 1196.04,1190.95C1199.89,1191.2 1203.23,1188.28 1203.48,1184.42C1203.73,1180.57 1200.81,1177.24 1196.95,1176.98ZM1423.97,1159.39C1431.11,1159.39 1436.9,1165.28 1436.9,1172.53C1436.9,1179.78 1431.11,1185.66 1423.97,1185.66C1416.84,1185.66 1411.04,1179.78 1411.04,1172.53C1411.04,1165.28 1416.84,1159.39 1423.97,1159.39ZM750.105,1157.7C757.242,1157.7 763.037,1163.59 763.037,1170.83C763.037,1178.08 757.242,1183.97 750.105,1183.97C742.967,1183.97 737.172,1178.08 737.172,1170.83C737.172,1163.59 742.967,1157.7 750.105,1157.7ZM1019.65,1150.11C1026.78,1150.11 1032.58,1155.99 1032.58,1163.24C1032.58,1170.49 1026.78,1176.38 1019.65,1176.38C1012.51,1176.38 1006.71,1170.49 1006.71,1163.24C1006.71,1155.99 1012.51,1150.11 1019.65,1150.11ZM1334.37,1175.12C1330.53,1172.9 1327.94,1168.76 1327.94,1164.01C1327.94,1156.93 1333.68,1151.19 1340.76,1151.19C1342.7,1151.19 1344.55,1151.63 1346.21,1152.41L1334.37,1175.12ZM1337.84,1121.51C1343.41,1117.42 1350.03,1113.94 1357.88,1111.61C1375.67,1106.33 1404.32,1099.7 1433.7,1119.52C1436.9,1121.68 1437.74,1126.04 1435.58,1129.24C1433.42,1132.44 1429.07,1133.29 1425.86,1131.13C1401.09,1114.41 1376.87,1120.57 1361.86,1125.03C1356.42,1126.64 1351.72,1128.96 1347.66,1131.68L1337.84,1121.51ZM1304.21,1084.69C1307.26,1088.69 1310.42,1092.68 1313.49,1096.31C1307.98,1104.86 1299.97,1113.16 1288.34,1119.15C1271.84,1127.64 1244.91,1139.48 1212.37,1125.45C1208.82,1123.92 1207.18,1119.8 1208.71,1116.25C1210.24,1112.7 1214.36,1111.07 1217.91,1112.6C1245.36,1124.42 1268.01,1113.86 1281.93,1106.7C1292.92,1101.04 1299.85,1092.79 1304.21,1084.69ZM1473.08,969.883C1473.08,969.883 1500.81,988.508 1497.51,1021.2C1495.94,1036.77 1492.45,1061.53 1467.58,1078.1C1464.37,1080.24 1463.5,1084.59 1465.64,1087.81C1467.78,1091.02 1472.13,1091.89 1475.35,1089.75C1504.84,1070.1 1509.58,1041.07 1511.44,1022.61C1515.58,981.64 1480.89,958.267 1480.89,958.267C1477.69,956.111 1473.34,956.962 1471.18,960.167C1469.02,963.373 1469.87,967.726 1473.08,969.883ZM1234.88,1045.24C1242.02,1045.24 1247.82,1051.12 1247.82,1058.37C1247.82,1065.62 1242.02,1071.51 1234.88,1071.51C1227.75,1071.51 1221.95,1065.62 1221.95,1058.37C1221.95,1051.12 1227.75,1045.24 1234.88,1045.24ZM1570.33,1030.61C1577.46,1030.61 1583.26,1036.5 1583.26,1043.75C1583.26,1051 1577.46,1056.88 1570.33,1056.88C1563.19,1056.88 1557.39,1051 1557.39,1043.75C1557.39,1036.5 1563.19,1030.61 1570.33,1030.61ZM1421.91,1025.21C1429.04,1025.21 1434.84,1031.1 1434.84,1038.35C1434.84,1045.6 1429.04,1051.49 1421.91,1051.49C1414.77,1051.49 1408.97,1045.6 1408.97,1038.35C1408.97,1031.1 1414.77,1025.21 1421.91,1025.21ZM1177.76,926.271C1189.71,933.433 1203.64,945.923 1209.33,966.774C1214.21,984.678 1220.2,1013.47 1199.72,1042.39C1197.49,1045.55 1193.12,1046.3 1189.96,1044.06C1186.81,1041.83 1186.06,1037.46 1188.3,1034.31C1205.57,1009.91 1199.94,985.557 1195.82,970.457C1191.52,954.68 1181.29,944.912 1172.1,939.081L1177.76,926.271ZM1311.51,1030.15C1311.51,1030.15 1309.29,996.821 1337.17,979.444C1350.45,971.166 1372.17,958.788 1400.49,968.331C1404.16,969.564 1408.13,967.593 1409.36,963.932C1410.6,960.271 1408.63,956.297 1404.96,955.064C1371.38,943.749 1345.52,957.747 1329.77,967.562C1294.82,989.338 1297.54,1031.07 1297.54,1031.07C1297.79,1034.93 1301.13,1037.85 1304.98,1037.6C1308.84,1037.35 1311.76,1034.01 1311.51,1030.15ZM1261.89,986.896C1269.03,986.896 1274.83,992.781 1274.83,1000.03C1274.83,1007.28 1269.03,1013.17 1261.89,1013.17C1254.76,1013.17 1248.96,1007.28 1248.96,1000.03C1248.96,992.781 1254.76,986.896 1261.89,986.896ZM1246.37,823.588C1246.37,823.588 1277.42,835.926 1281.11,868.577C1282.86,884.129 1284.69,909.059 1263.89,930.519C1261.2,933.294 1261.27,937.729 1264.04,940.418C1266.82,943.107 1271.25,943.037 1273.94,940.263C1298.61,914.818 1297.1,885.446 1295.02,867.005C1290.39,826.091 1251.55,810.583 1251.55,810.583C1247.96,809.153 1243.89,810.906 1242.46,814.495C1241.03,818.084 1242.78,822.158 1246.37,823.588ZM1336.64,876.238C1343.78,876.238 1349.57,882.124 1349.57,889.373C1349.57,896.623 1343.78,902.508 1336.64,902.508C1329.5,902.508 1323.71,896.623 1323.71,889.373C1323.71,882.124 1329.5,876.238 1336.64,876.238ZM1354.92,777.287L1364.2,787.144C1354.68,814.644 1366.27,836.244 1374.08,849.546C1390.73,877.875 1424.11,876.521 1424.11,876.521C1427.97,876.368 1431.23,879.378 1431.38,883.239C1431.54,887.099 1428.53,890.357 1424.66,890.51C1424.66,890.51 1382.87,892.138 1362.01,856.639C1352.61,840.639 1339.29,814.418 1351.47,781.142C1352.11,779.396 1353.38,778.057 1354.92,777.287Z" style="fill:rgb(102,140,218);"/>
    </g>
    <g transform="matrix(1,0,0,1,101.67,-0.981618)">
        <path d="M1219.92,539.453C1219.92,539.453 1284.82,512.652 1413.68,558.064L1402.86,572.113L1219.92,539.453Z"/>
        <g>
            <path d="M1466.38,295.614C1467.04,294.81 1448.93,468.941 1448.93,468.941L1214.25,486.961L1225.25,316.677C1225.25,316.677 1465.72,296.418 1466.38,295.614Z" style="fill:white;"/>
            <path d="M1446.2,466.142L1463.39,295.313C1463.56,293.666 1465.03,292.463 1466.68,292.629C1468.33,292.795 1469.53,294.267 1469.37,295.914L1451.91,469.242C1451.77,470.687 1450.61,471.821 1449.16,471.932L1214.57,489.952C1212.92,490.079 1211.47,488.842 1211.35,487.191C1211.22,485.54 1212.46,484.097 1214.11,483.97L1446.2,466.142Z" style="fill:rgb(105,186,201);"/>
            <path d="M1228.1,319.151L1225.5,359.641L1217.33,487.153C1217.23,488.805 1215.8,490.061 1214.15,489.955C1212.49,489.849 1211.24,488.422 1211.34,486.769L1219.51,359.258L1222.28,316.191C1222.37,314.71 1223.53,313.521 1225.01,313.394L1466.12,292.625C1467.77,292.483 1469.23,293.707 1469.37,295.356C1469.51,297.006 1468.29,298.461 1466.64,298.603L1228.1,319.151Z" style="fill:rgb(105,186,201);"/>
            <path d="M1583.26,409.245L1419.92,309.493L1358.18,421.984L1517.3,509.23L1583.26,409.245Z" style="fill:white;"/>
            <path d="M1515.91,504.023L1580.77,407.571C1581.69,406.197 1583.56,405.831 1584.93,406.755C1586.31,407.679 1586.67,409.545 1585.75,410.919L1519.36,509.636C1518.5,510.92 1516.8,511.337 1515.44,510.598L1356.57,424.309C1355.12,423.519 1354.58,421.696 1355.37,420.241C1356.16,418.786 1357.98,418.247 1359.44,419.037L1515.91,504.023Z" style="fill:rgb(105,186,201);"/>
            <path d="M1421.04,313.688L1360.63,423.123C1359.83,424.573 1358,425.1 1356.56,424.3C1355.11,423.5 1354.58,421.673 1355.38,420.224L1417.3,308.044C1417.69,307.327 1418.36,306.803 1419.15,306.594C1419.95,306.384 1420.79,306.507 1421.49,306.933L1584.82,406.684C1586.23,407.547 1586.68,409.395 1585.82,410.808C1584.95,412.221 1583.11,412.668 1581.69,411.805L1421.04,313.688Z" style="fill:rgb(105,186,201);"/>
            <path d="M1077.11,434.174L1261.82,338.355L1335.2,468.757L1141.89,566.532L1077.11,434.174Z" style="fill:white;"/>
            <g transform="matrix(0.974493,-0.421185,0.369081,0.853939,-143.413,518.63)">
                <path d="M1293.62,580.638L1279.6,421.732C1279.44,419.961 1280.58,418.379 1282.13,418.2C1283.68,418.022 1285.07,419.315 1285.22,421.086L1299.54,583.364C1299.62,584.243 1299.38,585.119 1298.87,585.789C1298.37,586.459 1297.64,586.863 1296.87,586.908L1091.01,598.806C1089.45,598.896 1088.12,597.526 1088.04,595.749C1087.96,593.971 1089.16,592.455 1090.72,592.365L1293.62,580.638Z" style="fill:rgb(105,186,201);"/>
            </g>
            <g transform="matrix(0.974493,-0.421185,0.369081,0.853939,-143.413,518.63)">
                <path d="M1089.79,440.178L1093.69,595.493C1093.74,597.272 1092.51,598.758 1090.95,598.809C1089.39,598.86 1088.09,597.457 1088.04,595.678L1084.06,437.272C1084.02,435.544 1085.18,434.085 1086.69,433.963L1282.21,418.192C1283.77,418.067 1285.12,419.406 1285.23,421.181C1285.34,422.957 1284.17,424.5 1282.61,424.626L1089.79,440.178Z" style="fill:rgb(105,186,201);"/>
            </g>
            <g transform="matrix(1.07523,0.624741,-0.502385,0.864644,203.509,-874.864)">
                <rect x="1387.49" y="540.235" width="16.775" height="133.824" style="fill:rgb(105,186,201);"/>
            </g>
            <g transform="matrix(1.09308,-0.555853,0.45328,0.891368,-534.108,815.134)">
                <rect x="1387.49" y="540.235" width="16.775" height="133.824" style="fill:rgb(105,186,201);"/>
            </g>
            <g transform="matrix(1.15864,-0.00809724,0.00698839,0.999976,-289.147,-49.6078)">
                <rect x="1387.49" y="540.235" width="16.775" height="133.824" style="fill:rgb(105,186,201);"/>
            </g>
        </g>
        <g>
            <path d="M1408.97,564.828L1219.92,539.453C1219.92,539.453 1099.67,609.649 1116.12,696.235C1130.78,773.425 1232.27,789.678 1232.27,789.678L1408.97,564.828Z" style="fill:rgb(55,104,190);"/>
            <g transform="matrix(0.973519,0,0,0.925796,30.3854,41.5189)">
                <path d="M1145.23,553.85C1145.92,557.591 1148.82,559.895 1152.68,561.018C1157.33,562.37 1163.39,562.02 1166.56,561.749C1185.4,560.136 1224.42,542.934 1224.42,542.934C1225.62,542.403 1226.18,540.945 1225.68,539.681C1225.17,538.417 1223.79,537.823 1222.59,538.354C1222.59,538.354 1184.55,555.223 1166.17,556.797C1163.39,557.036 1158.04,557.421 1153.94,556.229C1151.97,555.656 1150.22,554.813 1149.87,552.904C1149.62,551.558 1148.38,550.677 1147.1,550.938C1145.82,551.199 1144.98,552.504 1145.23,553.85Z" style="fill:rgb(55,104,190);"/>
            </g>
            <g transform="matrix(0.973519,0,0,0.925796,30.3854,41.5189)">
                <path d="M1223.8,538.179C1204.54,535.613 1182.75,533.513 1163.57,538.472C1160.39,539.294 1154.19,541.139 1150.03,544.135C1146.56,546.636 1144.51,549.953 1145.23,553.85C1145.48,555.196 1146.72,556.077 1148,555.816C1149.28,555.555 1150.12,554.25 1149.87,552.904C1149.51,550.932 1150.95,549.499 1152.7,548.234C1156.38,545.585 1161.89,544.023 1164.7,543.297C1183.33,538.48 1204.5,540.616 1223.2,543.109C1224.5,543.281 1225.68,542.317 1225.85,540.957C1226.01,539.596 1225.09,538.352 1223.8,538.179Z" style="fill:rgb(55,104,190);"/>
            </g>
            <g transform="matrix(0.979725,0,0,0.988251,22.1407,7.31442)">
                <path d="M1221.11,539.253C1221.21,539.111 1221.34,538.978 1221.48,538.859C1222.46,538.027 1223.95,538.146 1224.79,539.125C1225.32,539.742 1225.82,540.82 1224.86,542.118C1224.72,542.318 1224.41,542.636 1223.96,542.969C1223.11,543.599 1221.4,544.595 1220.99,544.836C1217.26,547.062 1213.5,549.231 1209.72,551.377C1199.54,557.16 1189.38,562.995 1179.28,568.927C1149.97,586.145 1120.49,603.785 1093.43,624.425C1092.4,625.208 1090.92,625.017 1090.13,623.999C1089.34,622.981 1089.54,621.518 1090.56,620.735C1117.78,599.982 1147.41,582.236 1176.88,564.922C1187,558.979 1197.18,553.132 1207.39,547.338C1211.13,545.209 1214.87,543.057 1218.57,540.848C1218.89,540.66 1220.58,539.587 1221.11,539.253ZM1220.68,541.005C1220.74,541.437 1220.93,541.812 1221.21,542.139C1220.92,541.804 1220.75,541.41 1220.68,541.005Z" style="fill:rgb(55,104,190);"/>
            </g>
            <g transform="matrix(0.990401,0,0,0.993018,10.2594,4.57292)">
                <path d="M1222.31,539.61C1213.66,544.392 1205.09,551.72 1196.75,557.408C1173.6,573.2 1151.15,589.792 1128.97,606.912C1108.66,622.586 1086.27,636.034 1067.2,653.25C1066.25,654.108 1066.17,655.574 1067.04,656.521C1067.89,657.469 1069.37,657.542 1070.32,656.684C1089.3,639.548 1111.6,626.177 1131.81,610.575C1153.92,593.511 1176.3,576.972 1199.38,561.232C1207.6,555.623 1216.04,548.376 1224.56,543.661C1225.68,543.041 1226.09,541.63 1225.47,540.512C1224.84,539.395 1223.43,538.99 1222.31,539.61Z" style="fill:rgb(55,104,190);"/>
            </g>
            <g transform="matrix(1.32394,0,0,1.26422,-352.876,-162.478)">
                <ellipse cx="1089.93" cy="621.63" rx="4.202" ry="4.382" style="fill:rgb(55,104,190);"/>
            </g>
            <g transform="matrix(1.32394,0,0,1.26422,-374.885,-130.847)">
                <ellipse cx="1089.93" cy="621.63" rx="4.202" ry="4.382" style="fill:rgb(55,104,190);"/>
            </g>
            <path d="M1226.58,550.613C1226.41,550.979 1225.9,552.047 1225.84,552.166C1224.45,554.793 1223.22,557.512 1222.07,560.25C1218.88,567.875 1216.14,576.147 1216.61,584.519C1216.68,585.925 1216.81,587.626 1217.2,589.23C1217.51,590.516 1217.97,591.758 1218.87,592.577C1219.81,593.432 1219.88,594.888 1219.02,595.826C1218.17,596.764 1216.71,596.832 1215.77,595.977C1212.91,593.372 1212.21,588.36 1212.01,584.777C1211.51,575.709 1214.37,566.728 1217.83,558.47C1219.03,555.607 1220.32,552.765 1221.77,550.019C1221.84,549.887 1222.17,549.08 1222.48,548.496C1222.76,547.972 1223.08,547.562 1223.29,547.357C1223.83,546.84 1224.4,546.697 1224.83,546.67C1226.09,546.587 1227.19,547.549 1227.27,548.816C1227.32,549.514 1227.05,550.16 1226.58,550.613Z" style="fill:white;"/>
            <path d="M1219.11,592.75C1219.2,592.686 1219.39,592.553 1219.5,592.442C1219.7,592.245 1219.89,592.011 1220.07,591.754C1221.86,589.241 1223.06,584.865 1223.37,583.642C1226.36,571.993 1225.62,559.283 1223.66,547.524C1223.45,546.272 1224.3,545.086 1225.55,544.877C1226.81,544.668 1227.99,545.515 1228.2,546.768C1230.26,559.146 1230.97,572.525 1227.82,584.787C1227.38,586.537 1225.26,593.467 1222.45,595.985C1221.48,596.857 1220.4,597.324 1219.32,597.378C1218.2,597.432 1216.99,597.082 1215.77,595.977C1214.83,595.121 1214.77,593.666 1215.62,592.727C1216.48,591.789 1217.93,591.722 1218.87,592.577C1218.94,592.639 1219.04,592.709 1219.11,592.75Z" style="fill:white;"/>
        </g>
    </g>
    <g id="SHIRT" transform="matrix(1,0,0,1,101.67,-0.981618)">
        <path d="M1234.82,642.602L1281.49,784.086L1337.8,765.674L1388.3,819.233L1412.45,800.816L1445.45,839.843L1567.46,728.602C1567.46,728.602 1518.4,650.867 1483.73,595.92C1464.51,565.463 1425.66,554.013 1393,569.177C1329.21,598.785 1234.82,642.602 1234.82,642.602Z" style="fill:rgb(255,210,116);"/>
        <path d="M1476.56,684.265C1474.94,686.064 1473.32,687.879 1471.44,689.399C1464.9,694.697 1458.4,700.094 1451.35,704.686C1426.17,721.088 1404.08,733.248 1377.57,746.271C1364.91,752.493 1352.06,758.344 1339.28,764.32C1338.78,764.553 1337.79,765.219 1337.79,765.219L1343.66,772.397C1343.66,772.397 1344.93,771.804 1345.56,771.508C1358.37,765.496 1371.24,759.59 1383.93,753.312C1410.77,740.031 1433.09,727.601 1458.5,710.779C1467.66,704.712 1477.64,698.786 1483.88,689.738C1487.23,684.89 1480.11,679.511 1476.56,684.265Z" style="fill:rgb(230,75,77);"/>
        <path d="M1489.56,637.072C1489.56,637.072 1503.61,712.243 1414.56,798.589C1413.96,799.17 1412.75,800.333 1412.75,800.333L1418.41,807.569C1418.41,807.569 1419.82,806.216 1420.52,805.541C1514.24,714.652 1495.92,630.333 1495.92,630.333C1495.4,627.864 1492.97,626.285 1490.5,626.809C1488.03,627.333 1489.04,634.603 1489.56,637.072Z" style="fill:rgb(230,75,77);"/>
        <path d="M1486.45,600.061C1486.45,600.061 1497.82,665.332 1454.96,714.301C1433.04,739.348 1397.54,760.934 1337.8,765.674L1356.52,786.657C1356.52,786.657 1522.81,757.46 1493.39,609.325C1492,602.29 1489.48,601.104 1486.45,600.061Z" style="fill:rgb(55,104,190);"/>
    </g>
    <g id="FIST-ARM" serif:id="FIST ARM" transform="matrix(1,0,0,1,101.67,-0.981618)">
        <path d="M1445.31,839.72C1445.31,839.72 1469.86,865.415 1493.51,890.169C1519.83,917.705 1559.77,927.377 1595.77,914.927C1595.77,914.927 1595.77,914.926 1595.77,914.926C1643.17,898.532 1678.26,858.147 1687.87,808.924C1710.02,696.449 1730.26,589.25 1744.07,470.154C1744.56,465.891 1742.2,461.808 1738.26,460.106C1734.03,458.309 1728.56,458.04 1724.47,465.134C1724.47,465.134 1714.94,443.993 1699.8,456.642C1699.8,456.642 1688.65,438.279 1674.7,451.92C1674.7,451.92 1659.13,431.693 1647.69,456.615C1647.69,456.615 1623.91,447.1 1614.95,494.787L1566.91,728.316L1445.31,839.72Z" style="fill:rgb(166,43,42);"/>
        <g transform="matrix(0.898806,0,0,1.06327,65.2619,-52.3704)">
            <path d="M1641.72,841.011L1670.89,733.984L1662.31,740.825L1634.39,839.83C1634.01,841.54 1635.34,843.193 1637.36,843.519C1639.38,843.845 1641.34,842.721 1641.72,841.011Z"/>
        </g>
        <path d="M1666.66,510.224C1666.15,510.616 1667.77,513.062 1667.94,513.411C1669.65,516.888 1671.32,520.393 1672.95,523.908C1674.33,526.887 1675.61,529.914 1676.73,532.999C1677.55,535.227 1678.3,537.478 1679.01,539.743C1679.63,541.73 1680.19,543.735 1680.68,545.757C1682.17,551.877 1684.66,566.438 1676.07,569.304C1673.23,570.25 1671.08,568.119 1670.37,565.52C1669.24,561.394 1670.94,556.919 1673.22,553.498C1679.2,544.527 1691.29,540.555 1701.57,540.035" style="fill:none;stroke:black;stroke-width:6px;"/>
        <path d="M1647.69,456.651C1647.69,456.651 1665.48,466.416 1676.78,478.34C1679.43,481.193 1680.24,485.332 1678.85,489C1677.46,492.669 1674.11,495.234 1670.21,495.619C1669.22,495.696 1668.1,495.781 1666.91,495.854C1660.46,496.257 1648.36,494.84 1635.53,492.86C1633.9,492.607 1632.36,493.731 1632.11,495.367C1631.86,497.003 1632.98,498.537 1634.62,498.79C1647.97,500.851 1660.58,502.262 1667.29,501.843C1668.51,501.767 1669.65,501.68 1670.74,501.595C1670.76,501.594 1670.78,501.592 1670.8,501.59C1676.97,500.981 1682.27,496.926 1684.46,491.125C1686.66,485.324 1685.38,478.779 1681.15,474.235C1672.43,465.025 1657.76,456.784 1650.64,453.066C1650.31,452.895 1649.87,452.604 1649.87,452.604C1648.96,453.978 1647.69,456.651 1647.69,456.651Z" style="fill:rgb(222,115,90);"/>
        <path d="M1642.37,497.967C1642.37,497.967 1641.08,505.436 1642.65,512.036C1643.87,517.151 1646.75,521.66 1652.37,523.004C1655.32,523.709 1665.68,524.918 1670.54,500.246C1670.86,498.621 1669.8,497.043 1668.18,496.723C1666.56,496.403 1664.98,497.462 1664.66,499.087C1663.11,506.929 1661.11,511.635 1659.02,514.386C1656.83,517.274 1654.75,517.404 1653.77,517.168C1650.55,516.399 1649.19,513.574 1648.49,510.645C1647.19,505.181 1648.28,498.995 1648.28,498.995C1648.56,497.364 1647.47,495.809 1645.83,495.526C1644.2,495.242 1642.65,496.336 1642.37,497.967Z" style="fill:rgb(222,115,90);"/>
        <path d="M1676.51,469.942C1677.18,464.275 1677.79,457.986 1678.32,451.007C1678.37,450.466 1678.26,449.947 1678.04,449.489C1678.01,449.424 1678,449.259 1677.94,449.296C1676.56,450.112 1674.71,451.916 1674.71,451.916C1674.72,451.881 1672.61,449.531 1672.58,449.606C1672.45,449.905 1672.37,450.212 1672.34,450.553C1671.82,457.438 1671.22,463.642 1670.55,469.233C1670.36,470.878 1671.53,472.371 1673.18,472.567C1674.82,472.762 1676.31,471.586 1676.51,469.942Z" style="fill:rgb(222,115,90);"/>
        <path d="M1667.27,498.809C1666.9,506.867 1667.31,514.006 1669,518.692C1670.49,522.82 1673,525.294 1676.36,525.926C1678.25,526.284 1681.18,526.975 1684.55,525.457C1687.59,524.083 1691.24,520.748 1694.5,512.56C1698.32,502.985 1701.93,486.111 1704.09,456.603C1704.16,455.706 1704.09,453.904 1704.09,453.904C1702.73,454.371 1701.3,455.406 1699.84,456.599C1699.33,455.813 1698.8,455.099 1698.22,454.496C1698.22,454.496 1698.13,455.915 1698.11,456.165C1696.02,484.723 1692.62,501.071 1688.93,510.338C1686.56,516.285 1684.29,518.99 1682.08,519.988C1680.19,520.842 1678.53,520.231 1677.47,520.03C1676.03,519.76 1675.28,518.416 1674.64,516.655C1673.15,512.516 1672.94,506.198 1673.26,499.081C1673.34,497.427 1672.06,496.023 1670.4,495.948C1668.75,495.873 1667.34,497.155 1667.27,498.809Z" style="fill:rgb(222,115,90);"/>
        <path d="M1704.52,529.633C1698.33,529.279 1694.71,523.878 1693.53,515.46C1691.26,499.256 1697.44,471.238 1697.52,464.634C1697.54,462.979 1698.9,461.652 1700.56,461.672C1702.22,461.693 1703.54,463.054 1703.52,464.71C1703.44,471.197 1697.24,498.709 1699.47,514.627C1699.8,517.014 1700.32,519.111 1701.15,520.757C1702.03,522.501 1703.27,523.655 1705.19,523.652C1705.66,523.652 1706.12,523.762 1706.54,523.975C1706.63,523.967 1708.69,523.748 1710.7,520.654C1714.83,514.292 1719.67,495.108 1721.72,461.292C1721.73,461.089 1721.79,460.616 1721.79,460.616C1722.71,461.797 1723.58,463.304 1724.49,465.136C1725.42,463.513 1726.45,462.034 1727.83,461.079C1727.83,461.079 1727.79,461.709 1727.77,462.023C1725.6,497.465 1720.07,517.238 1715.73,523.923C1712.9,528.275 1710.09,529.528 1708.14,529.885C1706.54,530.178 1705.29,529.909 1704.52,529.633Z" style="fill:rgb(222,115,90);"/>
        <path d="M1726.79,530.545C1724.73,530.159 1723,528.874 1721.7,526.68C1720.23,524.208 1719.3,520.304 1718.89,515.528C1717.79,502.706 1720.16,482.98 1721.13,471.289C1721.4,467.97 1727.39,467.792 1727.11,471.157C1726.13,482.801 1723.78,502.313 1724.87,515.014C1725.14,518.154 1725.6,520.836 1726.43,522.768C1726.85,523.745 1727.19,524.575 1727.99,524.662C1728.32,524.698 1728.63,524.786 1728.93,524.925C1729.01,524.915 1729.45,524.852 1729.86,524.583C1730.66,524.063 1731.52,523.105 1732.47,521.529C1735.02,517.304 1740.85,496.103 1740.85,496.103C1740.79,498.631 1737.48,522.898 1737,525.262C1736.69,526.797 1735.62,527.468 1734.86,528.214C1732.64,530.391 1730.63,530.869 1729.24,530.925C1728.16,530.969 1727.32,530.748 1726.79,530.545Z" style="fill:rgb(222,115,90);"/>
    </g>
    <g id="ARM-BACK" serif:id="ARM BACK" transform="matrix(1,0,0,1,101.67,-0.981618)">
        <path d="M802.485,837.96L1234.82,642.602L1281.49,784.086C1281.49,784.086 990.553,906.396 878.117,923.254C878.117,923.254 750.937,932.282 652.408,901.656C652.408,901.656 639.619,896.168 647.165,889.843C647.165,889.843 657.082,882.604 667.128,881.221C667.128,881.221 648.167,871.083 640.791,862.467C639.979,861.41 639.884,859.968 640.55,858.814C642.257,855.917 647.099,851.581 660.504,854.793C660.504,854.793 651.934,848.759 647.331,840.692C646.864,839.847 646.859,838.823 647.319,837.974C649.109,834.65 656.63,828.373 687.913,839.202C687.913,839.202 677.856,829.971 674.219,820.197C673.549,818.389 673.845,816.364 675.003,814.823C676.162,813.282 678.025,812.436 679.947,812.578C689.19,814.495 708.145,820.069 738.961,836.702C738.961,836.702 731.445,810.78 762.28,817.655C762.28,817.655 778.248,822.653 802.485,837.96Z" style="fill:rgb(166,43,42);"/>
        <path d="M738.187,829.412C738.094,831.796 738.286,834.205 738.819,836.642C738.819,836.642 739.271,836.858 739.505,836.967C746.769,840.33 759.241,843.621 777.641,840.411C784.19,839.269 793.022,838.355 801.281,837.988C801.717,837.969 802.582,837.934 802.582,837.934L793.511,832.548C793.511,832.548 792.63,832.645 792.225,832.675C786.57,833.103 781.114,833.715 776.61,834.5C756.52,838.005 744.365,833.065 739.022,829.922C738.722,829.746 738.187,829.412 738.187,829.412Z" style="fill:rgb(222,115,90);"/>
        <g transform="matrix(1,0,0,1,0.180662,-1.38626)">
            <path d="M687.672,840.613L676.744,837.205C676.744,837.205 677.525,838.225 677.974,838.779C684.705,847.093 700.387,862.015 734.235,877.466C735.742,878.153 737.523,877.489 738.21,875.982C738.898,874.476 738.233,872.695 736.727,872.007C711.817,860.637 697.221,849.7 688.926,841.774C688.266,841.144 687.672,840.613 687.672,840.613Z" style="fill:rgb(222,115,90);"/>
        </g>
        <path d="M660.347,854.734C656.759,853.876 652.92,853.147 649.241,853.802L649.889,854.333C649.889,854.333 686.234,883.767 724.857,896.377C726.431,896.891 728.126,896.032 728.641,894.458C729.156,892.884 728.296,891.189 726.722,890.674C697.06,880.972 661.227,855.378 661.227,855.378L660.347,854.734Z" style="fill:rgb(222,115,90);"/>
        <path d="M667.248,881.162C664.495,881.706 661.576,882.421 658.878,883.46C658.878,883.46 659.199,883.639 659.372,883.735C668.373,888.743 699.862,905.737 734.376,918.243C734.991,918.466 736.222,918.907 736.222,918.907L765.718,921.99C765.718,921.99 764.415,921.387 763.906,921.257C725.602,911.499 684.456,890.521 667.642,881.436C667.444,881.33 667.248,881.162 667.248,881.162Z" style="fill:rgb(222,115,90);"/>
    </g>
    <g id="HEAD" transform="matrix(1,0,0,1,101.67,-0.981618)">
        <path d="M1413.83,544.028C1413.83,544.028 1413.95,526.616 1414.07,509.097C1414.22,486.807 1432.12,468.703 1454.4,468.289C1479.04,467.901 1507.53,473.421 1516.43,498.942C1516.47,500.74 1503.56,506.857 1478.01,496.14C1478.01,496.14 1475.88,509.513 1455.6,520.321C1455.6,520.321 1451.28,510.697 1439.81,517.152C1436.21,519.177 1434.21,524.09 1438.4,533.729C1438.4,533.729 1437.56,539.134 1413.83,544.028Z"/>
        <g transform="matrix(1,0,0,1,0.106981,-0.053911)">
            <path d="M1413.53,564.184L1414.15,543.508C1414.15,543.508 1431.42,540.665 1438.53,534.378C1438.53,534.378 1431.47,520.799 1440.81,515.89C1445.76,513.29 1453.08,514.716 1455.54,520.213C1455.54,520.213 1476.61,508.025 1477.54,495.783C1477.77,496.915 1507.39,505.825 1516.34,499.215C1515.12,522.214 1515.28,560.495 1503.46,571.648C1498.76,576.09 1493.09,577.868 1485.22,577.932L1485.69,599.818C1485.69,599.818 1462.59,557.003 1413.53,564.184Z" style="fill:rgb(166,43,42);"/>
        </g>
        <path d="M1485.22,577.932C1485.22,577.932 1468.02,571.996 1457.37,563.985C1457.06,563.7 1456.58,563.696 1456.26,563.976C1455.94,564.256 1455.88,564.731 1456.13,565.078C1464.13,576.01 1475.13,584.465 1485.64,593.346L1485.22,577.932Z"/>
        <g transform="matrix(1,0,0,1,-0.892104,0.625122)">
            <path d="M1432.69,531.337C1432.69,531.337 1437.15,538.835 1440.41,541.815C1441.35,542.671 1442.81,542.605 1443.66,541.668C1444.52,540.73 1444.45,539.274 1443.52,538.418C1440.59,535.751 1436.65,529 1436.65,529C1436.01,527.906 1434.59,527.542 1433.5,528.187C1432.41,528.832 1432.04,530.244 1432.69,531.337Z"/>
        </g>
        <path d="M1493.87,539.989C1491.37,540.089 1488.19,541.541 1487.31,544.524C1486.78,546.323 1487.02,548.855 1489.28,552.142C1490.11,553.339 1491.6,554.951 1493.37,555.959C1494.75,556.744 1496.28,557.163 1497.82,556.957C1499.46,556.739 1501.18,555.84 1502.69,553.652C1503.32,552.744 1503.09,551.497 1502.19,550.869C1501.28,550.241 1500.03,550.468 1499.4,551.375C1498.72,552.364 1498.03,552.894 1497.3,552.993C1496.4,553.112 1495.55,552.662 1494.8,552.128C1493.84,551.45 1493.05,550.561 1492.58,549.874C1491.3,548.012 1490.85,546.671 1491.15,545.652C1491.51,544.408 1492.98,544.028 1494.03,543.986C1495.13,543.942 1495.99,543.01 1495.94,541.907C1495.9,540.804 1494.97,539.945 1493.87,539.989Z" style="fill:rgb(222,115,90);"/>
        <path d="M1502.69,553.652C1503.46,552.541 1503.93,550.787 1503.82,548.865C1503.68,546.352 1502.57,543.58 1500.24,541.81C1498.7,540.641 1496.62,539.879 1493.87,539.989C1492.76,540.033 1491.9,540.965 1491.95,542.068C1491.99,543.171 1492.92,544.03 1494.03,543.986C1495.66,543.92 1496.91,544.303 1497.82,544.996C1499.17,546.017 1499.75,547.644 1499.83,549.093C1499.88,550 1499.77,550.851 1499.4,551.375C1498.78,552.283 1499,553.53 1499.91,554.158C1500.82,554.786 1502.07,554.559 1502.69,553.652Z" style="fill:rgb(222,115,90);"/>
    </g>
</svg>
