<?xml version="1.0" encoding="UTF-8" standalone="no"?>
<!DOCTYPE svg PUBLIC "-//W3C//DTD SVG 1.1//EN" "http://www.w3.org/Graphics/SVG/1.1/DTD/svg11.dtd">
<svg width="100%" height="100%" viewBox="0 0 2732 2048" version="1.1" xmlns="http://www.w3.org/2000/svg" xmlns:xlink="http://www.w3.org/1999/xlink" xml:space="preserve" xmlns:serif="http://www.serif.com/" style="fill-rule:evenodd;clip-rule:evenodd;stroke-linecap:round;stroke-linejoin:round;stroke-miterlimit:2.28659;">
    <path id="FLAG-HANDLE" serif:id="FLAG HANDLE" d="M1715.12,815.167L1678.35,993.91" style="fill:none;stroke:rgb(255,211,117);stroke-width:19.51px;"/>
    <g id="Bird">
        <path d="M1260.1,471.479C1276.36,495.044 1303.07,540.261 1300.14,604.569C1298.36,643.808 1281.8,690.049 1255.97,743.123C1255.97,743.123 1203.95,815.249 1241.78,934.584L1053.83,889.931C1053.83,889.931 1006.07,1024.28 1052.77,1092.36L1257.71,1104.56C1257.71,1104.56 1234.17,1178.15 1284.18,1254.26C1284.18,1254.26 1369.07,1399.05 1289.24,1495.95C1289.24,1495.95 1561.32,1376.26 1552.96,1094.94C1552.96,1094.94 1660.47,1029.79 1669.34,949.531L1708.34,928.833C1708.34,928.833 1676.6,920.881 1670.44,919.316C1664.27,917.751 1648.92,853.54 1530.55,888.015C1530.55,888.015 1537.47,700.025 1463.76,593.18C1463.76,593.18 1396.36,470.619 1260.1,471.479Z" style="fill:white;"/>
        <g>
            <g id="BIRD">
                <path d="M1357.75,1441.08C1359.72,1440.65 1361.06,1438.83 1360.88,1436.83C1360.71,1434.83 1359.08,1433.26 1357.07,1433.17L1315.94,1431.4C1314.06,1431.32 1321.74,1435.8 1321.26,1437.62C1320.79,1439.44 1312.28,1438.12 1313.96,1438.97C1321.98,1443.03 1333.05,1443.64 1342.14,1443.1C1350.91,1442.59 1357.75,1441.08 1357.75,1441.08ZM1379.78,1385.81C1381.88,1385.59 1383.45,1383.79 1383.37,1381.68C1383.29,1379.57 1381.59,1377.89 1379.48,1377.83L1323.38,1376.32C1321.42,1376.27 1319.72,1377.64 1319.34,1379.56C1318.97,1381.48 1320.05,1383.39 1321.88,1384.07C1329.93,1387.05 1344.57,1387.56 1357.21,1387.21C1369.47,1386.87 1379.78,1385.81 1379.78,1385.81ZM1387.57,1361.77C1389.52,1361.25 1390.78,1359.35 1390.5,1357.34C1390.21,1355.34 1388.47,1353.86 1386.44,1353.91L1326.37,1355.3C1324.44,1355.34 1322.82,1356.76 1322.51,1358.67C1322.21,1360.58 1323.31,1362.43 1325.14,1363.07C1337.49,1367.42 1353.2,1367.14 1365.82,1365.69C1378.21,1364.27 1387.57,1361.77 1387.57,1361.77ZM1378.33,1340.58C1380.43,1340.27 1381.93,1338.38 1381.74,1336.26C1381.55,1334.15 1379.74,1332.55 1377.62,1332.62L1321.43,1334.5C1319.51,1334.56 1317.91,1335.97 1317.61,1337.86C1317.31,1339.76 1318.39,1341.6 1320.19,1342.25C1326.67,1344.61 1341.44,1344.3 1354.6,1343.22C1367.24,1342.18 1378.33,1340.58 1378.33,1340.58ZM1346.49,1262.82C1348.61,1262.5 1350.1,1260.56 1349.87,1258.43C1349.64,1256.29 1347.77,1254.72 1345.62,1254.87L1294.75,1258.32C1292.72,1258.46 1291.12,1260.09 1291.02,1262.11C1290.92,1264.13 1292.35,1265.91 1294.34,1266.26C1301.02,1267.4 1314.2,1266.57 1325.7,1265.39C1336.91,1264.24 1346.49,1262.82 1346.49,1262.82ZM1325.78,1187.73C1327.9,1187.39 1329.37,1185.44 1329.12,1183.31C1328.87,1181.17 1326.98,1179.62 1324.84,1179.79L1256.15,1185.08C1254.31,1185.22 1252.8,1186.61 1252.51,1188.44C1252.22,1190.27 1253.22,1192.06 1254.93,1192.76C1256.71,1193.5 1259.79,1193.98 1263.76,1194.09C1271.66,1194.29 1283.63,1193.25 1294.99,1191.94C1311.01,1190.09 1325.78,1187.73 1325.78,1187.73ZM1107.55,1064.49C1109.72,1064.55 1111.53,1062.87 1111.65,1060.71C1111.76,1058.55 1110.14,1056.69 1107.98,1056.51L1038.87,1050.77C1036.8,1050.6 1039.29,1053.37 1038.95,1055.43C1038.61,1057.48 1035.54,1058.12 1037.56,1058.63C1046.59,1060.91 1064.18,1062.4 1079.52,1063.3C1094.65,1064.18 1107.55,1064.49 1107.55,1064.49ZM1116.1,1044.4C1118.26,1044.57 1120.17,1042.97 1120.39,1040.81C1120.61,1038.65 1119.06,1036.71 1116.9,1036.44L1037.25,1026.48C1035.21,1026.23 1035.72,1028.14 1035.27,1030.14C1034.81,1032.15 1033.54,1033.59 1035.49,1034.24C1043,1036.76 1063.28,1039.35 1081.69,1041.26C1099.82,1043.14 1116.1,1044.4 1116.1,1044.4ZM1136,1005.86C1138.17,1006.15 1140.18,1004.64 1140.5,1002.47C1140.82,1000.3 1139.32,998.276 1137.15,997.939L1037.73,982.488C1035.72,982.177 1037.41,983.22 1036.87,985.173C1036.32,987.126 1033.72,989.372 1035.6,990.141C1039.15,991.601 1064.45,995.631 1088.87,999.199C1112.87,1002.71 1136,1005.86 1136,1005.86ZM1311.92,870.634C1314.07,870.836 1315.99,869.297 1316.26,867.157C1316.53,865.016 1315.06,863.045 1312.93,862.702L1227.21,848.904C1225.17,848.576 1226.04,850.114 1225.52,852.11C1225,854.106 1223.27,855.907 1225.2,856.612C1236.03,860.55 1257.81,864.099 1276.89,866.622C1295.74,869.114 1311.92,870.634 1311.92,870.634ZM1258.74,745.021C1257.83,744.712 1257.29,744.448 1257.14,744.343C1255.62,743.242 1255.07,741.236 1255.82,739.516C1256.56,737.797 1258.4,736.824 1260.24,737.177L1335.83,752.035C1337.99,752.449 1339.41,754.532 1339.01,756.696C1338.6,758.86 1336.53,760.291 1334.36,759.899C1334.36,759.899 1314.9,756.376 1295.25,752.713C1279.47,749.773 1267.33,747.09 1261.21,745.706C1260.25,745.491 1259.46,745.263 1258.84,745.053L1258.74,745.034L1258.74,745.021ZM1348.77,550.926C1350.93,551.063 1352.81,549.447 1353,547.285C1353.19,545.123 1351.62,543.204 1349.47,542.96C1349.47,542.96 1337.26,541.578 1324.1,540.443C1310.43,539.263 1299.08,537.47 1295.12,538.493C1293.21,538.986 1291.95,540.788 1292.14,542.746C1292.32,544.703 1293.9,546.234 1295.87,546.358L1348.77,550.926ZM1349.88,535.964C1352.06,536.129 1353.97,534.51 1354.17,532.329C1354.36,530.149 1352.77,528.218 1350.59,527.996C1350.59,527.996 1339.76,526.891 1326.79,525.767C1313.74,524.636 1298.54,523.489 1289.92,523.408C1287.77,523.388 1289.29,524.055 1289.19,526.211C1289.1,528.367 1290.74,530.206 1292.89,530.369L1349.88,535.964Z" style="fill:rgb(161,190,239);"/>
                <g transform="matrix(1,0,0,1,-0.710965,-0.709128)">
                    <path d="M1523.26,888.017C1523.26,888.017 1522,907.998 1519.91,917.618C1519.44,919.775 1520.81,921.907 1522.97,922.375C1525.13,922.843 1527.26,921.471 1527.73,919.314C1529.9,909.308 1531.25,888.529 1531.25,888.529C1531.39,886.326 1529.71,884.423 1527.51,884.281C1525.31,884.14 1523.4,885.813 1523.26,888.017Z" style="fill:rgb(161,190,239);"/>
                </g>
                <path d="M1216.48,931.148C1216.48,931.148 1237.82,974.297 1248.51,975.669L1241.43,933.759L1216.48,931.148Z" style="fill:rgb(161,190,239);"/>
                <g transform="matrix(1,0,0,1,1.42361,-0.561334)">
                    <path d="M1257.67,1104.09L1319.95,1108.46" style="fill:none;stroke:rgb(161,190,239);stroke-width:8px;"/>
                </g>
                <path d="M1297.6,1485.86C1354.25,1461.59 1555.46,1356.8 1549.58,1094.88C1549.55,1093.36 1550.38,1091.95 1551.73,1091.25C1551.73,1091.25 1652.97,1038.59 1665.28,949.19C1665.48,947.771 1666.41,946.565 1667.74,946.027C1667.74,946.027 1689.78,937.103 1704.48,931.15C1704.52,931.134 1704.55,931.096 1704.54,931.056C1704.54,931.015 1704.51,930.982 1704.47,930.975C1688.19,927.881 1663.17,923.124 1663.17,923.124C1661.56,922.816 1660.29,921.552 1659.99,919.936C1659.99,919.936 1656.87,904.193 1639.63,892.87C1621.36,880.868 1587.98,874.123 1527.57,893.277C1526.3,893.679 1524.92,893.426 1523.88,892.601C1522.84,891.777 1522.27,890.489 1522.37,889.165C1522.37,889.165 1529.73,791.109 1500.97,690.03C1472.41,589.669 1408.12,486.135 1264.62,474.134C1262.42,473.95 1260.78,472.015 1260.96,469.815C1261.15,467.615 1263.09,465.978 1265.29,466.162C1412.87,478.504 1479.29,584.629 1508.66,687.84C1533.66,775.677 1531.74,861.265 1530.68,883.949C1591.28,865.809 1625.2,873.823 1644.02,886.183C1659.72,896.496 1665.37,910.03 1667.13,915.734L1705.96,923.116C1709.49,923.786 1712.15,926.698 1712.5,930.27C1712.86,933.841 1710.81,937.218 1707.49,938.565L1672.87,952.583C1659.9,1036.26 1572.64,1088.68 1557.62,1097.13C1563.1,1405.97 1285.48,1499.23 1285.48,1499.23C1283.74,1499.82 1281.83,1499.14 1280.84,1497.59C1279.85,1496.04 1280.04,1494.02 1281.31,1492.68C1315.06,1457.17 1322.23,1412.82 1318.82,1372.42C1313.82,1313.28 1286.17,1262.46 1284.23,1258.96C1235.1,1191.97 1248.46,1125.88 1253.64,1107.38L1052.01,1095.93C1050.64,1095.86 1049.41,1095.08 1048.74,1093.88C1033.17,1065.78 1029.91,1027.09 1031.78,990.756C1034.55,936.925 1048.39,888.368 1048.39,888.368C1048.98,886.3 1051.1,885.068 1053.19,885.579L1239.94,931.246C1242.09,931.77 1243.4,933.937 1242.88,936.081C1242.36,938.226 1240.19,939.541 1238.05,939.017L1055.08,894.278C1051.89,906.467 1042.04,947.011 1039.77,991.167C1038.02,1025.16 1040.69,1061.34 1054.7,1088.08L1259.21,1099.68C1260.47,1099.75 1261.63,1100.42 1262.33,1101.48C1263.02,1102.55 1263.17,1103.87 1262.73,1105.06C1262.73,1105.06 1235.48,1179.16 1290.84,1254.44C1290.93,1254.57 1291.02,1254.7 1291.1,1254.84C1291.1,1254.84 1321.46,1308.7 1326.79,1371.75C1330,1409.68 1324.15,1450.88 1297.6,1485.86Z" style="fill:rgb(161,190,239);"/>
                <path d="M1267.9,473.534C1269.18,476.693 1273.5,487.333 1273.77,487.842C1279.53,498.821 1285.15,509.832 1289.97,521.264C1304.53,555.767 1309.73,593.363 1302.11,630.123C1295.1,663.954 1280.89,695.639 1266.92,727.42C1253.19,758.648 1239.68,789.971 1233.82,823.638C1224.63,876.396 1242.02,921.132 1252.86,970.992C1253.33,973.149 1251.96,975.281 1249.8,975.75C1247.64,976.219 1245.51,974.849 1245.04,972.691C1233.98,921.806 1216.56,876.108 1225.94,822.264C1231.91,787.96 1245.61,756.02 1259.6,724.2C1273.35,692.933 1287.38,661.783 1294.27,628.5C1301.56,593.336 1296.53,557.379 1282.6,524.374C1277.87,513.149 1272.35,502.341 1266.69,491.562C1266.33,490.875 1260.45,478.3 1259.68,474.101C1259.07,470.778 1260.92,469.049 1262,468.53C1262.92,468.085 1264.25,467.775 1265.92,468.615C1267.75,469.529 1268.58,471.657 1267.9,473.534ZM1262.83,475.975L1262.86,475.982L1262.8,475.96L1262.83,475.975ZM1262.59,475.884L1262.64,475.903L1262.57,475.871L1262.59,475.884Z" style="fill:rgb(161,190,239);"/>
                <path d="M1554.16,1090.43C1529.75,1100.9 1471.7,1121.53 1416.52,1117.53C1415.44,1117.43 1414.43,1118.05 1414.03,1119.06C1413.64,1120.06 1413.95,1121.2 1414.81,1121.87C1446.39,1136.34 1548.67,1169.34 1550.64,1160.04L1554.16,1090.43Z" style="fill:rgb(161,190,239);"/>
            </g>
            <g transform="matrix(1.12403,0,0,1.12403,-200.161,-121.44)">
                <circle cx="1580.36" cy="981.933" r="9.715" style="fill:rgb(255,120,102);"/>
            </g>
            <g transform="matrix(-0.862938,0.0224103,-0.025961,-0.999663,3022.72,1839.84)">
                <path d="M1595.85,940.631C1595.85,933.47 1598.75,927.079 1603.39,923.143C1606.1,920.847 1609.4,919.423 1613.01,919.423C1616.62,919.423 1619.93,920.847 1622.63,923.143C1627.28,927.079 1630.18,933.47 1630.18,940.631C1630.18,942.838 1632.25,944.631 1634.81,944.631C1637.37,944.631 1639.44,942.838 1639.44,940.631C1639.44,924.238 1627.19,911.423 1613.01,911.423C1598.84,911.423 1586.58,924.238 1586.58,940.631C1586.58,942.838 1588.66,944.631 1591.22,944.631C1593.77,944.631 1595.85,942.838 1595.85,940.631Z"/>
            </g>
        </g>
    </g>
    <g id="FLAG">
        <path d="M1690.41,840.778C1631.15,808.943 1383.29,698.784 865.709,748.949C862.612,749.249 859.586,747.9 857.74,745.396C855.894,742.893 855.499,739.603 856.701,736.734C856.701,736.734 883.283,672.367 967.961,635.508C947.353,624.306 909.274,606.572 874.54,606.44C870.399,606.424 866.823,603.536 865.937,599.49C865.051,595.445 867.092,591.326 870.848,589.581C870.848,589.581 1257.3,409.533 1754.21,651.179C1757.88,652.961 1759.85,657.019 1758.99,661.002L1716.06,859.154C1711.36,854.287 1706.1,850.169 1699.7,846.121L1699.72,846.001C1698.58,845.325 1697.23,844.547 1695.67,843.671C1694,842.688 1692.26,841.701 1690.43,840.7L1690.41,840.778Z" style="fill:rgb(255,211,117);"/>
        <g>
            <path d="M1052.83,599.101L1052.24,583.017C1052.2,581.936 1052.61,580.887 1053.38,580.121C1054.14,579.354 1055.19,578.939 1056.27,578.973C1066.15,579.286 1091.88,580.1 1114.66,580.821C1137.55,581.545 1155.87,600.059 1156.36,622.957C1156.36,622.957 1156.36,622.958 1156.36,622.959C1156.85,646.128 1138.98,665.562 1115.85,667.01C1093.64,668.4 1068.92,669.948 1059.44,670.542C1058.39,670.607 1057.36,670.246 1056.58,669.539C1055.8,668.832 1055.34,667.84 1055.3,666.788L1054.75,651.664L1084.39,650.232C1085.91,650.159 1087.07,648.871 1087,647.359C1086.93,645.846 1085.64,644.677 1084.13,644.75L1054.55,646.179L1054.25,637.992C1054.45,638.029 1054.66,638.044 1054.88,638.033L1088.76,636.397C1090.27,636.324 1091.44,635.036 1091.36,633.524C1091.29,632.011 1090,630.842 1088.49,630.916L1054.61,632.552C1054.42,632.561 1054.23,632.59 1054.05,632.637L1053.54,618.571L1084.39,617.08C1085.91,617.007 1087.07,615.72 1087,614.207C1086.93,612.695 1085.64,611.526 1084.13,611.599L1053.34,613.086L1053.03,604.586L1080.77,603.246C1082.28,603.172 1083.45,601.885 1083.38,600.372C1083.31,598.86 1082.02,597.691 1080.51,597.764L1052.83,599.101Z" style="fill:rgb(239,123,88);"/>
            <path d="M1320.05,616.884C1298.84,610.876 1261.86,595.124 1249.43,556.671C1249.43,556.671 1261.66,553.847 1275.52,558.47C1292.88,564.264 1333.27,582.183 1335.4,618.29C1375.63,622.226 1419.69,628.515 1464.18,638.415C1443.53,630.202 1409.09,610.964 1400.53,572.044C1400.53,572.044 1412.98,570.407 1426.32,576.339C1443.12,583.805 1481.88,605.684 1480.16,642.127C1517.34,651.125 1554.52,662.745 1589.7,677.712C1570.74,666.051 1540.26,641.256 1538.46,601.568C1538.46,601.568 1551,602.076 1563.14,610.195C1578.46,620.44 1613.06,648.715 1604.93,684.458L1605.14,684.558C1614.47,688.872 1623.66,693.444 1632.7,698.32C1639.71,702.1 1646.62,706.059 1653.42,710.21C1655.3,711.356 1657.16,712.517 1659.02,713.693C1659.39,713.928 1659.76,714.163 1660.13,714.399C1660.52,714.646 1660.91,714.884 1661.27,715.169C1661.64,715.458 1661.97,715.784 1662.27,716.14C1662.82,716.789 1663.25,717.538 1663.53,718.34C1663.79,719.107 1663.93,719.921 1663.92,720.734C1663.91,721.445 1663.79,722.154 1663.57,722.83C1663.38,723.418 1663.11,723.98 1662.77,724.498C1662.38,725.085 1661.91,725.614 1661.36,726.06C1660.16,727.046 1658.64,727.609 1657.09,727.649C1656.18,727.672 1655.26,727.515 1654.41,727.188C1653.56,726.861 1652.82,726.34 1652.06,725.853C1651.33,725.39 1650.6,724.929 1649.86,724.471C1647.3,722.863 1644.71,721.283 1642.11,719.732C1633.87,714.822 1625.46,710.192 1616.92,705.818C1591.68,692.885 1565.33,682.203 1538.46,673.184L1538.16,673.087C1538.19,673.138 1538.21,673.191 1538.23,673.244C1538.62,674.289 1538.51,675.455 1537.93,676.409C1509.08,723.242 1444.01,719.389 1444.01,719.389C1451.54,682.72 1495.75,672.117 1514.2,669.531C1518.67,668.904 1522.87,668.95 1526.53,669.309C1488.29,657.269 1449.03,648.495 1411.08,642.135C1411.03,642.536 1410.92,642.93 1410.73,643.3C1386.06,692.457 1320.89,694.257 1320.89,694.257C1325.22,657.072 1368.34,642.678 1386.5,638.504C1386.67,638.464 1386.85,638.426 1387.02,638.388C1353.47,633.555 1321.36,630.524 1292.4,628.675C1292.52,629.417 1292.41,630.186 1292.07,630.875C1267.39,680.031 1202.23,681.831 1202.23,681.831C1206.25,647.342 1243.63,632.46 1263.52,627.152C1201.31,624.562 1159.44,627.248 1159.44,627.248C1159.23,627.261 1159.03,627.265 1158.85,627.258C1161.22,650.396 1133.22,664.016 1133.22,664.016C1126.52,654.78 1130.22,644.419 1136.76,636.078C1142.49,628.763 1150.4,623.001 1155.36,620.916C1148.65,618.398 1121.8,606.661 1126.65,581.692C1131.37,582.16 1141.56,587.037 1149.25,594.327C1154.83,599.618 1159.09,606.179 1158.99,613.25C1165,612.901 1231.69,609.329 1320.05,616.884Z" style="fill:white;"/>
        </g>
    </g>
    <g id="HAND-2" serif:id="HAND 2">
        <path d="M1552.56,1593.79C1552.56,1593.79 1551.96,1415.41 1601.26,1343.43C1601.26,1343.43 1656.35,1265.1 1671.63,1240.36C1671.63,1240.36 1681.04,1217.59 1691.11,1205.92C1693.51,1203.18 1696.93,1201.54 1700.57,1201.39C1704.22,1201.24 1707.76,1202.6 1710.38,1205.14C1720.92,1215.35 1735.68,1241.92 1723.33,1307.83L1838.14,1253.85C1838.14,1253.85 1875.63,1133.6 1907.78,1137.2C1907.78,1137.2 1920.82,1136.34 1917.7,1194.75C1917.7,1194.75 1935.43,1167.58 1951.34,1178.17C1951.34,1178.17 1968.95,1194.21 1953.16,1269.17C1953.16,1269.17 1984.79,1247.85 1988.97,1272.77C1990.02,1279 1988.33,1285.37 1984.35,1290.27C1968.82,1308.93 1917.27,1368.9 1854.8,1419.91L1849.54,1592.21L1552.56,1593.79Z" style="fill:rgb(239,123,88);"/>
        <path d="M1708.33,1370.11C1711.97,1355.37 1714.72,1340.19 1714.38,1338.05C1714.1,1336.39 1715.22,1334.82 1716.87,1334.54C1718.53,1334.26 1720.1,1335.38 1720.38,1337.04C1720.76,1339.19 1718.79,1353.72 1715.6,1368.63L1715.58,1368.71C1719.27,1368.19 1722.98,1367.97 1726.7,1368.01C1737.98,1368.1 1749.33,1370.59 1760.2,1374.44C1762.8,1375.39 1764.13,1378.27 1763.18,1380.86C1762.23,1383.45 1759.36,1384.78 1756.77,1383.84C1746.98,1380.13 1736.74,1377.62 1726.52,1377.32C1722.12,1377.19 1717.73,1377.46 1713.38,1378.22C1711.26,1386.72 1708.86,1394.45 1706.52,1398.99C1703.77,1404.35 1698.37,1410.6 1692.62,1412.37C1688.06,1413.77 1683.14,1412.92 1678.66,1407.41C1674.2,1401.94 1674.53,1396.17 1677.23,1390.87C1680.5,1384.48 1687.85,1378.84 1693.08,1376.02C1698.04,1373.34 1703.14,1371.41 1708.33,1370.11ZM1705.67,1380.12C1702.78,1381.04 1699.92,1382.21 1697.1,1383.66C1693.02,1385.75 1687.14,1389.82 1684.52,1394.69C1683.2,1397.15 1682.85,1399.85 1684.88,1402.46C1685.99,1403.88 1687.07,1404.76 1688.25,1405.04C1689.58,1405.36 1690.9,1404.94 1692.15,1404.23C1695.45,1402.37 1698.31,1398.69 1700,1395.55C1701.9,1392.05 1703.84,1386.46 1705.67,1380.12Z" style="fill:rgb(211,0,0);"/>
        <g transform="matrix(1.00359,0,0,0.966536,-6.62495,40.7586)">
            <path d="M1823.98,1271.63L1826.79,1260.95L1838.26,1255.16L1833.13,1276.13C1832.83,1277.28 1832.15,1278.29 1831.22,1278.98L1765.09,1328.08C1762.85,1329.74 1759.74,1329.2 1758.14,1326.88C1756.54,1324.56 1757.06,1321.32 1759.29,1319.66L1823.98,1271.63Z" style="fill:rgb(211,0,0);"/>
        </g>
        <path d="M1864.62,1291.46C1882.03,1224.97 1903.84,1193.89 1916.75,1180.39C1917.17,1179.95 1918.12,1179.05 1918.12,1179.05L1917.62,1194.69C1917.62,1194.69 1916.87,1195.56 1916.49,1196.06C1904.59,1211.69 1888.12,1241.08 1874.24,1294.2C1874.26,1295.17 1874,1296.15 1873.48,1296.98C1872.84,1298.63 1871.39,1299.79 1869.72,1300.1L1791.77,1354.46C1789.51,1356.04 1786.39,1355.49 1784.81,1353.22C1783.23,1350.96 1783.78,1347.84 1786.05,1346.26L1864.62,1291.46Z" style="fill:rgb(211,0,0);"/>
        <path d="M1955.57,1256.07C1955.57,1256.07 1809.14,1374 1809.08,1374.44C1808.73,1377.18 1806.82,1379.43 1808.65,1381.5C1810.48,1383.57 1813.64,1383.76 1815.71,1381.93C1815.85,1381.34 1953.3,1269.23 1953.3,1269.23" style="fill:rgb(211,0,0);"/>
        <path d="M1854.89,1420.2C1854.89,1420.2 1815.18,1457.33 1792.36,1478.66C1789.74,1481.11 1788.85,1484.9 1790.12,1488.26C1791.38,1491.62 1794.54,1493.89 1798.12,1494.01C1820.55,1494.78 1852.55,1495.87 1852.55,1495.87L1854.89,1420.2Z" style="fill:rgb(211,0,0);"/>
    </g>
    <g id="HAND-1" serif:id="HAND 1" transform="matrix(-1,0,0,1,2746.86,0)">
        <path d="M1552.56,1593.79C1552.56,1593.79 1551.96,1415.41 1601.26,1343.43C1601.26,1343.43 1656.35,1265.1 1671.63,1240.36C1671.63,1240.36 1681.04,1217.59 1691.11,1205.92C1693.51,1203.18 1696.93,1201.54 1700.57,1201.39C1704.22,1201.24 1707.76,1202.6 1710.38,1205.14C1720.92,1215.35 1735.68,1241.92 1723.33,1307.83L1838.14,1253.85C1838.14,1253.85 1875.63,1133.6 1907.78,1137.2C1907.78,1137.2 1920.82,1136.34 1917.7,1194.75C1917.7,1194.75 1935.43,1167.58 1951.34,1178.17C1951.34,1178.17 1968.95,1194.21 1953.16,1269.17C1953.16,1269.17 1984.79,1247.85 1988.97,1272.77C1990.02,1279 1988.33,1285.37 1984.35,1290.27C1968.82,1308.93 1917.27,1368.9 1854.8,1419.91L1849.54,1592.21L1552.56,1593.79Z" style="fill:rgb(239,123,88);"/>
        <path d="M1708.33,1370.11C1711.97,1355.37 1714.72,1340.19 1714.38,1338.05C1714.1,1336.39 1715.22,1334.82 1716.87,1334.54C1718.53,1334.26 1720.1,1335.38 1720.38,1337.04C1720.76,1339.19 1718.79,1353.72 1715.6,1368.63L1715.58,1368.71C1719.27,1368.19 1722.98,1367.97 1726.7,1368.01C1737.98,1368.1 1749.33,1370.59 1760.2,1374.44C1762.8,1375.39 1764.13,1378.27 1763.18,1380.86C1762.23,1383.45 1759.36,1384.78 1756.77,1383.84C1746.98,1380.13 1736.74,1377.62 1726.52,1377.32C1722.12,1377.19 1717.73,1377.46 1713.38,1378.22C1711.26,1386.72 1708.86,1394.45 1706.52,1398.99C1703.77,1404.35 1698.37,1410.6 1692.62,1412.37C1688.06,1413.77 1683.14,1412.92 1678.66,1407.41C1674.2,1401.94 1674.53,1396.17 1677.23,1390.87C1680.5,1384.48 1687.85,1378.84 1693.08,1376.02C1698.04,1373.34 1703.14,1371.41 1708.33,1370.11ZM1705.67,1380.12C1702.78,1381.04 1699.92,1382.21 1697.1,1383.66C1693.02,1385.75 1687.14,1389.82 1684.52,1394.69C1683.2,1397.15 1682.85,1399.85 1684.88,1402.46C1685.99,1403.88 1687.07,1404.76 1688.25,1405.04C1689.58,1405.36 1690.9,1404.94 1692.15,1404.23C1695.45,1402.37 1698.31,1398.69 1700,1395.55C1701.9,1392.05 1703.84,1386.46 1705.67,1380.12Z" style="fill:rgb(211,0,0);"/>
        <g transform="matrix(1.00359,0,0,0.966536,-6.62495,40.7586)">
            <path d="M1823.98,1271.63L1826.79,1260.95L1838.26,1255.16L1833.13,1276.13C1832.83,1277.28 1832.15,1278.29 1831.22,1278.98L1765.09,1328.08C1762.85,1329.74 1759.74,1329.2 1758.14,1326.88C1756.54,1324.56 1757.06,1321.32 1759.29,1319.66L1823.98,1271.63Z" style="fill:rgb(211,0,0);"/>
        </g>
        <path d="M1864.62,1291.46C1882.03,1224.97 1903.84,1193.89 1916.75,1180.39C1917.17,1179.95 1918.12,1179.05 1918.12,1179.05L1917.62,1194.69C1917.62,1194.69 1916.87,1195.56 1916.49,1196.06C1904.59,1211.69 1888.12,1241.08 1874.24,1294.2C1874.26,1295.17 1874,1296.15 1873.48,1296.98C1872.84,1298.63 1871.39,1299.79 1869.72,1300.1L1791.77,1354.46C1789.51,1356.04 1786.39,1355.49 1784.81,1353.22C1783.23,1350.96 1783.78,1347.84 1786.05,1346.26L1864.62,1291.46Z" style="fill:rgb(211,0,0);"/>
        <path d="M1955.57,1256.07C1955.57,1256.07 1809.14,1374 1809.08,1374.44C1808.73,1377.18 1806.82,1379.43 1808.65,1381.5C1810.48,1383.57 1813.64,1383.76 1815.71,1381.93C1815.85,1381.34 1953.3,1269.23 1953.3,1269.23" style="fill:rgb(211,0,0);"/>
        <path d="M1854.89,1420.2C1854.89,1420.2 1815.18,1457.33 1792.36,1478.66C1789.74,1481.11 1788.85,1484.9 1790.12,1488.26C1791.38,1491.62 1794.54,1493.89 1798.12,1494.01C1820.55,1494.78 1852.55,1495.87 1852.55,1495.87L1854.89,1420.2Z" style="fill:rgb(211,0,0);"/>
    </g>
</svg>
