<?xml version="1.0" encoding="UTF-8" standalone="no"?>
<!DOCTYPE svg PUBLIC "-//W3C//DTD SVG 1.1//EN" "http://www.w3.org/Graphics/SVG/1.1/DTD/svg11.dtd">
<svg width="100%" height="100%" viewBox="0 0 2732 2048" version="1.1" xmlns="http://www.w3.org/2000/svg" xmlns:xlink="http://www.w3.org/1999/xlink" xml:space="preserve" xmlns:serif="http://www.serif.com/" style="fill-rule:evenodd;clip-rule:evenodd;stroke-linejoin:round;stroke-miterlimit:2;">
    <g id="BACKGROUND">
        <path d="M1565,1359.56L2181.25,1359.56C2181.25,1359.56 2180.21,1333.64 2147.3,1314.41C2131.07,1304.95 2112.45,1300.38 2093.69,1301.25C2084.91,1301.66 2073.02,1301.63 2059.94,1300C2034.46,1296.79 2012,1281.7 1999.41,1259.32C1984.37,1232.78 1953.31,1195.8 1897.87,1198.85C1874.91,1200.11 1844.46,1210.35 1778.18,1285.21C1778.18,1285.21 1734.59,1328.78 1662.93,1314.87C1662.93,1314.87 1584.63,1308.12 1565,1359.56Z" style="fill:rgb(159,193,234);"/>
        <path d="M724.061,1377.93L1284.29,1377.93C1284.29,1377.93 1261.42,1330.6 1223.26,1332.83C1189.9,1334.79 1165.89,1345.67 1136.39,1335.56C1109.92,1326.5 1052.01,1225.86 980.707,1232.96C956.385,1235.38 916.978,1240.44 886.524,1281.65C869.978,1304.03 852.662,1329.76 803.68,1317.47C758.652,1306.18 727.5,1327.92 724.061,1377.93Z" style="fill:rgb(159,193,234);"/>
    </g>
    <g id="DOG">
        <g>
            <g transform="matrix(0.923468,0,0,0.950115,120.917,58.8667)">
                <path d="M1568.82,1180.04L1624.49,1443.32C1624.49,1443.32 1586,1443.32 1587.68,1490.32L1695.37,1490.32L1684.05,1224.43C1684.05,1224.43 1635.71,1203 1626.33,1180.04L1568.82,1180.04Z" style="fill:rgb(251,114,95);"/>
            </g>
            <path d="M1604.67,1474.44L1604.67,1457.97C1604.67,1456.31 1606.01,1454.97 1607.67,1454.97C1609.33,1454.97 1610.67,1456.31 1610.67,1457.97L1610.67,1474.44L1604.67,1474.44ZM1630.15,1474.44L1630.15,1457.97C1630.15,1456.31 1631.5,1454.97 1633.15,1454.97C1634.81,1454.97 1636.15,1456.31 1636.15,1457.97L1636.15,1474.44L1630.15,1474.44Z" style="fill:white;"/>
            <path d="M1160.24,564.578C1160.24,564.578 1186.82,515.625 1228.65,494.867C1231.04,493.724 1233.78,493.577 1236.28,494.46C1238.78,495.342 1240.82,497.18 1241.96,499.57C1243.94,503.762 1246,510.045 1247.48,519.36C1249.65,533.006 1251.77,571.031 1236.11,596.841C1236.11,596.841 1209.41,556.829 1160.24,564.578Z" style="fill:rgb(251,114,95);"/>
        </g>
        <g>
            <path d="M1688.45,982.187L1696.79,996.286C1697.64,997.712 1699.48,998.184 1700.9,997.341C1702.33,996.498 1702.8,994.656 1701.96,993.231L1693.62,979.132C1692.77,977.707 1690.93,977.234 1689.51,978.077C1688.08,978.92 1687.61,980.762 1688.45,982.187Z" style="fill:rgb(255,207,111);"/>
            <path d="M1707.32,991.395L1714.52,1002.71C1715.4,1004.11 1717.26,1004.52 1718.66,1003.64C1720.06,1002.75 1720.47,1000.89 1719.58,999.495L1712.39,988.177C1711.5,986.78 1709.64,986.366 1708.25,987.254C1706.85,988.142 1706.43,989.998 1707.32,991.395Z" style="fill:rgb(255,207,111);"/>
            <g transform="matrix(1,0,0,1,5.87031,1.13828)">
                <path d="M1336.51,1465.94C1336.51,1465.94 1335.69,1488.04 1336.55,1498.21C1336.69,1499.87 1338.14,1501.09 1339.79,1500.95C1341.44,1500.81 1342.67,1499.36 1342.53,1497.71C1341.68,1487.76 1342.51,1466.16 1342.51,1466.16C1342.57,1464.51 1341.28,1463.11 1339.62,1463.05C1337.97,1462.99 1336.57,1464.28 1336.51,1465.94Z" style="fill:rgb(255,207,111);"/>
            </g>
            <path d="M1365.33,1467.96L1366.11,1496.9C1366.15,1498.56 1367.53,1499.87 1369.19,1499.82C1370.84,1499.78 1372.15,1498.4 1372.11,1496.74L1371.33,1467.8C1371.29,1466.15 1369.9,1464.84 1368.25,1464.88C1366.6,1464.93 1365.29,1466.31 1365.33,1467.96Z" style="fill:rgb(255,207,111);"/>
            <path d="M1060.57,1446.1C1060.57,1446.1 1058.89,1465.92 1061.32,1475.31C1061.74,1476.92 1063.37,1477.88 1064.98,1477.47C1066.58,1477.05 1067.54,1475.41 1067.13,1473.81C1064.87,1465.07 1066.55,1446.63 1066.55,1446.63C1066.69,1444.98 1065.47,1443.52 1063.82,1443.38C1062.17,1443.23 1060.71,1444.45 1060.57,1446.1Z" style="fill:rgb(255,207,111);"/>
            <path d="M1081.97,1446.21C1081.97,1446.21 1082.98,1465.51 1082.71,1472.7C1082.64,1474.36 1083.94,1475.75 1085.59,1475.82C1087.25,1475.88 1088.64,1474.59 1088.7,1472.93C1088.98,1465.59 1087.96,1445.9 1087.96,1445.9C1087.88,1444.25 1086.47,1442.98 1084.81,1443.06C1083.16,1443.15 1081.89,1444.56 1081.97,1446.21Z" style="fill:rgb(255,207,111);"/>
            <path d="M1834.45,1467.79C1834.45,1467.79 1834.38,1483.23 1835.19,1496.53C1835.29,1498.18 1836.72,1499.44 1838.37,1499.34C1840.02,1499.24 1841.28,1497.81 1841.18,1496.16C1840.38,1483.04 1840.45,1467.82 1840.45,1467.82C1840.46,1466.16 1839.12,1464.81 1837.46,1464.8C1835.81,1464.8 1834.46,1466.13 1834.45,1467.79Z" style="fill:rgb(255,207,111);"/>
            <path d="M1857.44,1468.05C1857.44,1468.05 1858.56,1479.4 1858.8,1496.62C1858.82,1498.27 1860.18,1499.6 1861.84,1499.58C1863.49,1499.56 1864.82,1498.19 1864.8,1496.54C1864.56,1479.01 1863.41,1467.46 1863.41,1467.46C1863.25,1465.81 1861.78,1464.61 1860.13,1464.77C1858.48,1464.93 1857.28,1466.4 1857.44,1468.05Z" style="fill:rgb(255,207,111);"/>
            <path d="M1279.32,1196.44C1279.32,1196.44 1274.25,1179.31 1269.86,1164.44C1268.9,1161.2 1266.01,1158.92 1262.64,1158.74C1259.27,1158.56 1256.16,1160.52 1254.86,1163.63C1248.68,1178.46 1241.44,1195.82 1241.44,1195.82C1241.44,1195.82 1272.88,1199.43 1279.32,1196.44Z" style="fill:rgb(255,207,111);"/>
            <g transform="matrix(1,0,0,1,-1.53289,1.6646)">
                <path d="M1307.05,772.546C1307.05,772.546 1252.54,771.956 1206.33,770.591C1202.15,770.323 1198.42,773.229 1197.67,777.353C1196.91,781.477 1199.36,785.513 1203.37,786.746C1243.78,799.662 1299.49,815.108 1345.25,818.942L1314.42,787.772L1307.05,772.546Z" style="fill:rgb(255,207,111);"/>
            </g>
            <path d="M1386.82,1163.97L1389.45,1193.84L1404.17,1194.09L1401.39,1162.69C1401.04,1158.66 1397.49,1155.69 1393.46,1156.04C1389.44,1156.4 1386.46,1159.95 1386.82,1163.97Z" style="fill:rgb(255,207,111);"/>
            <path d="M1163.79,1176.19C1163.79,1176.19 1136.21,1161.34 1110.19,1142.66C1107.77,1140.59 1104.16,1140.7 1101.87,1142.91C1099.57,1145.12 1099.33,1148.72 1101.31,1151.22C1121.49,1180.11 1146.59,1214.1 1158.57,1223.14L1163.79,1176.19Z" style="fill:rgb(255,207,111);"/>
            <path d="M1629.81,1181.02C1629.81,1181.02 1612.15,1143.13 1597.61,1111.92C1595.98,1108.41 1592.06,1106.58 1588.32,1107.57C1584.58,1108.56 1582.09,1112.09 1582.4,1115.94C1584.88,1146.29 1587.72,1181.02 1587.72,1181.02L1629.81,1181.02Z" style="fill:rgb(255,207,111);"/>
            <path d="M1039.05,690.357C1035.49,694.724 1031.77,697.941 1028.34,700.324C1024.68,702.82 1020.02,703.312 1015.92,701.632C1011.83,699.953 1008.85,696.327 1007.99,691.982C1004.84,675.929 999.288,647.631 995.533,628.502C992.917,615.173 997.962,601.498 1008.61,593.062C1021.93,582.509 1040.1,568.108 1048.72,561.283C1054.12,557.008 1060.28,553.798 1066.87,551.821C1079.12,548.168 1087.25,550.236 1092.61,553.791C1098.18,557.488 1100.84,562.953 1101.99,566.156L1177.26,560.228C1204.88,558.053 1230.64,574.292 1240.6,600.148C1242.29,604.548 1244,608.996 1245.67,613.324C1253.55,633.802 1273.23,647.313 1295.17,647.313C1317.47,647.313 1343.73,647.313 1357.14,647.328C1364.58,647.328 1371.12,652.229 1373.22,659.361C1379.57,680.855 1376.69,717.097 1373.37,742.3C1371.02,759.913 1357.24,773.816 1339.65,776.335L1310.46,780.516C1457.66,940.471 1661.36,898.606 1661.36,898.606C1662.98,898.272 1664.57,899.318 1664.9,900.94C1665.24,902.562 1664.19,904.149 1662.57,904.483C1662.57,904.483 1452.03,947.821 1302.21,780.348C1301.47,779.524 1301.25,778.361 1301.62,777.321C1302,776.282 1302.92,775.535 1304.02,775.378C1304.02,775.378 1322.2,772.774 1338.8,770.396C1353.73,768.257 1365.43,756.456 1367.42,741.51C1370.65,717.068 1373.63,681.912 1367.46,661.057C1366.12,656.475 1361.91,653.328 1357.13,653.328C1343.72,653.313 1317.47,653.313 1295.17,653.313C1270.75,653.313 1248.84,638.274 1240.07,615.48C1238.4,611.151 1236.69,606.703 1235,602.303C1226,578.925 1202.7,564.243 1177.73,566.21C1142.83,568.958 1100.05,572.327 1100.05,572.327C1098.53,572.447 1097.16,571.409 1096.87,569.913C1096.87,569.913 1095.48,562.896 1089.29,558.792C1084.98,555.935 1078.43,554.635 1068.59,557.569C1062.73,559.327 1057.25,562.183 1052.45,565.987C1043.83,572.812 1025.65,587.212 1012.34,597.764C1003.45,604.806 999.237,616.221 1001.42,627.347C1005.18,646.476 1010.73,674.773 1013.88,690.827C1014.35,693.192 1015.97,695.166 1018.2,696.081C1020.43,696.995 1022.97,696.727 1024.94,695.383C1029.8,692.002 1035.31,686.695 1039.91,678.365C1040.58,677.146 1042,676.55 1043.34,676.925C1044.68,677.299 1045.59,678.546 1045.53,679.937C1045.53,679.937 1037.56,873.245 1016.23,945.962C1016.22,946.001 1016.21,946.04 1016.19,946.079C1016.19,946.079 994.138,1011.92 1045.35,1153.31C1045.39,1153.43 1045.43,1153.54 1045.46,1153.66C1045.46,1153.66 1082.71,1315.94 1090.27,1421.25C1090.34,1422.14 1090,1423.02 1089.36,1423.63C1088.71,1424.25 1087.82,1424.55 1086.94,1424.45C1086.94,1424.45 1069.96,1422.45 1057.6,1432.73C1049.6,1439.38 1043.75,1451.16 1045.28,1471.7L1138.09,1471.7L1159.48,1178.46C1159.55,1177.49 1160.09,1176.62 1160.92,1176.12C1161.75,1175.61 1162.77,1175.54 1163.66,1175.93C1163.66,1175.93 1219.8,1200.33 1274.7,1190.51C1276.21,1190.24 1277.68,1191.15 1278.11,1192.62L1351.64,1442.84C1351.9,1443.75 1351.72,1444.74 1351.15,1445.5C1350.57,1446.26 1349.67,1446.7 1348.72,1446.69C1348.72,1446.69 1335.52,1446.55 1326.71,1457.22C1320.83,1464.35 1317.06,1476.13 1319.79,1495.49L1411.89,1495.49L1389.74,1193.68C1389.68,1192.88 1389.94,1192.09 1390.47,1191.49C1390.99,1190.89 1391.74,1190.52 1392.54,1190.47C1392.54,1190.47 1607.2,1176.77 1623.21,1175.75C1624.88,1175.64 1626.49,1176.46 1627.38,1177.88C1635.54,1190.77 1646.77,1208.81 1704.29,1232.92C1738.6,1247.39 1766.77,1273.41 1783.92,1306.46C1810.01,1356.68 1845.36,1425.95 1849.84,1440.19C1850.54,1442.4 1850.45,1443.9 1850.25,1444.5C1849.87,1445.59 1849.15,1446.18 1848.34,1446.49C1847.06,1446.98 1833.93,1447.63 1825.11,1458.83C1819.48,1465.97 1815.72,1477.35 1817.64,1495.49L1909.58,1495.49C1903.6,1457.78 1847.09,1119.68 1718.17,946.911C1717.18,945.584 1717.45,943.703 1718.78,942.713C1720.11,941.723 1721.99,941.996 1722.98,943.323C1860.31,1127.37 1916.05,1498.05 1916.05,1498.05C1916.18,1498.91 1915.93,1499.79 1915.36,1500.45C1914.79,1501.11 1913.96,1501.49 1913.09,1501.49L1814.98,1501.49C1813.47,1501.49 1812.2,1500.38 1812,1498.88C1809.12,1476.92 1813.81,1463.46 1820.39,1455.11C1828.26,1445.13 1839.04,1442.37 1843.84,1441.39C1843.35,1439.94 1842.59,1437.82 1841.64,1435.6C1832.05,1413 1801.66,1353.63 1778.6,1309.22C1762.09,1277.41 1734.98,1252.38 1701.96,1238.45C1643.31,1213.87 1631.2,1195.13 1622.76,1181.79L1395.94,1196.26L1418.11,1498.28C1418.17,1499.11 1417.89,1499.93 1417.32,1500.54C1416.75,1501.15 1415.95,1501.49 1415.12,1501.49L1317.21,1501.49C1315.74,1501.49 1314.49,1500.43 1314.25,1498.98C1310.42,1475.61 1315.22,1461.72 1322.08,1453.4C1329.46,1444.46 1339.41,1441.8 1344.85,1441.02L1273.11,1196.86C1226.07,1204.38 1178.79,1188.23 1165.16,1182.99L1143.87,1474.91C1143.75,1476.48 1142.45,1477.7 1140.88,1477.7L1042.53,1477.7C1040.99,1477.7 1039.7,1476.53 1039.55,1475C1036.99,1449.92 1044.34,1435.95 1053.76,1428.12C1064.3,1419.36 1077.72,1418.28 1084.04,1418.32C1076.12,1315.32 1040.99,1161.03 1039.65,1155.18C988.62,1014.2 1009.6,946.938 1010.48,944.24C1028.69,882.115 1037.05,731.68 1039.05,690.357Z" style="fill:rgb(255,207,111);"/>
            <path d="M1606.81,805.709C1611.89,788.324 1624.54,751.111 1645.1,728.185C1654.65,717.534 1665.91,709.947 1678.8,708.389C1691.66,706.836 1706.26,711.222 1722.52,725.041C1745.9,744.914 1749.61,771.015 1742.03,798.005C1730.98,837.303 1695.58,878.532 1663.84,903.888C1662.54,904.922 1660.65,904.71 1659.62,903.416C1658.59,902.123 1658.8,900.233 1660.09,899.2C1690.95,874.551 1725.52,834.583 1736.25,796.382C1743.19,771.705 1740.01,747.783 1718.63,729.612C1704.04,717.211 1691.06,712.952 1679.52,714.346C1668.02,715.736 1658.09,722.689 1649.56,732.191C1622.88,761.948 1610.07,816.591 1610.07,816.591C1609.77,817.881 1608.65,818.819 1607.33,818.898C1606.01,818.977 1604.79,818.179 1604.33,816.934C1573.85,733.607 1600.6,680.1 1643.53,662.724C1686.44,645.358 1746.39,663.915 1783.43,725.786C1806.6,764.494 1801.53,807.855 1786.91,845.957C1765.26,902.418 1722.75,947.183 1722.75,947.183C1721.61,948.384 1719.71,948.433 1718.51,947.292C1717.31,946.152 1717.26,944.252 1718.4,943.051C1718.4,943.051 1760.08,899.164 1781.31,843.809C1795.29,807.367 1800.44,765.889 1778.28,728.867C1743.12,670.126 1686.52,651.798 1645.78,668.286C1606.66,684.118 1582.97,731.896 1606.81,805.709Z" style="fill:rgb(255,207,111);"/>
            <path d="M1332.84,647.664C1332.84,647.664 1338.88,700.401 1376.09,696.116C1376.09,696.116 1376.28,680.621 1376.45,667.162C1376.51,662.019 1374.51,657.065 1370.9,653.405C1367.29,649.745 1362.36,647.684 1357.22,647.68C1345.5,647.673 1332.84,647.664 1332.84,647.664Z" style="fill:rgb(59,107,191);"/>
            <path d="M1041.64,676.846C1041.64,676.846 1063.89,643.804 1078.34,616.879C1079.22,614.321 1081.88,612.833 1084.53,613.421C1087.17,614.01 1088.95,616.488 1088.66,619.18C1085.22,650.437 1074.24,698.746 1040.66,732.181L1041.64,676.846Z" style="fill:rgb(255,207,111);"/>
            <g>
                <g transform="matrix(1,0,0,1,-12.0504,-2.6528)">
                    <circle cx="1326.18" cy="709.42" r="6.316" style="fill:rgb(59,107,191);"/>
                </g>
                <g transform="matrix(1,0,0,1,-12.0504,-2.6528)">
                    <circle cx="1352.15" cy="719.244" r="5.618" style="fill:rgb(59,107,191);"/>
                </g>
                <g transform="matrix(1,0,0,1,-12.0504,-2.6528)">
                    <circle cx="1335.98" cy="736.261" r="5.798" style="fill:rgb(59,107,191);"/>
                </g>
                <g transform="matrix(1,0,0,1,-0.347644,-0.196958)">
                    <path d="M1181.43,640.732C1181.43,640.732 1163.61,616.066 1148.06,629.086C1137.76,637.705 1156.41,705.734 1184.48,712.031C1189.82,713.228 1224.33,698.47 1218.04,651.258C1217.33,645.975 1208.37,621.215 1181.43,640.732Z" style="fill:rgb(59,107,191);"/>
                </g>
            </g>
        </g>
    </g>
    <g id="SIGN">
        <g transform="matrix(0.99642,0,0,0.972103,-3.05651,20.4175)">
            <path d="M1362.89,844.576L1009.59,844.476L997.842,1136.12L1381,1134.97L1362.89,844.576Z" style="fill:rgb(159,193,234);"/>
        </g>
        <g transform="matrix(1.01409,0,0,1.01409,-12.3536,-11.4504)">
            <g transform="matrix(1.0372,0,0,1.0372,-37.5584,-37.0568)">
                <g transform="matrix(1,0,0,1,-6.52682,4.99032)">
                    <path d="M1048.68,887.916C1048.57,887.118 1048.77,886.281 1049.29,885.588C1050.24,884.338 1051.28,884.281 1051.77,884.259C1053.05,884.203 1054.33,884.664 1054.94,886.41C1055.03,886.657 1055.12,887.015 1055.13,887.477C1055.14,887.739 1054.99,888.782 1054.96,888.974C1054.94,889.906 1054.92,890.839 1054.91,891.772C1054.89,894.832 1054.91,897.894 1054.91,900.954C1054.91,909.917 1054.52,918.985 1055.02,927.94C1055.11,929.697 1053.77,931.202 1052.01,931.3C1050.25,931.398 1048.75,930.05 1048.65,928.293C1048.14,919.222 1048.54,910.035 1048.54,900.954C1048.54,897.877 1048.51,894.8 1048.54,891.724C1048.54,890.742 1048.57,889.76 1048.58,888.778C1048.59,888.607 1048.63,888.239 1048.68,887.916ZM1054.28,889.564C1054.01,889.876 1053.7,890.125 1053.36,890.309C1053.65,890.164 1053.97,889.935 1054.28,889.564Z" style="fill:white;"/>
                </g>
                <g transform="matrix(1,0,0,1,-6.52682,4.99032)">
                    <path d="M1052.52,883.195C1052.95,882.985 1053.45,882.759 1053.73,882.696C1055.17,882.376 1056.6,882.155 1058.08,882.05C1061.2,881.829 1068.08,880.957 1072.28,882.35C1075.14,883.299 1077.04,885.133 1077.54,887.888C1078.12,891.182 1076.46,894.279 1073.59,896.82C1071.25,898.893 1068.09,900.596 1066.02,901.858C1067.91,902.251 1070.29,902.783 1072.56,903.739C1077.5,905.822 1081.87,909.59 1081.96,916.706C1082.04,923.092 1078.53,926.691 1073.91,928.676C1070.04,930.339 1065.3,930.737 1061.85,930.819C1060.1,930.861 1058.63,929.466 1058.59,927.707C1058.55,925.948 1059.94,924.486 1061.7,924.444C1064.47,924.378 1068.29,924.152 1071.39,922.818C1073.75,921.807 1075.62,920.037 1075.58,916.786C1075.53,912.77 1072.87,910.791 1070.08,909.615C1066.35,908.04 1062.28,907.639 1060.72,907.081C1060.42,906.989 1057.37,906.056 1056.81,905.623C1055.84,904.877 1055.56,903.972 1055.49,903.297C1055.43,902.685 1055.49,901.697 1056.35,900.707C1056.96,900.006 1060.65,897.768 1060.8,897.677C1062.48,896.435 1066.55,894.537 1069.37,892.047C1069.93,891.546 1070.44,891.022 1070.81,890.46C1071.12,890.005 1071.35,889.538 1071.26,889.013C1071.22,888.788 1070.99,888.713 1070.79,888.611C1070.28,888.359 1069.66,888.212 1069,888.106C1065.46,887.542 1060.82,888.249 1058.53,888.411C1057.46,888.487 1056.41,888.644 1055.36,888.867C1055.05,889.041 1054.22,889.491 1053.86,889.603C1053.28,889.781 1052.75,889.805 1052.3,889.748C1051.03,889.588 1049.95,888.968 1049.44,887.342C1048.91,885.664 1049.84,883.872 1051.52,883.342C1051.85,883.237 1052.19,883.189 1052.52,883.195ZM1055.41,885.143L1055.46,885.261L1055.45,885.242L1055.41,885.143ZM1055.34,884.978L1055.4,885.113L1055.38,885.073L1055.34,884.978ZM1055.27,884.849L1055.34,884.969L1055.31,884.914L1055.27,884.849ZM1055.21,884.739L1055.25,884.81L1055.22,884.765L1055.21,884.739Z" style="fill:white;"/>
                </g>
                <g transform="matrix(0.99954,-0.0303358,0.0315989,1.04116,-28.6192,-3.32272)">
                    <path d="M1092.35,929.291C1092.54,929.977 1092.48,930.729 1092.12,931.414C1091.34,932.928 1089.43,933.549 1087.85,932.8C1087.54,932.65 1086.3,932.026 1086.04,930.229C1085.83,928.8 1085.81,922.001 1086.1,919.379C1087.19,909.349 1088.55,897.13 1096.19,889.56C1098.32,887.449 1101.52,886.241 1104.67,886.255C1108,886.269 1111.22,887.614 1113.17,890.38C1115.73,894.005 1116.26,898.622 1116.22,902.914C1116.17,906.859 1115.76,910.74 1115.29,914.653C1114.54,921.035 1114.25,927.499 1113.24,933.847C1112.98,935.517 1111.35,936.667 1109.61,936.412C1107.87,936.158 1106.67,934.595 1106.94,932.925C1107.93,926.654 1108.21,920.268 1108.96,913.964C1109.39,910.259 1109.8,906.584 1109.84,902.848C1109.87,899.772 1109.72,896.412 1107.89,893.813C1107.16,892.775 1105.89,892.382 1104.64,892.377C1103.21,892.371 1101.74,892.861 1100.77,893.819C1094.1,900.433 1093.4,911.256 1092.44,920.019C1092.21,922.126 1092.33,928.424 1092.35,929.291Z" style="fill:white;"/>
                </g>
                <path d="M1092.63,908.749C1092.96,908.808 1093.85,908.966 1094,908.986C1095.33,909.159 1096.66,909.273 1097.99,909.436C1102.22,909.953 1106.39,910.154 1110.63,910.379C1112.39,910.472 1113.74,911.974 1113.64,913.731C1113.55,915.489 1112.05,916.84 1110.29,916.747C1105.91,916.515 1101.59,916.301 1097.21,915.765C1095.87,915.601 1094.52,915.485 1093.17,915.309C1092.83,915.264 1090.81,914.888 1090.51,914.775C1088.63,914.064 1088.47,912.506 1088.44,912.026C1088.36,911.007 1088.56,909.645 1090.32,908.86C1091.08,908.524 1091.9,908.506 1092.63,908.749ZM1094.6,912.894C1094.33,913.613 1093.81,914.234 1093.08,914.607C1094,914.146 1094.4,913.47 1094.6,912.894ZM1094.61,910.671C1094.8,911.192 1094.85,911.735 1094.77,912.253C1094.86,911.747 1094.82,911.216 1094.61,910.671Z" style="fill:white;"/>
                <path d="M1133.69,888.321C1133.69,888.785 1133.7,890.419 1133.68,890.836C1133.46,893.985 1133.17,897.126 1132.89,900.27C1131.91,911.137 1130.64,921.978 1129.65,932.844C1129.49,934.596 1127.94,935.89 1126.19,935.731C1124.43,935.572 1123.14,934.02 1123.3,932.267C1124.29,921.404 1125.56,910.565 1126.54,899.7C1126.81,896.602 1127.1,893.506 1127.31,890.403C1127.36,889.773 1127.23,888.006 1127.42,886.989C1127.59,886.152 1127.92,885.51 1128.26,885.08C1129.36,883.705 1131.37,883.479 1132.74,884.576C1133.89,885.49 1134.24,887.035 1133.69,888.321Z" style="fill:white;"/>
                <path d="M1135.62,909.962C1136.21,911.625 1138.55,914.988 1139.58,916.977C1142.55,922.673 1145.46,928.446 1148.09,934.308C1148.81,935.914 1150.7,936.632 1152.31,935.912C1153.91,935.192 1154.63,933.303 1153.91,931.698C1151.23,925.723 1148.26,919.836 1145.24,914.03C1144.31,912.257 1142.15,909.306 1141.63,907.824C1141.04,906.166 1139.21,905.299 1137.55,905.889C1135.9,906.479 1135.03,908.304 1135.62,909.962Z" style="fill:white;"/>
                <path d="M1130.58,889.406C1133.24,890.351 1136.39,890.583 1139.43,891.082C1141.63,891.442 1143.8,891.902 1145.4,893.467C1146.75,894.782 1145.94,896.704 1144.75,897.965C1141.06,901.888 1134.95,904.961 1129.97,907.037C1128.35,907.714 1127.58,909.582 1128.25,911.207C1128.93,912.831 1130.8,913.601 1132.42,912.924C1138.17,910.529 1145.14,906.859 1149.4,902.334C1152.9,898.607 1153.83,892.794 1149.86,888.908C1147.31,886.411 1143.98,885.364 1140.46,884.789C1137.8,884.353 1135.04,884.222 1132.71,883.397C1131.05,882.808 1129.23,883.676 1128.64,885.334C1128.05,886.992 1128.92,888.817 1130.58,889.406Z" style="fill:white;"/>
                <path d="M1164.68,887.989C1164.96,898.826 1163.69,922.921 1164.69,933.723C1164.85,935.475 1166.41,936.766 1168.16,936.604C1169.91,936.442 1171.2,934.888 1171.04,933.136C1170.05,922.433 1171.33,898.56 1171.05,887.823C1171.01,886.064 1169.54,884.673 1167.78,884.719C1166.02,884.765 1164.63,886.23 1164.68,887.989Z" style="fill:white;"/>
                <path d="M1189.05,887.468C1187.66,889.745 1186.17,891.968 1184.55,894.085C1179.68,900.436 1174.01,906.701 1167.65,911.62C1166.26,912.698 1166.01,914.702 1167.08,916.094C1168.16,917.485 1170.16,917.74 1171.56,916.662C1178.34,911.41 1184.42,904.741 1189.61,897.961C1191.37,895.664 1192.99,893.255 1194.49,890.785C1195.41,889.283 1194.93,887.319 1193.43,886.404C1191.92,885.488 1189.96,885.965 1189.05,887.468Z" style="fill:white;"/>
                <path d="M1173.61,910.742C1176.03,914.049 1177.38,918.751 1179,922.49C1180.88,926.816 1183.14,930.959 1184.62,935.445C1185.17,937.116 1186.97,938.027 1188.64,937.477C1190.32,936.927 1191.23,935.123 1190.68,933.452C1189.14,928.781 1186.81,924.456 1184.85,919.951C1183.05,915.803 1181.44,910.642 1178.76,906.975C1177.72,905.555 1175.72,905.246 1174.3,906.286C1172.88,907.326 1172.57,909.323 1173.61,910.742Z" style="fill:white;"/>
                <path d="M1204.84,889.84C1205.25,893.371 1204.73,894.099 1204.82,897.653C1205.13,910.291 1204.89,922.958 1205.31,935.581C1205.37,937.34 1206.84,938.721 1208.6,938.662C1210.36,938.604 1211.74,937.128 1211.68,935.37C1211.26,922.765 1211.51,910.115 1211.19,897.496C1211.1,893.679 1211.62,892.896 1211.17,889.104C1210.97,887.356 1209.39,886.102 1207.64,886.305C1205.89,886.508 1204.64,888.092 1204.84,889.84Z" style="fill:white;"/>
                <g transform="matrix(1,0,0,1,1.77419,-1.79565)">
                    <path d="M1222.71,891.435C1222.82,892.672 1222.56,900.536 1222.7,904.077C1223.12,914.831 1222.8,925.566 1222.87,936.322C1222.88,938.082 1224.32,939.501 1226.08,939.488C1227.84,939.476 1229.26,938.038 1229.25,936.278C1229.17,925.453 1229.5,914.649 1229.07,903.827C1228.93,900.198 1229.18,892.138 1229.06,890.871C1228.91,889.118 1227.36,887.822 1225.61,887.977C1223.85,888.133 1222.56,889.682 1222.71,891.435Z" style="fill:white;"/>
                </g>
                <g transform="matrix(0.959554,0,0,0.955402,51.4039,37.0511)">
                    <path d="M1247.08,927.063C1246.79,916.732 1245.44,894.659 1245.4,892.005C1245.37,890.164 1246.84,888.646 1248.67,888.618C1250.51,888.59 1252.02,890.063 1252.04,891.904C1252.08,894.575 1253.46,916.959 1253.74,927.147C1253.82,930.199 1253.99,933.252 1253.93,936.306C1253.93,936.783 1253.85,939.216 1253.36,940.24C1252.68,941.627 1251.57,942.25 1250.41,942.379C1249.56,942.473 1248.62,942.281 1247.74,941.617C1247.04,941.092 1246.22,939.719 1245.93,939.28C1244.67,937.318 1243.58,935.246 1242.59,933.133C1238.59,924.632 1234.98,916.971 1230.99,908.462C1229.06,904.371 1225.39,897.479 1223.43,893.406C1222.64,891.747 1223.33,889.75 1224.98,888.949C1226.63,888.149 1228.62,888.845 1229.42,890.504C1231.38,894.592 1235.07,901.508 1237,905.613L1247.08,927.063Z" style="fill:white;"/>
                </g>
                <g transform="matrix(1,0,0,1,2.39849,-2.06455)">
                    <path d="M1289.5,925.992C1289.45,926.521 1289.37,927.053 1289.26,927.585C1288.3,932.278 1284.93,936.835 1281.27,938.739C1274.5,942.256 1267.45,939.474 1263.28,933.53C1258.03,926.038 1257.37,914.81 1259.02,906.128C1259.72,902.453 1260.31,899.218 1263.25,895.576C1269.9,887.326 1277.91,888.884 1280.67,890.553C1282.67,891.765 1283.09,893.548 1282.97,894.612C1282.76,896.36 1281.17,897.611 1279.43,897.405C1278.45,897.289 1277.63,896.744 1277.13,895.98C1276.04,895.869 1271.38,895.653 1268.21,899.578C1266.08,902.23 1265.8,904.645 1265.29,907.322C1263.93,914.452 1264.19,923.715 1268.5,929.869C1270.8,933.15 1274.59,935.022 1278.33,933.081C1280.05,932.189 1281.57,930.26 1282.45,928.131C1279.04,928.096 1275.89,926.247 1275.03,922.482C1274.51,920.268 1275.05,918.63 1275.94,917.455C1276.84,916.269 1278.22,915.485 1279.85,915.238C1282.4,914.851 1285.55,915.914 1287.21,917.934C1287.54,918.338 1287.84,918.761 1288.09,919.199C1289.08,918.345 1289.95,917.347 1290.68,916.301C1291.69,914.856 1293.67,914.5 1295.12,915.505C1296.56,916.511 1296.92,918.5 1295.91,919.944C1294.25,922.332 1292.05,924.484 1289.5,925.992Z" style="fill:white;"/>
                </g>
            </g>
            <g id="Layer1">
                <g>
                    <path d="M1122.1,966.578C1122.07,966.897 1122.05,967.306 1122.06,967.617C1122.13,969.842 1122.58,972.428 1122.57,973.567C1122.54,982.197 1122.77,991.128 1124.39,999.638C1124.73,1001.43 1123.55,1003.17 1121.76,1003.51C1119.97,1003.85 1118.24,1002.67 1117.89,1000.88C1116.19,991.952 1115.92,982.589 1115.96,973.539C1115.96,972.214 1115.36,968.929 1115.45,966.54C1115.53,964.614 1116.1,963.072 1116.86,962.189C1117.4,961.57 1118.18,961.009 1119.14,960.585C1120.34,960.051 1121.93,959.73 1122.86,959.452C1127.1,958.182 1131.36,957.345 1135.72,956.621C1137.57,956.314 1139.43,956.024 1141.3,955.799C1141.9,955.726 1142.52,955.674 1143.12,955.597C1143.5,955.549 1144.46,955.376 1144.6,955.381C1146.72,955.452 1147.39,956.931 1147.63,957.608C1147.75,957.974 1148.6,960.421 1145.86,961.715C1145.47,961.899 1145.06,962 1144.65,962.024C1144.4,962.077 1144.1,962.14 1143.96,962.157C1143.34,962.237 1142.71,962.291 1142.09,962.366C1140.32,962.579 1138.56,962.855 1136.8,963.146C1132.72,963.824 1128.72,964.599 1124.76,965.788L1122.1,966.578ZM1142.71,955.91L1142.65,955.946L1142.73,955.899L1142.71,955.91ZM1142.86,955.822L1142.78,955.868L1142.88,955.815L1142.86,955.822Z" style="fill:white;"/>
                    <path d="M1120.51,983.889C1120.01,983.969 1119.49,983.935 1118.98,983.771C1117.24,983.212 1116.29,981.347 1116.85,979.609C1116.89,979.46 1117.41,977.6 1119.67,977.326C1120.1,977.274 1122.23,977.128 1122.36,977.111C1125.4,976.716 1128.43,976.135 1131.47,975.806C1133.29,975.61 1134.92,976.924 1135.11,978.739C1135.31,980.553 1134,982.186 1132.18,982.382C1129.18,982.705 1126.21,983.281 1123.22,983.67C1123.09,983.686 1120.84,983.863 1120.51,983.889Z" style="fill:white;"/>
                    <path d="M1177.94,965.921C1179.98,964.281 1181.71,962.261 1182.96,959.98C1183.84,958.38 1185.85,957.795 1187.45,958.675C1189.05,959.554 1189.64,961.566 1188.76,963.166C1186.7,966.904 1183.69,970.116 1180.13,972.5C1180.18,972.854 1180.22,973.206 1180.25,973.555C1181.03,982.444 1178.68,990.737 1173.24,997.794C1169.65,1002.46 1164.16,1006.55 1157.87,1004.04C1155.92,1003.26 1154.37,1001.85 1153.17,1000.07C1151.73,997.93 1150.84,995.243 1150.28,993.002C1147.86,983.294 1150.41,970 1158.34,963.387C1161.86,960.45 1166.62,959.031 1171.12,960.208C1171.76,960.378 1173.5,960.856 1174.53,961.531C1175.46,962.147 1176.05,962.936 1176.34,963.761C1176.95,964.414 1177.48,965.142 1177.94,965.921ZM1159.09,972.671C1155.9,978.13 1155.26,985.619 1156.69,991.405C1157.03,992.744 1157.49,994.32 1158.24,995.695C1158.76,996.632 1159.37,997.515 1160.33,997.897C1162.02,998.573 1163.52,997.963 1164.82,997.017C1166.03,996.128 1167.1,994.936 1168.01,993.757C1172.09,988.451 1174.01,982.277 1173.76,975.658C1172.91,975.948 1172.04,976.193 1171.17,976.392C1169.02,976.88 1166.36,977.108 1164.11,976.498C1162.15,975.967 1160.44,974.867 1159.28,972.999C1159.21,972.889 1159.15,972.78 1159.09,972.671ZM1172.31,969.153C1171.85,968.419 1171.21,967.818 1170.36,967.457C1170.07,967.336 1169.69,967.364 1169.28,967.395C1168.22,967.472 1167.03,967.82 1166.04,968.365C1165.64,968.582 1165.29,968.828 1165.01,969.118C1164.9,969.227 1164.8,969.352 1164.89,969.505C1165.21,970.007 1165.77,970.133 1166.32,970.21C1167.45,970.366 1168.67,970.175 1169.7,969.942C1170.59,969.74 1171.46,969.476 1172.31,969.153Z" style="fill:white;"/>
                    <path d="M1193.2,1000.83C1193.23,999.718 1193.29,998.612 1193.33,997.506C1193.46,993.959 1193.55,990.408 1193.65,986.86C1193.84,980.202 1194.01,973.535 1194.31,966.881C1194.36,965.575 1194.15,962.971 1194.61,961.108C1195.01,959.495 1195.85,958.259 1196.97,957.522C1198.12,956.764 1199.49,956.401 1200.93,956.337C1202.34,956.274 1203.84,956.525 1205.07,956.641C1208.35,956.947 1214.31,957.751 1218.4,959.967C1222.11,961.975 1224.43,965.038 1224.03,969.262C1223.6,973.723 1220.7,977.161 1216.57,979.633C1211.56,982.627 1204.71,984.194 1200.31,985.123L1200.26,987.048C1200.16,990.617 1200.08,994.188 1199.94,997.756C1199.9,998.891 1199.83,1000.02 1199.81,1001.16C1199.8,1001.36 1199.74,1001.74 1199.67,1002.1L1199.67,1002.11C1200.08,1003.89 1198.97,1005.67 1197.19,1006.08C1196.07,1006.34 1195.24,1006.06 1194.63,1005.71C1194.04,1005.36 1193.56,1004.87 1193.24,1004.2C1193.04,1003.77 1192.88,1003.21 1192.9,1002.52C1192.9,1002.14 1193.13,1001.12 1193.2,1000.83ZM1197.31,999.663C1196.91,999.537 1196.44,999.496 1195.89,999.596C1196.38,999.514 1196.86,999.542 1197.31,999.663ZM1200.51,978.318C1204.3,977.497 1209.36,976.238 1213.17,973.957C1215.38,972.636 1217.22,971.018 1217.45,968.634C1217.58,967.236 1216.48,966.448 1215.25,965.784C1211.95,963.995 1207.11,963.474 1204.45,963.226C1203.74,963.159 1202.92,963.029 1202.1,962.967C1201.74,962.939 1201.36,962.86 1201.03,962.901C1200.97,963.281 1200.89,963.89 1200.89,964.289C1200.88,965.407 1200.94,966.485 1200.91,967.173C1200.75,970.885 1200.62,974.601 1200.51,978.318Z" style="fill:white;"/>
                    <path d="M1207.19,981.698C1206.65,981.05 1206.35,980.193 1206.42,979.282C1206.56,977.697 1207.43,977.066 1207.88,976.762C1208.9,976.063 1210.17,975.799 1211.59,976.738C1211.83,976.897 1212.14,977.145 1212.44,977.539C1212.59,977.736 1213.04,978.612 1213.12,978.786C1213.46,979.351 1213.79,979.92 1214.13,980.483C1215.2,982.257 1216.31,984.01 1217.42,985.762C1220.6,990.775 1223.42,996.653 1227.25,1001.22C1228.42,1002.62 1228.24,1004.7 1226.84,1005.88C1225.44,1007.05 1223.36,1006.87 1222.18,1005.47C1218.17,1000.69 1215.16,994.556 1211.84,989.301C1210.7,987.512 1209.57,985.72 1208.47,983.908C1208.11,983.312 1207.76,982.709 1207.41,982.111C1207.36,982.031 1207.28,981.866 1207.19,981.698ZM1212.66,981.079C1212.83,980.775 1212.97,980.377 1213.01,979.848C1212.98,980.291 1212.85,980.707 1212.66,981.079Z" style="fill:white;"/>
                </g>
                <g transform="matrix(1,0,0,1,0.550138,4.39491)">
                    <path d="M1078.95,1032.72C1079.27,1029.56 1077.54,1026.54 1074.63,1024.41C1070.82,1021.62 1065.17,1020.6 1062.02,1021.95C1055.04,1024.94 1051.2,1033.53 1049.85,1040.43C1047.87,1050.51 1049.02,1062.74 1055.98,1070.86C1064.27,1080.54 1079.5,1078.98 1084.43,1066.96C1085.12,1065.27 1084.31,1063.34 1082.62,1062.64C1080.93,1061.95 1079,1062.76 1078.31,1064.45C1075.32,1071.75 1066.03,1072.43 1061,1066.56C1055.34,1059.94 1054.73,1049.92 1056.34,1041.7C1057.32,1036.71 1059.58,1030.19 1064.62,1028.03C1065.09,1027.83 1065.7,1027.87 1066.36,1027.96C1067.83,1028.17 1069.45,1028.81 1070.71,1029.74C1071.6,1030.39 1072.46,1031.09 1072.37,1032.04C1072.18,1033.86 1073.5,1035.48 1075.32,1035.67C1077.14,1035.86 1078.76,1034.53 1078.95,1032.72Z" style="fill:white;"/>
                    <path d="M1092.6,1025.96C1092.46,1025.14 1092.63,1024.26 1093.15,1023.52C1094.19,1022.03 1096.26,1021.66 1097.75,1022.7C1098.18,1023 1098.93,1023.64 1099.16,1024.95C1099.25,1025.47 1099.09,1027.84 1099.07,1028.21C1099.05,1031.22 1099.08,1034.22 1099.13,1037.23C1099.31,1048.77 1100.05,1060.32 1099.85,1071.86C1099.82,1073.69 1098.31,1075.14 1096.49,1075.11C1094.66,1075.08 1093.21,1073.57 1093.24,1071.75C1093.43,1060.28 1092.7,1048.8 1092.51,1037.34C1092.46,1034.26 1092.43,1031.17 1092.45,1028.09C1092.46,1027.94 1092.57,1026.44 1092.6,1025.96Z" style="fill:white;"/>
                    <path d="M1120.12,1025.93C1120.15,1026.41 1120.23,1027.77 1120.23,1028.04C1120.25,1031.21 1120.35,1034.39 1120.46,1037.56C1120.84,1049.01 1121.94,1060.92 1121.11,1072.38C1120.98,1074.2 1119.4,1075.57 1117.58,1075.44C1115.76,1075.31 1114.38,1073.72 1114.52,1071.9C1115.33,1060.67 1114.22,1049 1113.85,1037.78C1113.74,1034.54 1113.63,1031.31 1113.62,1028.07C1113.62,1027.58 1113.42,1025.7 1113.58,1024.72C1113.75,1023.62 1114.26,1022.86 1114.71,1022.43C1116.01,1021.15 1118.11,1021.18 1119.38,1022.48C1120.3,1023.43 1120.54,1024.78 1120.12,1025.93Z" style="fill:white;"/>
                    <path d="M1096.38,1052.36C1098.91,1053.3 1101.95,1053.61 1105.15,1053.61C1109.22,1053.61 1113.56,1053.09 1117.07,1053.33C1118.89,1053.45 1120.47,1052.07 1120.59,1050.25C1120.71,1048.43 1119.33,1046.85 1117.51,1046.73C1114.44,1046.52 1110.75,1046.84 1107.13,1046.96C1104.08,1047.06 1101.08,1047.05 1098.69,1046.16C1096.98,1045.52 1095.07,1046.39 1094.44,1048.1C1093.8,1049.81 1094.67,1051.72 1096.38,1052.36Z" style="fill:white;"/>
                    <path d="M1140.75,1072.84C1140.81,1073.24 1140.8,1073.65 1140.71,1074.07C1140.23,1076.2 1138.62,1076.5 1138.11,1076.6C1137.55,1076.71 1134.85,1076.94 1134.24,1074.02C1134.2,1073.83 1134.1,1072.27 1134.08,1071.94C1134.04,1070.84 1134.02,1069.75 1133.99,1068.65C1133.89,1065.25 1133.83,1061.86 1133.9,1058.46C1134.09,1049.83 1134.93,1040.23 1138.23,1032.17C1140.07,1027.65 1143.7,1023.06 1149.02,1022.56C1152.46,1022.23 1155.15,1023.64 1157.18,1025.96C1159.58,1028.7 1160.94,1032.9 1161.48,1036.08C1162.31,1040.97 1162.41,1045.97 1162.8,1050.92C1163.42,1058.79 1164.18,1066.75 1163.94,1074.66C1163.88,1076.49 1162.35,1077.92 1160.53,1077.87C1158.7,1077.81 1157.27,1076.28 1157.33,1074.46C1157.57,1066.79 1156.81,1059.07 1156.2,1051.44C1155.83,1046.69 1155.76,1041.89 1154.96,1037.18C1154.64,1035.35 1154.01,1033 1152.84,1031.17C1152.09,1030.01 1151.13,1029 1149.63,1029.14C1146.83,1029.41 1145.33,1032.28 1144.35,1034.66C1141.35,1042.01 1140.69,1050.76 1140.52,1058.6C1140.44,1061.89 1140.51,1065.17 1140.6,1068.46C1140.63,1069.53 1140.65,1070.61 1140.69,1071.68L1140.75,1072.84ZM1135.28,1070.88C1134.99,1071.12 1134.53,1071.58 1134.3,1072.46C1134.47,1071.83 1134.82,1071.29 1135.28,1070.88ZM1137.93,1070.07C1138.02,1070.08 1138.11,1070.1 1138.2,1070.12C1138.92,1070.28 1139.54,1070.67 1139.99,1071.19C1139.35,1070.4 1138.58,1070.14 1137.93,1070.07ZM1135.9,1070.44L1135.89,1070.45L1135.93,1070.43L1135.9,1070.44ZM1136.03,1070.38L1136.01,1070.39L1136.12,1070.33L1136.03,1070.38ZM1136.56,1070.17C1136.41,1070.21 1136.27,1070.27 1136.13,1070.33L1136.28,1070.27C1136.33,1070.25 1136.38,1070.23 1136.42,1070.21L1136.56,1070.17Z" style="fill:white;"/>
                    <path d="M1138.23,1050.51L1138.82,1050.49C1140.13,1050.51 1141.44,1050.52 1142.76,1050.55C1147.95,1050.66 1153.15,1050.7 1158.34,1050.92C1160.16,1051 1161.58,1052.54 1161.5,1054.37C1161.42,1056.19 1159.88,1057.61 1158.06,1057.53C1152.92,1057.31 1147.77,1057.27 1142.62,1057.16C1141.32,1057.14 1140.01,1057.13 1138.7,1057.1C1138.73,1057.1 1138.83,1057.1 1138.83,1057.1C1138.83,1057.1 1136.99,1057.05 1136.61,1056.92C1135.47,1056.53 1134.93,1055.78 1134.66,1055.22C1133.85,1053.59 1134.52,1051.6 1136.16,1050.79C1136.83,1050.46 1137.55,1050.38 1138.23,1050.51Z" style="fill:white;"/>
                    <path d="M1173.04,1024.12C1172.58,1029.36 1172.82,1034.76 1172.76,1040.02C1172.64,1051.49 1172.72,1062.94 1172.43,1074.41C1172.38,1076.24 1173.83,1077.76 1175.65,1077.8C1177.48,1077.85 1179,1076.41 1179.04,1074.58C1179.34,1063.08 1179.25,1051.59 1179.37,1040.09C1179.43,1035 1179.18,1029.78 1179.63,1024.71C1179.79,1022.89 1178.45,1021.29 1176.63,1021.12C1174.81,1020.96 1173.21,1022.31 1173.04,1024.12Z" style="fill:white;"/>
                    <path d="M1203.81,1025.49C1203.81,1025.62 1203.82,1025.75 1203.81,1025.81C1203.8,1026.22 1203.79,1026.62 1203.78,1027.03C1203.76,1028.28 1203.75,1029.54 1203.74,1030.79C1203.72,1034.45 1203.67,1038.11 1203.61,1041.77C1203.42,1052.87 1202.48,1063.95 1202.32,1075.05C1202.29,1076.87 1200.79,1078.33 1198.96,1078.31C1197.14,1078.28 1195.68,1076.78 1195.7,1074.95C1195.87,1063.85 1196.81,1052.77 1197,1041.66C1197.06,1038.02 1197.1,1034.38 1197.13,1030.75C1197.13,1029.46 1197.14,1028.18 1197.17,1026.9C1197.18,1026.46 1197.19,1026.02 1197.2,1025.57C1197.2,1025.6 1197.2,1025.68 1197.2,1025.68C1197.2,1025.68 1197.32,1024.15 1197.37,1023.99C1197.92,1022.4 1199.09,1021.97 1199.89,1021.82C1200.62,1021.68 1201.42,1021.74 1202.26,1022.26C1202.52,1022.43 1203.18,1022.8 1203.61,1023.91C1203.81,1024.43 1203.87,1024.97 1203.81,1025.49ZM1198.94,1028C1199.43,1028.29 1199.91,1028.4 1200.37,1028.4C1199.87,1028.38 1199.38,1028.24 1198.94,1028ZM1197.59,1026.63C1197.7,1026.84 1197.81,1027.01 1197.92,1027.14C1197.8,1026.98 1197.69,1026.81 1197.59,1026.63ZM1197.57,1026.6C1197.53,1026.5 1197.48,1026.4 1197.44,1026.3C1197.48,1026.41 1197.53,1026.51 1197.57,1026.6Z" style="fill:white;"/>
                    <path d="M1173.52,1025.75C1173.42,1025.6 1173.33,1025.44 1173.26,1025.27C1172.54,1023.59 1173.32,1021.64 1175,1020.92C1175.35,1020.77 1177.81,1019.95 1179.21,1022.38C1179.48,1022.84 1180.56,1025.28 1180.66,1025.49C1182.17,1028.87 1183.56,1032.31 1184.93,1035.75C1189.91,1048.23 1194.34,1061.51 1201.05,1073.24C1201.95,1074.83 1201.4,1076.85 1199.82,1077.75C1198.23,1078.66 1196.21,1078.11 1195.3,1076.52C1188.45,1064.52 1183.88,1050.96 1178.79,1038.2C1177.45,1034.85 1176.1,1031.49 1174.62,1028.2L1173.52,1025.75Z" style="fill:white;"/>
                    <g transform="matrix(1,0,0,1,3.90423,0.199935)">
                        <path d="M1240.42,1060.12C1240.41,1060.58 1240.37,1061.04 1240.31,1061.48C1239.68,1066.06 1236.98,1070.67 1233.26,1073.51C1229.2,1076.6 1224.03,1077.68 1218.94,1074.97C1216.73,1073.8 1214.82,1072.05 1213.33,1070.05C1210.74,1066.59 1209.81,1062.4 1209.41,1058.17C1208.6,1049.43 1210.34,1039.02 1216.19,1032.1C1219.55,1028.11 1224.55,1026.35 1229.67,1026.41C1231.22,1026.43 1232.79,1026.53 1234.3,1026.88C1234.98,1027.03 1235.64,1027.25 1236.27,1027.54C1236.21,1027.51 1236.03,1027.44 1236.03,1027.44C1236.03,1027.44 1237.32,1027.98 1237.58,1028.19C1237.91,1028.45 1238.14,1028.73 1238.31,1028.99C1238.83,1029.78 1238.95,1030.59 1238.81,1031.4C1238.69,1032.07 1238.39,1032.95 1237.3,1033.65C1236.15,1034.39 1234.72,1034.33 1233.65,1033.61L1233.5,1033.55C1233.29,1033.45 1233.06,1033.38 1232.83,1033.33C1231.77,1033.09 1230.67,1033.04 1229.58,1033.03C1226.44,1032.99 1223.31,1033.91 1221.24,1036.36C1216.51,1041.97 1215.34,1050.47 1216,1057.56C1216.28,1060.58 1216.78,1063.62 1218.63,1066.1C1219.54,1067.32 1220.69,1068.42 1222.04,1069.13C1224.61,1070.5 1227.2,1069.81 1229.25,1068.25C1230.89,1067 1232.23,1065.2 1233.03,1063.24C1232.59,1063.31 1232.14,1063.36 1231.7,1063.38C1227.96,1063.57 1223.9,1061.84 1222.58,1057.99C1220.24,1051.14 1227.79,1044.24 1234.31,1047.76C1236.33,1048.85 1237.86,1050.67 1238.88,1052.78C1239.27,1052.36 1239.64,1051.93 1239.97,1051.49C1241.07,1050.04 1243.15,1049.76 1244.6,1050.87C1246.06,1051.97 1246.34,1054.05 1245.23,1055.5C1243.93,1057.2 1242.29,1058.81 1240.42,1060.12ZM1233.38,1056.41C1232.97,1055.21 1232.26,1054.17 1231.17,1053.58C1230.55,1053.24 1229.89,1053.48 1229.44,1053.89C1228.92,1054.37 1228.58,1055.11 1228.84,1055.85C1228.98,1056.27 1229.38,1056.45 1229.77,1056.58C1230.27,1056.75 1230.83,1056.8 1231.36,1056.78C1232.04,1056.74 1232.72,1056.61 1233.38,1056.41ZM1232.89,1028.86C1233.11,1028.56 1233.39,1028.3 1233.73,1028.09C1233.35,1028.33 1233.08,1028.59 1232.89,1028.86Z" style="fill:white;"/>
                    </g>
                    <g transform="matrix(1,0,0,1,5.07015,0.118315)">
                        <path d="M1274.34,1024.07C1275.77,1023.45 1277.49,1023.91 1278.4,1025.24C1279.43,1026.75 1279.04,1028.81 1277.53,1029.84C1276.94,1030.24 1275.97,1030.59 1274.79,1030.69C1273.64,1030.78 1272.09,1030.62 1271.41,1030.67C1267.53,1030.94 1263.61,1031.17 1259.74,1031.64C1259.38,1031.68 1258.39,1031.76 1257.59,1031.81C1257.29,1033.71 1257.01,1035.63 1256.85,1037.55C1256.16,1045.59 1256.39,1053.68 1256.84,1061.74C1256.96,1063.98 1257.03,1066.24 1257.3,1068.47L1257.32,1068.73C1258.13,1068.8 1259.31,1068.89 1259.82,1068.92C1264.04,1069.19 1268.3,1069.26 1272.54,1069.18C1274.36,1069.14 1275.87,1070.6 1275.9,1072.42C1275.94,1074.25 1274.49,1075.76 1272.66,1075.79C1268.25,1075.87 1263.8,1075.8 1259.4,1075.52C1258.39,1075.46 1256.59,1075.47 1255.19,1075.15C1254.07,1074.9 1253.12,1074.43 1252.46,1073.86C1251.88,1073.35 1251.39,1072.62 1251.11,1071.73C1250.86,1070.93 1250.8,1069.88 1250.73,1069.26C1250.44,1066.88 1250.37,1064.49 1250.24,1062.1C1249.77,1053.74 1249.55,1045.34 1250.26,1036.99C1250.44,1034.89 1250.74,1032.79 1251.07,1030.7C1251.14,1030.28 1251.18,1029.42 1251.35,1028.77C1251.59,1027.88 1252.04,1027.18 1252.51,1026.72C1253.1,1026.14 1254.08,1025.61 1255.32,1025.37C1256.56,1025.12 1258.24,1025.16 1258.96,1025.07C1262.93,1024.6 1266.95,1024.35 1270.95,1024.07C1271.58,1024.03 1273.87,1024.07 1274.34,1024.07Z" style="fill:white;"/>
                    </g>
                    <g transform="matrix(1,0,0,1,5.07015,0.118315)">
                        <path d="M1256.42,1051.32C1256.17,1051.34 1254.74,1051.4 1254.17,1051.3C1253.02,1051.11 1252.3,1050.51 1251.91,1050.05C1250.75,1048.64 1250.95,1046.56 1252.35,1045.39C1253.22,1044.68 1254.34,1044.48 1255.34,1044.75C1255.68,1044.74 1256.33,1044.71 1256.46,1044.71C1258.42,1044.74 1260.39,1044.74 1262.36,1044.74C1264.18,1044.73 1265.67,1046.21 1265.67,1048.03C1265.68,1049.86 1264.2,1051.35 1262.37,1051.35C1260.39,1051.36 1258.41,1051.36 1256.42,1051.32Z" style="fill:white;"/>
                    </g>
                </g>
            </g>
        </g>
        <path d="M1317.66,788.397L1326.09,796.787C1326.09,796.787 1327.6,797.171 1329.98,798.524C1334.71,801.206 1339.29,805.201 1341.24,811.241C1342.9,816.395 1342.62,822.955 1339.21,831.316C1335.56,840.29 1328.39,851.16 1316.29,864.374C1315.17,865.595 1315.25,867.494 1316.47,868.613C1317.69,869.731 1319.59,869.649 1320.71,868.428C1346.76,840.005 1350.79,821.299 1346.95,809.399C1344.5,801.811 1338.88,796.675 1332.94,793.306C1324.41,788.464 1317.66,788.397 1317.66,788.397Z" style="fill:rgb(59,107,191);"/>
        <path d="M1031.82,801.208L1032.69,793.136C1032.69,793.136 1025.08,799.552 1021.29,804.267C1015.83,811.069 1011.27,819.803 1011.06,829.944C1010.84,840.683 1015.44,853.13 1029.54,866.534C1030.74,867.675 1032.64,867.627 1033.78,866.427C1034.92,865.227 1034.87,863.327 1033.67,862.186C1021.24,850.362 1016.86,839.542 1017.06,830.069C1017.24,821.345 1021.27,813.875 1025.97,808.024C1027.78,805.761 1031.82,801.208 1031.82,801.208Z" style="fill:rgb(59,107,191);"/>
        <g transform="matrix(-0.631838,0,0,0.631838,1927.7,356.391)">
            <g transform="matrix(0.862982,0,0,0.864373,144.906,130.402)">
                <path d="M1041.12,949.968L1064.91,965.302C1067.46,966.947 1068.2,970.35 1066.55,972.897C1064.9,975.444 1061.5,976.176 1058.94,974.532L1035.16,959.197C1032.61,957.553 1031.87,954.15 1033.52,951.603C1035.16,949.056 1038.57,948.323 1041.12,949.968Z" style="fill:white;"/>
            </g>
            <g transform="matrix(0.969017,0,0,0.174888,33.4463,816.965)">
                <path d="M1014.89,960.068L1059.75,964.22C1062.45,964.471 1064.61,976.837 1064.56,991.819C1064.52,1006.8 1062.29,1018.76 1059.58,1018.51L1014.72,1014.36C1012.02,1014.11 1009.86,1001.74 1009.91,986.76C1009.95,971.778 1012.18,959.818 1014.89,960.068Z" style="fill:white;"/>
            </g>
            <g transform="matrix(0.735187,0,0,0.82453,283.702,179.602)">
                <path d="M1024.07,1025.33C1038.59,1015.94 1047.45,1010.22 1052.19,1007.18C1055.09,1005.33 1059.12,1005.92 1061.2,1008.51C1063.28,1011.09 1062.62,1014.69 1059.72,1016.54C1054.99,1019.57 1046.14,1025.28 1031.66,1034.65C1028.78,1036.52 1024.74,1035.95 1022.64,1033.38C1020.55,1030.8 1021.19,1027.2 1024.07,1025.33Z" style="fill:white;"/>
            </g>
        </g>
        <g transform="matrix(0.631838,0,0,0.631838,420.662,358.988)">
            <g transform="matrix(0.862982,0,0,0.864373,144.906,130.402)">
                <path d="M1035.16,959.197L1058.94,974.532C1061.5,976.176 1064.9,975.444 1066.55,972.897C1068.2,970.35 1067.46,966.947 1064.91,965.302L1041.12,949.968C1038.57,948.323 1035.16,949.056 1033.52,951.603C1031.87,954.15 1032.61,957.553 1035.16,959.197Z" style="fill:white;"/>
            </g>
            <g transform="matrix(0.969017,0,0,0.174888,33.4463,816.965)">
                <path d="M1014.72,1014.36L1059.58,1018.51C1062.29,1018.76 1064.52,1006.8 1064.56,991.819C1064.61,976.837 1062.45,964.471 1059.75,964.22L1014.89,960.068C1012.18,959.818 1009.95,971.778 1009.91,986.76C1009.86,1001.74 1012.02,1014.11 1014.72,1014.36Z" style="fill:white;"/>
            </g>
            <g transform="matrix(0.735187,0,0,0.82453,283.702,179.602)">
                <path d="M1031.66,1034.65C1046.14,1025.28 1054.99,1019.57 1059.72,1016.54C1062.62,1014.69 1063.28,1011.09 1061.2,1008.51C1059.12,1005.92 1055.09,1005.33 1052.19,1007.18C1047.45,1010.22 1038.59,1015.94 1024.07,1025.33C1021.19,1027.2 1020.55,1030.8 1022.64,1033.38C1024.74,1035.95 1028.78,1036.52 1031.66,1034.65Z" style="fill:white;"/>
            </g>
        </g>
    </g>
</svg>
